<?xml version="1.0" encoding="UTF-8" standalone="no"?>
<svg
   xmlns:dc="http://purl.org/dc/elements/1.1/"
   xmlns:cc="http://creativecommons.org/ns#"
   xmlns:rdf="http://www.w3.org/1999/02/22-rdf-syntax-ns#"
   xmlns:svg="http://www.w3.org/2000/svg"
   xmlns="http://www.w3.org/2000/svg"
   xmlns:sodipodi="http://sodipodi.sourceforge.net/DTD/sodipodi-0.dtd"
   xmlns:inkscape="http://www.inkscape.org/namespaces/inkscape"
   width="139.7mm"
   height="186.944mm"
   viewBox="0 0 139.7 186.94402"
   version="1.1"
   id="svg1496"
   inkscape:version="1.0.2-2 (e86c870879, 2021-01-15)"
   sodipodi:docname="fighter-buttons-module.svg">
  <defs
     id="defs1490" />
  <sodipodi:namedview
     id="base"
     pagecolor="#ffffff"
     bordercolor="#0000ff"
     borderopacity="1"
     inkscape:pageopacity="0.0"
     inkscape:pageshadow="2"
     inkscape:zoom="1.979899"
     inkscape:cx="691.31275"
     inkscape:cy="316.92673"
     inkscape:document-units="in"
     inkscape:current-layer="layer1"
     inkscape:document-rotation="0"
     showgrid="false"
     units="mm"
     inkscape:window-width="3840"
     inkscape:window-height="2081"
     inkscape:window-x="3831"
     inkscape:window-y="-9"
     inkscape:window-maximized="1"
     inkscape:showpageshadow="false"
     showguides="true"
     inkscape:guide-bbox="true" />
  <metadata
     id="metadata1493">
    <rdf:RDF>
      <cc:Work
         rdf:about="">
        <dc:format>image/svg+xml</dc:format>
        <dc:type
           rdf:resource="http://purl.org/dc/dcmitype/StillImage" />
        <dc:title />
      </cc:Work>
    </rdf:RDF>
  </metadata>
  <g
     inkscape:label="Layer 1"
     inkscape:groupmode="layer"
     id="layer1">
    <g
       id="g89">
      <path
         id="rect16"
         style="fill:none;stroke:#000000;stroke-width:0.0762;stroke-linejoin:round;stroke-miterlimit:2.61313;stroke-dasharray:none"
         d="m 127.00001,0 c 7.0358,0 12.7,5.6642009 12.7,12.700001 V 174.24416 c 0,7.0358 -5.6642,12.7 -12.7,12.7 H 0 V 0 Z" />
      <circle
         style="fill:none;stroke:#000000;stroke-width:0.0762;stroke-linejoin:round;stroke-miterlimit:2.61313;stroke-dasharray:none"
         id="path895-1"
         cx="-10.950104"
         cy="10.950104"
         r="4.6000004"
         transform="scale(-1,1)" />
      <circle
         style="fill:none;stroke:#000000;stroke-width:0.0762;stroke-linejoin:round;stroke-miterlimit:2.61313;stroke-dasharray:none"
         id="path895-5"
         cx="-10.950104"
         cy="175.99411"
         r="4.6000004"
         transform="scale(-1,1)" />
      <rect
         style="fill:none;stroke:#ff0000;stroke-width:0.0760015;stroke-linejoin:round;stroke-miterlimit:2.61313;stroke-dasharray:none"
         id="rect44"
         width="139.7"
         height="139.7"
         x="-139.70001"
         y="-163.32211"
         rx="12.7"
         ry="12.7"
         transform="scale(-1)" />
      <path
         id="rect869"
         style="fill:none;stroke:#ff0000;stroke-width:0.076;stroke-linejoin:round;stroke-miterlimit:2.61313;stroke-dasharray:none"
         d="m 124.00016,160.32229 c 1.69809,0 3.31504,-0.33271 4.79299,-0.93224 a 5,5 0 0 1 -2.09341,-4.06797 5,5 0 0 1 5.00021,-5.00021 5,5 0 0 1 4.06797,2.09289 c 0.59941,-1.47783 0.93224,-3.09455 0.93224,-4.79247 V 39.321932 c 0,-1.69814 -0.33268,-3.31501 -0.93224,-4.79299 a 5,5 0 0 1 -4.06797,2.09341 5,5 0 0 1 -5.00021,-5.000209 5,5 0 0 1 2.09341,-4.06797 c -1.47798,-0.59956 -3.09485,-0.93224 -4.79299,-0.93224 H 15.6998 c -1.69814,0 -3.31501,0.33268 -4.79299,0.93224 a 5,5 0 0 1 2.09341,4.06797 5,5 0 0 1 -5.00021,5.000209 5,5 0 0 1 -4.06797,-2.09341 c -0.59956,1.47798 -0.93224,3.09485 -0.93224,4.79299 V 147.62229 c 0,1.69814 0.33268,3.31501 0.93224,4.79299 a 5,5 0 0 1 4.06797,-2.09341 5,5 0 0 1 5.00021,5.00021 5,5 0 0 1 -2.09341,4.06797 c 1.47798,0.59956 3.09485,0.93224 4.79299,0.93224 z" />
      <circle
         style="fill:none;stroke:#000000;stroke-width:0.076;stroke-linejoin:round;stroke-miterlimit:2.61313;stroke-dasharray:none"
         id="path873"
         cx="-131.70001"
         cy="-155.32211"
         r="2"
         transform="scale(-1)" />
      <circle
         style="fill:none;stroke:#000000;stroke-width:0.076;stroke-linejoin:round;stroke-miterlimit:2.61313;stroke-dasharray:none"
         id="path873-0"
         cx="-7.9999995"
         cy="-155.32211"
         r="2"
         transform="scale(-1)" />
      <circle
         style="fill:none;stroke:#000000;stroke-width:0.076;stroke-linejoin:round;stroke-miterlimit:2.61313;stroke-dasharray:none"
         id="path873-9"
         cx="-7.9999995"
         cy="-31.622116"
         r="2"
         transform="scale(-1)" />
      <circle
         style="fill:none;stroke:#000000;stroke-width:0.076;stroke-linejoin:round;stroke-miterlimit:2.61313;stroke-dasharray:none"
         id="path873-4"
         cx="-131.70001"
         cy="-31.622116"
         r="2"
         transform="scale(-1)" />
      <ellipse
         style="fill:none;stroke:#000000;stroke-width:0.0762;stroke-linejoin:round;stroke-miterlimit:2.61313;stroke-dasharray:none"
         id="path895-1-9"
         cx="-128.75"
         cy="10.9501"
         transform="scale(-1,1)"
         rx="4.5999002"
         ry="4.6000004" />
      <circle
         style="fill:none;stroke:#000000;stroke-width:0.0762;stroke-linejoin:round;stroke-miterlimit:2.61313;stroke-dasharray:none"
         id="path895-1-3"
         cx="-128.75011"
         cy="175.99411"
         r="4.6000004"
         transform="scale(-1,1)" />
      <g
         id="g347"
         transform="translate(41.252143,-2.6112895)">
        <path
           d="m -13.322712,66.857346 c 9.1182119,0 16.5100002,7.391788 16.5100002,16.510001 0,9.118177 -7.3917883,16.51 -16.5100002,16.51 -9.118177,0 -16.510001,-7.391823 -16.510001,-16.51 0,-9.118213 7.391824,-16.510001 16.510001,-16.510001 z"
           style="fill:none;stroke:#ff0000;stroke-width:0.0762;stroke-linecap:butt;stroke-linejoin:miter;stroke-miterlimit:2.61313;stroke-dasharray:none;stroke-opacity:1"
           id="path1898" />
        <path
           d="m -13.322712,68.127346 c 8.4168191,0 15.2400001,6.823181 15.2400001,15.240001 0,8.416784 -6.823181,15.24 -15.2400001,15.24 -8.416785,0 -15.240001,-6.823216 -15.240001,-15.24 0,-8.41682 6.823216,-15.240001 15.240001,-15.240001 z"
           style="fill:none;stroke:#000000;stroke-width:0.0762;stroke-linecap:butt;stroke-linejoin:miter;stroke-miterlimit:2.61313;stroke-dasharray:none;stroke-opacity:1"
           id="path1900" />
        <path
           d="m 26.851587,49.542942 c 9.118212,0 16.510001,7.391788 16.510001,16.51 0,9.118212 -7.391789,16.510001 -16.510001,16.510001 -9.118177,0 -16.510001,-7.391789 -16.510001,-16.510001 0,-9.118212 7.391824,-16.51 16.510001,-16.51 z"
           style="fill:none;stroke:#ff0000;stroke-width:0.0762;stroke-linecap:butt;stroke-linejoin:miter;stroke-miterlimit:2.61313;stroke-dasharray:none;stroke-opacity:1"
           id="path1902" />
        <path
           d="m 26.851587,50.812942 c 8.41682,0 15.240001,6.823181 15.240001,15.24 0,8.416784 -6.823181,15.240001 -15.240001,15.240001 -8.416784,0 -15.24,-6.823217 -15.24,-15.240001 0,-8.416819 6.823216,-15.24 15.24,-15.24 z"
           style="fill:none;stroke:#000000;stroke-width:0.0762;stroke-linecap:butt;stroke-linejoin:miter;stroke-miterlimit:2.61313;stroke-dasharray:none;stroke-opacity:1"
           id="path1904" />
        <path
           d="m 70.518387,50.28374 c 9.118212,0 16.51,7.391788 16.51,16.51 0,9.118212 -7.391788,16.510001 -16.51,16.510001 -9.118072,0 -16.509895,-7.391789 -16.509895,-16.510001 0,-9.118212 7.391823,-16.51 16.509895,-16.51 z"
           style="fill:none;stroke:#ff0000;stroke-width:0.0762;stroke-linecap:butt;stroke-linejoin:miter;stroke-miterlimit:2.61313;stroke-dasharray:none;stroke-opacity:1"
           id="path1906" />
        <path
           d="m 70.518387,51.55374 c 8.416819,0 15.24,6.823181 15.24,15.24 0,8.416784 -6.823181,15.240001 -15.24,15.240001 -8.416785,0 -15.239895,-6.823217 -15.239895,-15.240001 0,-8.416819 6.82311,-15.24 15.239895,-15.24 z"
           style="fill:none;stroke:#000000;stroke-width:0.0762;stroke-linecap:butt;stroke-linejoin:miter;stroke-miterlimit:2.61313;stroke-dasharray:none;stroke-opacity:1"
           id="path1908" />
        <path
           d="m -13.322712,109.60385 c 9.1182119,0 16.5100002,7.39179 16.5100002,16.51 0,9.11818 -7.3917883,16.51001 -16.5100002,16.51001 -9.118177,0 -16.510001,-7.39183 -16.510001,-16.51001 0,-9.11821 7.391824,-16.51 16.510001,-16.51 z"
           style="fill:none;stroke:#ff0000;stroke-width:0.0762;stroke-linecap:butt;stroke-linejoin:miter;stroke-miterlimit:2.61313;stroke-dasharray:none;stroke-opacity:1"
           id="path1910" />
        <path
           d="m -13.322712,110.87385 c 8.4168191,0 15.2400001,6.82319 15.2400001,15.24 0,8.41679 -6.823181,15.24001 -15.2400001,15.24001 -8.416785,0 -15.240001,-6.82322 -15.240001,-15.24001 0,-8.41681 6.823216,-15.24 15.240001,-15.24 z"
           style="fill:none;stroke:#000000;stroke-width:0.0762;stroke-linecap:butt;stroke-linejoin:miter;stroke-miterlimit:2.61313;stroke-dasharray:none;stroke-opacity:1"
           id="path1912" />
        <path
           d="m 26.851587,92.28945 c 9.118212,0 16.510001,7.391788 16.510001,16.51 0,9.11818 -7.391789,16.51 -16.510001,16.51 -9.118177,0 -16.510001,-7.39182 -16.510001,-16.51 0,-9.118212 7.391824,-16.51 16.510001,-16.51 z"
           style="fill:none;stroke:#ff0000;stroke-width:0.0762;stroke-linecap:butt;stroke-linejoin:miter;stroke-miterlimit:2.61313;stroke-dasharray:none;stroke-opacity:1"
           id="path1914" />
        <path
           d="m 26.851587,93.55945 c 8.41682,0 15.240001,6.82318 15.240001,15.24 0,8.41678 -6.823181,15.24 -15.240001,15.24 -8.416784,0 -15.24,-6.82322 -15.24,-15.24 0,-8.41682 6.823216,-15.24 15.24,-15.24 z"
           style="fill:none;stroke:#000000;stroke-width:0.0762;stroke-linecap:butt;stroke-linejoin:miter;stroke-miterlimit:2.61313;stroke-dasharray:none;stroke-opacity:1"
           id="path1916" />
        <path
           d="m 70.518387,93.030248 c 9.118212,0 16.51,7.391792 16.51,16.510002 0,9.11818 -7.391788,16.51 -16.51,16.51 -9.118072,0 -16.509895,-7.39182 -16.509895,-16.51 0,-9.11821 7.391823,-16.510002 16.509895,-16.510002 z"
           style="fill:none;stroke:#ff0000;stroke-width:0.0762;stroke-linecap:butt;stroke-linejoin:miter;stroke-miterlimit:2.61313;stroke-dasharray:none;stroke-opacity:1"
           id="path1918" />
        <path
           d="m 70.518387,94.300248 c 8.416819,0 15.24,6.823182 15.24,15.240002 0,8.41678 -6.823181,15.24 -15.24,15.24 -8.416785,0 -15.239895,-6.82322 -15.239895,-15.24 0,-8.41682 6.82311,-15.240002 15.239895,-15.240002 z"
           style="fill:none;stroke:#000000;stroke-width:0.0762;stroke-linecap:butt;stroke-linejoin:miter;stroke-miterlimit:2.61313;stroke-dasharray:none;stroke-opacity:1"
           id="path1920" />
      </g>
    </g>
  </g>
</svg>
