<?xml version="1.0" encoding="UTF-8" standalone="no"?>
<svg
   xmlns:dc="http://purl.org/dc/elements/1.1/"
   xmlns:cc="http://creativecommons.org/ns#"
   xmlns:rdf="http://www.w3.org/1999/02/22-rdf-syntax-ns#"
   xmlns:svg="http://www.w3.org/2000/svg"
   xmlns="http://www.w3.org/2000/svg"
   xmlns:sodipodi="http://sodipodi.sourceforge.net/DTD/sodipodi-0.dtd"
   xmlns:inkscape="http://www.inkscape.org/namespaces/inkscape"
   width="279.39999mm"
   height="186.944mm"
   viewBox="0 0 279.4 186.94402"
   version="1.1"
   id="svg1496"
   inkscape:version="1.0.2-2 (e86c870879, 2021-01-15)"
   sodipodi:docname="hitbox-module.svg">
  <defs
     id="defs1490" />
  <sodipodi:namedview
     id="base"
     pagecolor="#ffffff"
     bordercolor="#0000ff"
     borderopacity="1"
     inkscape:pageopacity="0.0"
     inkscape:pageshadow="2"
     inkscape:zoom="1.4"
     inkscape:cx="729.64083"
     inkscape:cy="253.41692"
     inkscape:document-units="in"
     inkscape:current-layer="layer1"
     inkscape:document-rotation="0"
     showgrid="false"
     units="mm"
     inkscape:window-width="3840"
     inkscape:window-height="2081"
     inkscape:window-x="3831"
     inkscape:window-y="-9"
     inkscape:window-maximized="1"
     inkscape:showpageshadow="false"
     showguides="true"
     inkscape:guide-bbox="true" />
  <metadata
     id="metadata1493">
    <rdf:RDF>
      <cc:Work
         rdf:about="">
        <dc:format>image/svg+xml</dc:format>
        <dc:type
           rdf:resource="http://purl.org/dc/dcmitype/StillImage" />
        <dc:title />
      </cc:Work>
    </rdf:RDF>
  </metadata>
  <g
     inkscape:label="Layer 1"
     inkscape:groupmode="layer"
     id="layer1">
    <g
       id="g185">
      <rect
         style="fill:none;stroke:#000000;stroke-width:0.0762;stroke-linejoin:round;stroke-miterlimit:2.61313;stroke-dasharray:none"
         id="rect16"
         width="279.40002"
         height="186.94402"
         x="-279.40012"
         y="-186.94412"
         rx="12.700001"
         ry="12.7"
         transform="scale(-1)" />
      <circle
         style="fill:none;stroke:#000000;stroke-width:0.0762;stroke-linejoin:round;stroke-miterlimit:2.61313;stroke-dasharray:none"
         id="path895"
         cx="-268.45013"
         cy="10.950104"
         r="4.6000004"
         transform="scale(-1,1)" />
      <circle
         style="fill:none;stroke:#000000;stroke-width:0.0762;stroke-linejoin:round;stroke-miterlimit:2.61313;stroke-dasharray:none"
         id="path895-1"
         cx="-10.950104"
         cy="10.950104"
         r="4.6000004"
         transform="scale(-1,1)" />
      <ellipse
         style="fill:none;stroke:#000000;stroke-width:0.0762;stroke-linejoin:round;stroke-miterlimit:2.61313;stroke-dasharray:none"
         id="path895-16"
         cx="-268.45023"
         cy="175.99411"
         rx="4.5999002"
         ry="4.6000004"
         transform="scale(-1,1)" />
      <circle
         style="fill:none;stroke:#000000;stroke-width:0.0762;stroke-linejoin:round;stroke-miterlimit:2.61313;stroke-dasharray:none"
         id="path895-5"
         cx="-10.950104"
         cy="175.99411"
         r="4.6000004"
         transform="scale(-1,1)" />
      <g
         id="g488">
        <path
           id="rect44-0"
           style="fill:none;stroke:#ff0000;stroke-width:0.0760015;stroke-linejoin:round;stroke-miterlimit:2.61313;stroke-dasharray:none"
           d="m 139.69998,163.32211 h -127 c -7.0358005,0 -12.7000004,-5.6642 -12.7000004,-12.7 V 36.322111 c 0,-7.0358 5.6641999,-12.7 12.7000004,-12.7 h 127 v 13 l -8.00003,2.38e-4 c -2.76159,1.16e-4 -5.00033,-2.238622 -5.00021,-5.00021 1.3e-4,-1.614437 0.77978,-3.129468 2.09341,-4.06797 -1.47798,-0.59956 -3.09485,-0.93224 -4.79299,-0.93224 H 15.699797 c -1.698138,0 -3.315004,0.33268 -4.792988,0.93224 1.31363,0.938501 2.093278,2.453533 2.093412,4.06797 1.16e-4,2.761589 -2.238624,5.000327 -5.0002123,5.00021 -1.6144365,-1.34e-4 -3.1294677,-0.779781 -4.0679687,-2.09341 -0.5995617,1.47798 -0.9322435,3.09485 -0.9322435,4.79299 V 147.62229 c 0,1.69814 0.3326818,3.31501 0.9322435,4.79299 0.938501,-1.31363 2.4535322,-2.09328 4.0679687,-2.09341 2.7615893,-1.2e-4 5.0003283,2.23862 5.0002123,5.00021 -1.34e-4,1.61444 -0.779782,3.12947 -2.093412,4.06797 1.477984,0.59956 3.09485,0.93224 4.792988,0.93224 H 124.00016 c 1.69809,0 3.31504,-0.33271 4.79299,-0.93224 -1.31363,-0.9385 -2.09328,-2.45353 -2.09341,-4.06797 -1.2e-4,-2.76159 2.23862,-5.00033 5.00021,-5.00021 l 8.00003,2.4e-4 z"
           sodipodi:nodetypes="csssscccccssccccssccccssccccc" />
        <path
           id="path873-04"
           style="fill:none;stroke:#000000;stroke-width:0.076;stroke-linejoin:round;stroke-miterlimit:2.61313;stroke-dasharray:none"
           d="m 129.69998,155.32211 a 2,2 0 0 1 2,-2 2,2 0 0 1 2,2 2,2 0 0 1 -2,2 2,2 0 0 1 -2,-2 z" />
        <path
           id="path873-0-3"
           style="fill:none;stroke:#000000;stroke-width:0.076;stroke-linejoin:round;stroke-miterlimit:2.61313;stroke-dasharray:none"
           d="m 5.9999815,155.32211 a 2,2 0 0 1 2,-2 2,2 0 0 1 2.0000001,2 2,2 0 0 1 -2.0000001,2 2,2 0 0 1 -2,-2 z" />
        <path
           id="path873-9-0"
           style="fill:none;stroke:#000000;stroke-width:0.076;stroke-linejoin:round;stroke-miterlimit:2.61313;stroke-dasharray:none"
           d="m 5.9999815,31.622113 a 2,2 0 0 1 2,-2 2,2 0 0 1 2.0000001,2 2,2 0 0 1 -2.0000001,2 2,2 0 0 1 -2,-2 z" />
        <path
           id="path873-4-7"
           style="fill:none;stroke:#000000;stroke-width:0.076;stroke-linejoin:round;stroke-miterlimit:2.61313;stroke-dasharray:none"
           d="m 129.69998,31.622113 a 2,2 0 0 1 2,-2 2,2 0 0 1 2,2 2,2 0 0 1 -2,2 2,2 0 0 1 -2,-2 z" />
        <path
           id="rect44-9"
           style="fill:none;stroke:#ff0000;stroke-width:0.0760015;stroke-linejoin:round;stroke-miterlimit:2.61313;stroke-dasharray:none"
           d="m 139.7,163.32212 h 127 c 7.0358,0 12.7,-5.6642 12.7,-12.7 V 36.322117 c 0,-7.0358 -5.6642,-12.7 -12.7,-12.7 h -127 v 13 l 8.00003,2.38e-4 c 2.76159,1.16e-4 5.00033,-2.238622 5.00021,-5.00021 -1.3e-4,-1.614437 -0.77978,-3.129468 -2.09341,-4.06797 1.47798,-0.59956 3.09485,-0.93224 4.79299,-0.93224 h 108.30036 c 1.69814,0 3.31501,0.33268 4.79299,0.93224 -1.31363,0.938501 -2.09328,2.453533 -2.09341,4.06797 -1.2e-4,2.761589 2.23862,5.000327 5.00021,5.00021 1.61444,-1.34e-4 3.12947,-0.779781 4.06797,-2.09341 0.59956,1.47798 0.93224,3.09485 0.93224,4.79299 V 147.6223 c 0,1.69814 -0.33268,3.31501 -0.93224,4.79299 -0.9385,-1.31363 -2.45353,-2.09328 -4.06797,-2.09341 -2.76159,-1.2e-4 -5.00033,2.23862 -5.00021,5.00021 1.3e-4,1.61444 0.77978,3.12947 2.09341,4.06797 -1.47798,0.59956 -3.09485,0.93224 -4.79299,0.93224 H 155.39982 c -1.69809,0 -3.31504,-0.33271 -4.79299,-0.93224 1.31363,-0.9385 2.09328,-2.45353 2.09341,-4.06797 1.2e-4,-2.76159 -2.23862,-5.00033 -5.00021,-5.00021 l -8.00003,2.4e-4 z"
           sodipodi:nodetypes="csssscccccssccccssccccssccccc" />
        <path
           id="path873-94"
           style="fill:none;stroke:#000000;stroke-width:0.076;stroke-linejoin:round;stroke-miterlimit:2.61313;stroke-dasharray:none"
           d="m 149.7,155.32212 a 2,2 0 0 0 -2,-2 2,2 0 0 0 -2,2 2,2 0 0 0 2,2 2,2 0 0 0 2,-2 z" />
        <path
           id="path873-0-2"
           style="fill:none;stroke:#000000;stroke-width:0.076;stroke-linejoin:round;stroke-miterlimit:2.61313;stroke-dasharray:none"
           d="m 273.4,155.32212 a 2,2 0 0 0 -2,-2 2,2 0 0 0 -2,2 2,2 0 0 0 2,2 2,2 0 0 0 2,-2 z" />
        <path
           id="path873-9-01"
           style="fill:none;stroke:#000000;stroke-width:0.076;stroke-linejoin:round;stroke-miterlimit:2.61313;stroke-dasharray:none"
           d="m 273.4,31.622119 a 2,2 0 0 0 -2,-2 2,2 0 0 0 -2,2 2,2 0 0 0 2,2 2,2 0 0 0 2,-2 z" />
        <path
           id="path873-4-5"
           style="fill:none;stroke:#000000;stroke-width:0.076;stroke-linejoin:round;stroke-miterlimit:2.61313;stroke-dasharray:none"
           d="m 149.7,31.622119 a 2,2 0 0 0 -2,-2 2,2 0 0 0 -2,2 2,2 0 0 0 2,2 2,2 0 0 0 2,-2 z" />
      </g>
      <g
         id="g94"
         transform="translate(-2.7025412,-3.1016895)">
        <g
           id="g2577"
           transform="translate(-77.8631,15.875)">
          <path
             d="m 206.86823,97.578304 c 9.11788,0 16.50941,7.391776 16.50941,16.509986 0,9.11818 -7.39153,16.51 -16.50941,16.51 -9.11785,0 -16.50941,-7.39182 -16.50941,-16.51 0,-9.11821 7.39156,-16.509986 16.50941,-16.509986 z"
             style="fill:none;stroke:#ff0000;stroke-width:0.0761986;stroke-linecap:butt;stroke-linejoin:miter;stroke-miterlimit:2.61313;stroke-dasharray:none;stroke-opacity:1"
             id="path1395" />
          <path
             d="m 206.86823,98.848304 c 8.41652,0 15.23946,6.823176 15.23946,15.239986 0,8.41679 -6.82294,15.24 -15.23946,15.24 -8.41648,0 -15.23946,-6.8232 -15.23946,-15.24 0,-8.41681 6.82298,-15.239986 15.23946,-15.239986 z"
             style="fill:none;stroke:#000000;stroke-width:0.0761986;stroke-linecap:butt;stroke-linejoin:miter;stroke-miterlimit:2.61313;stroke-dasharray:none;stroke-opacity:1"
             id="path1397" />
        </g>
        <g
           id="g2545-1-69"
           transform="translate(104.77267,22.787425)">
          <path
             d="m 37.346389,37.719002 c 6.66307,0 12.06456,5.401698 12.06456,12.065 0,6.663302 -5.40149,12.065 -12.06456,12.065 -6.66307,0 -12.06456,-5.401698 -12.06456,-12.065 0,-6.663302 5.40149,-12.065 12.06456,-12.065 z"
             style="fill:none;stroke:#000000;stroke-width:0.0761986;stroke-linecap:butt;stroke-linejoin:miter;stroke-miterlimit:2.61313;stroke-dasharray:none;stroke-opacity:1"
             id="path1403-9-7" />
          <path
             d="m 37.346389,36.360102 c 7.41354,0 13.42341,6.010099 13.42341,13.4239 0,7.413801 -6.00987,13.4239 -13.42341,13.4239 -7.41354,0 -13.42342,-6.010099 -13.42342,-13.4239 0,-7.413801 6.00988,-13.4239 13.42342,-13.4239 z"
             style="fill:none;stroke:#ff0000;stroke-width:0.0761986;stroke-linecap:butt;stroke-linejoin:miter;stroke-miterlimit:2.61313;stroke-dasharray:none;stroke-opacity:1"
             id="path1405-1-2" />
        </g>
        <g
           id="g2545-1-50"
           transform="translate(78.125344,38.851414)">
          <path
             d="m 37.346389,37.719002 c 6.66307,0 12.06456,5.401698 12.06456,12.065 0,6.663302 -5.40149,12.065 -12.06456,12.065 -6.66307,0 -12.06456,-5.401698 -12.06456,-12.065 0,-6.663302 5.40149,-12.065 12.06456,-12.065 z"
             style="fill:none;stroke:#000000;stroke-width:0.0761986;stroke-linecap:butt;stroke-linejoin:miter;stroke-miterlimit:2.61313;stroke-dasharray:none;stroke-opacity:1"
             id="path1403-9-04" />
          <path
             d="m 37.346389,36.360102 c 7.41354,0 13.42341,6.010099 13.42341,13.4239 0,7.413801 -6.00987,13.4239 -13.42341,13.4239 -7.41354,0 -13.42342,-6.010099 -13.42342,-13.4239 0,-7.413801 6.00988,-13.4239 13.42342,-13.4239 z"
             style="fill:none;stroke:#ff0000;stroke-width:0.0761986;stroke-linecap:butt;stroke-linejoin:miter;stroke-miterlimit:2.61313;stroke-dasharray:none;stroke-opacity:1"
             id="path1405-1-16" />
        </g>
        <g
           id="g2545-1-1"
           transform="translate(52.611951,26.000223)">
          <path
             d="m 37.346389,37.719002 c 6.66307,0 12.06456,5.401698 12.06456,12.065 0,6.663302 -5.40149,12.065 -12.06456,12.065 -6.66307,0 -12.06456,-5.401698 -12.06456,-12.065 0,-6.663302 5.40149,-12.065 12.06456,-12.065 z"
             style="fill:none;stroke:#000000;stroke-width:0.0761986;stroke-linecap:butt;stroke-linejoin:miter;stroke-miterlimit:2.61313;stroke-dasharray:none;stroke-opacity:1"
             id="path1403-9-1" />
          <path
             d="m 37.346389,36.360102 c 7.41354,0 13.42341,6.010099 13.42341,13.4239 0,7.413801 -6.00987,13.4239 -13.42341,13.4239 -7.41354,0 -13.42342,-6.010099 -13.42342,-13.4239 0,-7.413801 6.00988,-13.4239 13.42342,-13.4239 z"
             style="fill:none;stroke:#ff0000;stroke-width:0.0761986;stroke-linecap:butt;stroke-linejoin:miter;stroke-miterlimit:2.61313;stroke-dasharray:none;stroke-opacity:1"
             id="path1405-1-9" />
        </g>
        <g
           id="g2545-1-03"
           transform="translate(22.562844,25.055282)">
          <path
             d="m 37.346389,37.719002 c 6.66307,0 12.06456,5.401698 12.06456,12.065 0,6.663302 -5.40149,12.065 -12.06456,12.065 -6.66307,0 -12.06456,-5.401698 -12.06456,-12.065 0,-6.663302 5.40149,-12.065 12.06456,-12.065 z"
             style="fill:none;stroke:#000000;stroke-width:0.0761986;stroke-linecap:butt;stroke-linejoin:miter;stroke-miterlimit:2.61313;stroke-dasharray:none;stroke-opacity:1"
             id="path1403-9-8" />
          <path
             d="m 37.346389,36.360102 c 7.41354,0 13.42341,6.010099 13.42341,13.4239 0,7.413801 -6.00987,13.4239 -13.42341,13.4239 -7.41354,0 -13.42342,-6.010099 -13.42342,-13.4239 0,-7.413801 6.00988,-13.4239 13.42342,-13.4239 z"
             style="fill:none;stroke:#ff0000;stroke-width:0.0761986;stroke-linecap:butt;stroke-linejoin:miter;stroke-miterlimit:2.61313;stroke-dasharray:none;stroke-opacity:1"
             id="path1405-1-83" />
        </g>
        <g
           id="g2545-1-4"
           transform="translate(130.85302,10.314218)">
          <path
             d="m 37.346389,37.719002 c 6.66307,0 12.06456,5.401698 12.06456,12.065 0,6.663302 -5.40149,12.065 -12.06456,12.065 -6.66307,0 -12.06456,-5.401698 -12.06456,-12.065 0,-6.663302 5.40149,-12.065 12.06456,-12.065 z"
             style="fill:none;stroke:#000000;stroke-width:0.0761986;stroke-linecap:butt;stroke-linejoin:miter;stroke-miterlimit:2.61313;stroke-dasharray:none;stroke-opacity:1"
             id="path1403-9-14" />
          <path
             d="m 37.346389,36.360102 c 7.41354,0 13.42341,6.010099 13.42341,13.4239 0,7.413801 -6.00987,13.4239 -13.42341,13.4239 -7.41354,0 -13.42342,-6.010099 -13.42342,-13.4239 0,-7.413801 6.00988,-13.4239 13.42342,-13.4239 z"
             style="fill:none;stroke:#ff0000;stroke-width:0.0761986;stroke-linecap:butt;stroke-linejoin:miter;stroke-miterlimit:2.61313;stroke-dasharray:none;stroke-opacity:1"
             id="path1405-1-3" />
        </g>
        <g
           id="g2545-1-0"
           transform="translate(159.20123,10.503201)">
          <path
             d="m 37.346389,37.719002 c 6.66307,0 12.06456,5.401698 12.06456,12.065 0,6.663302 -5.40149,12.065 -12.06456,12.065 -6.66307,0 -12.06456,-5.401698 -12.06456,-12.065 0,-6.663302 5.40149,-12.065 12.06456,-12.065 z"
             style="fill:none;stroke:#000000;stroke-width:0.0761986;stroke-linecap:butt;stroke-linejoin:miter;stroke-miterlimit:2.61313;stroke-dasharray:none;stroke-opacity:1"
             id="path1403-9-2" />
          <path
             d="m 37.346389,36.360102 c 7.41354,0 13.42341,6.010099 13.42341,13.4239 0,7.413801 -6.00987,13.4239 -13.42341,13.4239 -7.41354,0 -13.42342,-6.010099 -13.42342,-13.4239 0,-7.413801 6.00988,-13.4239 13.42342,-13.4239 z"
             style="fill:none;stroke:#ff0000;stroke-width:0.0761986;stroke-linecap:butt;stroke-linejoin:miter;stroke-miterlimit:2.61313;stroke-dasharray:none;stroke-opacity:1"
             id="path1405-1-4" />
        </g>
        <g
           id="g2545-1-8"
           transform="translate(187.36046,16.55082)">
          <path
             d="m 37.346389,37.719002 c 6.66307,0 12.06456,5.401698 12.06456,12.065 0,6.663302 -5.40149,12.065 -12.06456,12.065 -6.66307,0 -12.06456,-5.401698 -12.06456,-12.065 0,-6.663302 5.40149,-12.065 12.06456,-12.065 z"
             style="fill:none;stroke:#000000;stroke-width:0.0761986;stroke-linecap:butt;stroke-linejoin:miter;stroke-miterlimit:2.61313;stroke-dasharray:none;stroke-opacity:1"
             id="path1403-9-26" />
          <path
             d="m 37.346389,36.360102 c 7.41354,0 13.42341,6.010099 13.42341,13.4239 0,7.413801 -6.00987,13.4239 -13.42341,13.4239 -7.41354,0 -13.42342,-6.010099 -13.42342,-13.4239 0,-7.413801 6.00988,-13.4239 13.42342,-13.4239 z"
             style="fill:none;stroke:#ff0000;stroke-width:0.0761986;stroke-linecap:butt;stroke-linejoin:miter;stroke-miterlimit:2.61313;stroke-dasharray:none;stroke-opacity:1"
             id="path1405-1-8" />
        </g>
        <g
           id="g2545-1-49"
           transform="translate(105.52861,51.135643)">
          <path
             d="m 37.346389,37.719002 c 6.66307,0 12.06456,5.401698 12.06456,12.065 0,6.663302 -5.40149,12.065 -12.06456,12.065 -6.66307,0 -12.06456,-5.401698 -12.06456,-12.065 0,-6.663302 5.40149,-12.065 12.06456,-12.065 z"
             style="fill:none;stroke:#000000;stroke-width:0.0761986;stroke-linecap:butt;stroke-linejoin:miter;stroke-miterlimit:2.61313;stroke-dasharray:none;stroke-opacity:1"
             id="path1403-9-17" />
          <path
             d="m 37.346389,36.360102 c 7.41354,0 13.42341,6.010099 13.42341,13.4239 0,7.413801 -6.00987,13.4239 -13.42341,13.4239 -7.41354,0 -13.42342,-6.010099 -13.42342,-13.4239 0,-7.413801 6.00988,-13.4239 13.42342,-13.4239 z"
             style="fill:none;stroke:#ff0000;stroke-width:0.0761986;stroke-linecap:butt;stroke-linejoin:miter;stroke-miterlimit:2.61313;stroke-dasharray:none;stroke-opacity:1"
             id="path1405-1-7" />
        </g>
        <g
           id="g2545-1-6"
           transform="translate(131.042,38.473438)">
          <path
             d="m 37.346389,37.719002 c 6.66307,0 12.06456,5.401698 12.06456,12.065 0,6.663302 -5.40149,12.065 -12.06456,12.065 -6.66307,0 -12.06456,-5.401698 -12.06456,-12.065 0,-6.663302 5.40149,-12.065 12.06456,-12.065 z"
             style="fill:none;stroke:#000000;stroke-width:0.0761986;stroke-linecap:butt;stroke-linejoin:miter;stroke-miterlimit:2.61313;stroke-dasharray:none;stroke-opacity:1"
             id="path1403-9-5" />
          <path
             d="m 37.346389,36.360102 c 7.41354,0 13.42341,6.010099 13.42341,13.4239 0,7.413801 -6.00987,13.4239 -13.42341,13.4239 -7.41354,0 -13.42342,-6.010099 -13.42342,-13.4239 0,-7.413801 6.00988,-13.4239 13.42342,-13.4239 z"
             style="fill:none;stroke:#ff0000;stroke-width:0.0761986;stroke-linecap:butt;stroke-linejoin:miter;stroke-miterlimit:2.61313;stroke-dasharray:none;stroke-opacity:1"
             id="path1405-1-81" />
        </g>
        <g
           id="g2545-1-5"
           transform="translate(159.39023,38.284451)">
          <path
             d="m 37.346389,37.719002 c 6.66307,0 12.06456,5.401698 12.06456,12.065 0,6.663302 -5.40149,12.065 -12.06456,12.065 -6.66307,0 -12.06456,-5.401698 -12.06456,-12.065 0,-6.663302 5.40149,-12.065 12.06456,-12.065 z"
             style="fill:none;stroke:#000000;stroke-width:0.0761986;stroke-linecap:butt;stroke-linejoin:miter;stroke-miterlimit:2.61313;stroke-dasharray:none;stroke-opacity:1"
             id="path1403-9-25" />
          <path
             d="m 37.346389,36.360102 c 7.41354,0 13.42341,6.010099 13.42341,13.4239 0,7.413801 -6.00987,13.4239 -13.42341,13.4239 -7.41354,0 -13.42342,-6.010099 -13.42342,-13.4239 0,-7.413801 6.00988,-13.4239 13.42342,-13.4239 z"
             style="fill:none;stroke:#ff0000;stroke-width:0.0761986;stroke-linecap:butt;stroke-linejoin:miter;stroke-miterlimit:2.61313;stroke-dasharray:none;stroke-opacity:1"
             id="path1405-1-6" />
        </g>
        <g
           id="g2545-1-7"
           transform="translate(187.54945,44.710045)">
          <path
             d="m 37.346389,37.719002 c 6.66307,0 12.06456,5.401698 12.06456,12.065 0,6.663302 -5.40149,12.065 -12.06456,12.065 -6.66307,0 -12.06456,-5.401698 -12.06456,-12.065 0,-6.663302 5.40149,-12.065 12.06456,-12.065 z"
             style="fill:none;stroke:#000000;stroke-width:0.0761986;stroke-linecap:butt;stroke-linejoin:miter;stroke-miterlimit:2.61313;stroke-dasharray:none;stroke-opacity:1"
             id="path1403-9-28" />
          <path
             d="m 37.346389,36.360102 c 7.41354,0 13.42341,6.010099 13.42341,13.4239 0,7.413801 -6.00987,13.4239 -13.42341,13.4239 -7.41354,0 -13.42342,-6.010099 -13.42342,-13.4239 0,-7.413801 6.00988,-13.4239 13.42342,-13.4239 z"
             style="fill:none;stroke:#ff0000;stroke-width:0.0761986;stroke-linecap:butt;stroke-linejoin:miter;stroke-miterlimit:2.61313;stroke-dasharray:none;stroke-opacity:1"
             id="path1405-1-61" />
        </g>
      </g>
      <g
         id="button_24_mm"
         transform="translate(98.948908,42.819441)">
        <circle
           style="fill:none;stroke:#ff0000;stroke-width:0.0740349;stroke-linejoin:round;stroke-miterlimit:2.61313"
           id="button_boundary_24_mm"
           cx="13.499018"
           cy="13.499018"
           r="13.462" />
        <circle
           style="fill:none;stroke:#000000;stroke-width:0.0750001;stroke-linejoin:round;stroke-miterlimit:2.61313"
           id="button_hole_24_mm"
           cx="13.499018"
           cy="13.499018"
           r="12.103" />
      </g>
    </g>
  </g>
</svg>
