<?xml version="1.0" encoding="UTF-8" standalone="no"?>
<svg
   xmlns:dc="http://purl.org/dc/elements/1.1/"
   xmlns:cc="http://creativecommons.org/ns#"
   xmlns:rdf="http://www.w3.org/1999/02/22-rdf-syntax-ns#"
   xmlns:svg="http://www.w3.org/2000/svg"
   xmlns="http://www.w3.org/2000/svg"
   xmlns:sodipodi="http://sodipodi.sourceforge.net/DTD/sodipodi-0.dtd"
   xmlns:inkscape="http://www.inkscape.org/namespaces/inkscape"
   width="139.7mm"
   height="186.944mm"
   viewBox="0 0 139.7 186.94402"
   version="1.1"
   id="svg1496"
   inkscape:version="1.0.2-2 (e86c870879, 2021-01-15)"
   sodipodi:docname="spinner.svg">
  <defs
     id="defs1490" />
  <sodipodi:namedview
     id="base"
     pagecolor="#ffffff"
     bordercolor="#0000ff"
     borderopacity="1"
     inkscape:pageopacity="0.0"
     inkscape:pageshadow="2"
     inkscape:zoom="1.979899"
     inkscape:cx="691.31275"
     inkscape:cy="316.92673"
     inkscape:document-units="in"
     inkscape:current-layer="layer1"
     inkscape:document-rotation="0"
     showgrid="false"
     units="mm"
     inkscape:window-width="3840"
     inkscape:window-height="2081"
     inkscape:window-x="-9"
     inkscape:window-y="-9"
     inkscape:window-maximized="1"
     inkscape:showpageshadow="false"
     showguides="true"
     inkscape:guide-bbox="true" />
  <metadata
     id="metadata1493">
    <rdf:RDF>
      <cc:Work
         rdf:about="">
        <dc:format>image/svg+xml</dc:format>
        <dc:type
           rdf:resource="http://purl.org/dc/dcmitype/StillImage" />
        <dc:title></dc:title>
      </cc:Work>
    </rdf:RDF>
  </metadata>
  <g
     inkscape:label="Layer 1"
     inkscape:groupmode="layer"
     id="layer1">
    <path
       id="rect16"
       style="fill:none;stroke:#000000;stroke-width:0.288;stroke-linejoin:round;stroke-miterlimit:2.61313;stroke-dasharray:none"
       d="M 48,0 C 21.408,0 0,21.408002 0,48 v 610.56055 c 0,26.592 21.408,48 48,48 H 528 V 0 Z"
       transform="scale(0.26458335)" />
    <circle
       style="fill:none;stroke:#000000;stroke-width:0.0762;stroke-linejoin:round;stroke-miterlimit:2.61313;stroke-dasharray:none"
       id="path895-1"
       cx="-10.950104"
       cy="10.950104"
       r="4.6000004"
       transform="scale(-1,1)" />
    <circle
       style="fill:none;stroke:#000000;stroke-width:0.0762;stroke-linejoin:round;stroke-miterlimit:2.61313;stroke-dasharray:none"
       id="path895-5"
       cx="-10.950104"
       cy="175.99411"
       r="4.6000004"
       transform="scale(-1,1)" />
    <rect
       style="fill:none;stroke:#ff0000;stroke-width:0.0760015;stroke-linejoin:round;stroke-miterlimit:2.61313;stroke-dasharray:none"
       id="rect44"
       width="139.7"
       height="139.7"
       x="-139.70001"
       y="-163.32211"
       rx="12.7"
       ry="12.7"
       transform="scale(-1)" />
    <path
       id="rect869"
       style="fill:none;stroke:#ff0000;stroke-width:0.076;stroke-linejoin:round;stroke-miterlimit:2.61313;stroke-dasharray:none"
       d="m 124.00016,160.32229 c 1.69809,0 3.31504,-0.33271 4.79299,-0.93224 a 5,5 0 0 1 -2.09341,-4.06797 5,5 0 0 1 5.00021,-5.00021 5,5 0 0 1 4.06797,2.09289 c 0.59941,-1.47783 0.93224,-3.09455 0.93224,-4.79247 V 39.321932 c 0,-1.69814 -0.33268,-3.31501 -0.93224,-4.79299 a 5,5 0 0 1 -4.06797,2.09341 5,5 0 0 1 -5.00021,-5.000209 5,5 0 0 1 2.09341,-4.06797 c -1.47798,-0.59956 -3.09485,-0.93224 -4.79299,-0.93224 H 15.6998 c -1.69814,0 -3.31501,0.33268 -4.79299,0.93224 a 5,5 0 0 1 2.09341,4.06797 5,5 0 0 1 -5.00021,5.000209 5,5 0 0 1 -4.06797,-2.09341 c -0.59956,1.47798 -0.93224,3.09485 -0.93224,4.79299 V 147.62229 c 0,1.69814 0.33268,3.31501 0.93224,4.79299 a 5,5 0 0 1 4.06797,-2.09341 5,5 0 0 1 5.00021,5.00021 5,5 0 0 1 -2.09341,4.06797 c 1.47798,0.59956 3.09485,0.93224 4.79299,0.93224 z" />
    <circle
       style="fill:none;stroke:#000000;stroke-width:0.076;stroke-linejoin:round;stroke-miterlimit:2.61313;stroke-dasharray:none"
       id="path873"
       cx="-131.70001"
       cy="-155.32211"
       r="2"
       transform="scale(-1)" />
    <circle
       style="fill:none;stroke:#000000;stroke-width:0.076;stroke-linejoin:round;stroke-miterlimit:2.61313;stroke-dasharray:none"
       id="path873-0"
       cx="-7.9999995"
       cy="-155.32211"
       r="2"
       transform="scale(-1)" />
    <circle
       style="fill:none;stroke:#000000;stroke-width:0.076;stroke-linejoin:round;stroke-miterlimit:2.61313;stroke-dasharray:none"
       id="path873-9"
       cx="-7.9999995"
       cy="-31.622116"
       r="2"
       transform="scale(-1)" />
    <circle
       style="fill:none;stroke:#000000;stroke-width:0.076;stroke-linejoin:round;stroke-miterlimit:2.61313;stroke-dasharray:none"
       id="path873-4"
       cx="-131.70001"
       cy="-31.622116"
       r="2"
       transform="scale(-1)" />
    <ellipse
       style="fill:none;stroke:#000000;stroke-width:0.0762;stroke-linejoin:round;stroke-miterlimit:2.61313;stroke-dasharray:none"
       id="path895-1-9"
       cx="-128.75"
       cy="10.9501"
       transform="scale(-1,1)"
       rx="4.5999002"
       ry="4.6000004" />
    <circle
       style="fill:none;stroke:#000000;stroke-width:0.0762;stroke-linejoin:round;stroke-miterlimit:2.61313;stroke-dasharray:none"
       id="path895-1-3"
       cx="-128.75011"
       cy="175.99411"
       r="4.6000004"
       transform="scale(-1,1)" />
    <g
       id="g1157"
       transform="translate(1.5884604)">
      <g
         id="g1050"
         transform="translate(26.030296,76.399907)">
        <circle
           style="fill:none;stroke:#ff0000;stroke-width:0.0762;stroke-linejoin:round;stroke-miterlimit:2.61313"
           id="path1028"
           cx="17.000099"
           cy="17.072205"
           r="17" />
        <circle
           style="fill:none;stroke:#000000;stroke-width:0.0762;stroke-linejoin:round;stroke-miterlimit:2.61313"
           id="path1030"
           cx="17.000099"
           cy="17.072205"
           r="14.5" />
      </g>
      <g
         id="g1145"
         transform="translate(0,6.5426938)">
        <g
           id="button_30_mm"
           transform="translate(77.359742,50.766423)">
          <circle
             style="fill:none;stroke:#ff0000;stroke-width:0.0750001;stroke-linejoin:round;stroke-miterlimit:2.61313"
             id="button_boundary_30_mm"
             cx="16.585501"
             cy="16.585501"
             r="16.548" />
          <circle
             style="fill:none;stroke:#000000;stroke-width:0.0750001;stroke-linejoin:round;stroke-miterlimit:2.61313"
             id="button_hole_30_mm"
             cx="16.585501"
             cy="16.585501"
             r="15.278" />
        </g>
        <g
           id="button_30_mm-1"
           transform="translate(77.359743,89.921411)">
          <circle
             style="fill:none;stroke:#ff0000;stroke-width:0.0750001;stroke-linejoin:round;stroke-miterlimit:2.61313"
             id="button_boundary_30_mm-8"
             cx="16.585501"
             cy="16.585501"
             r="16.548" />
          <circle
             style="fill:none;stroke:#000000;stroke-width:0.0750001;stroke-linejoin:round;stroke-miterlimit:2.61313"
             id="button_hole_30_mm-8"
             cx="16.585501"
             cy="16.585501"
             r="15.278" />
        </g>
      </g>
    </g>
  </g>
</svg>
