<?xml version="1.0" encoding="UTF-8" standalone="no"?>
<svg
   xmlns:dc="http://purl.org/dc/elements/1.1/"
   xmlns:cc="http://creativecommons.org/ns#"
   xmlns:rdf="http://www.w3.org/1999/02/22-rdf-syntax-ns#"
   xmlns:svg="http://www.w3.org/2000/svg"
   xmlns="http://www.w3.org/2000/svg"
   xmlns:sodipodi="http://sodipodi.sourceforge.net/DTD/sodipodi-0.dtd"
   xmlns:inkscape="http://www.inkscape.org/namespaces/inkscape"
   width="139.7mm"
   height="186.944mm"
   viewBox="0 0 139.7 186.94402"
   version="1.1"
   id="svg1496"
   inkscape:version="1.0.2-2 (e86c870879, 2021-01-15)"
   sodipodi:docname="trackball-player-3.svg">
  <defs
     id="defs1490" />
  <sodipodi:namedview
     id="base"
     pagecolor="#ffffff"
     bordercolor="#0000ff"
     borderopacity="1"
     inkscape:pageopacity="0.0"
     inkscape:pageshadow="2"
     inkscape:zoom="1.979899"
     inkscape:cx="684.24168"
     inkscape:cy="382.58664"
     inkscape:document-units="in"
     inkscape:current-layer="layer1"
     inkscape:document-rotation="0"
     showgrid="false"
     units="mm"
     inkscape:window-width="3840"
     inkscape:window-height="2081"
     inkscape:window-x="-9"
     inkscape:window-y="-9"
     inkscape:window-maximized="1"
     inkscape:showpageshadow="false"
     showguides="true"
     inkscape:guide-bbox="true" />
  <metadata
     id="metadata1493">
    <rdf:RDF>
      <cc:Work
         rdf:about="">
        <dc:format>image/svg+xml</dc:format>
        <dc:type
           rdf:resource="http://purl.org/dc/dcmitype/StillImage" />
        <dc:title></dc:title>
      </cc:Work>
    </rdf:RDF>
  </metadata>
  <g
     inkscape:label="Layer 1"
     inkscape:groupmode="layer"
     id="layer1">
    <path
       id="rect16"
       style="fill:none;stroke:#000000;stroke-width:0.0762;stroke-linejoin:round;stroke-miterlimit:2.61313;stroke-dasharray:none"
       d="M 12.7,0 C 5.6642,0 0,5.6642009 0,12.700001 V 174.24416 c 0,7.0358 5.6642,12.7 12.7,12.7 H 139.70001 V 0 Z" />
    <circle
       style="fill:none;stroke:#000000;stroke-width:0.0762;stroke-linejoin:round;stroke-miterlimit:2.61313;stroke-dasharray:none"
       id="path895-1"
       cx="-10.950104"
       cy="10.950104"
       r="4.6000004"
       transform="scale(-1,1)" />
    <circle
       style="fill:none;stroke:#000000;stroke-width:0.0762;stroke-linejoin:round;stroke-miterlimit:2.61313;stroke-dasharray:none"
       id="path895-5"
       cx="-10.950104"
       cy="175.99411"
       r="4.6000004"
       transform="scale(-1,1)" />
    <rect
       style="fill:none;stroke:#ff0000;stroke-width:0.0760015;stroke-linejoin:round;stroke-miterlimit:2.61313;stroke-dasharray:none"
       id="rect44"
       width="139.7"
       height="139.7"
       x="-139.70001"
       y="23.622116"
       rx="12.7"
       ry="12.7"
       transform="scale(-1,1)" />
    <path
       id="rect869"
       style="fill:none;stroke:#ff0000;stroke-width:0.076;stroke-linejoin:round;stroke-miterlimit:2.61313;stroke-dasharray:none"
       d="m 124.00016,26.621939 c 1.69809,0 3.31504,0.33271 4.79299,0.93224 a 5,-5 0 0 0 -2.09341,4.06797 5,-5 0 0 0 5.00021,5.00021 5,-5 0 0 0 4.06797,-2.09289 c 0.59941,1.47783 0.93224,3.09455 0.93224,4.79247 V 147.6223 c 0,1.69814 -0.33268,3.31501 -0.93224,4.79299 a 5,-5 0 0 0 -4.06797,-2.09341 5,-5 0 0 0 -5.00021,5.00021 5,-5 0 0 0 2.09341,4.06797 c -1.47798,0.59956 -3.09485,0.93224 -4.79299,0.93224 H 15.6998 c -1.69814,0 -3.31501,-0.33268 -4.79299,-0.93224 a 5,-5 0 0 0 2.09341,-4.06797 5,-5 0 0 0 -5.00021,-5.00021 5,-5 0 0 0 -4.06797,2.09341 C 3.33248,150.93731 2.9998,149.32044 2.9998,147.6223 V 39.321939 c 0,-1.69814 0.33268,-3.31501 0.93224,-4.79299 a 5,-5 0 0 0 4.06797,2.09341 5,-5 0 0 0 5.00021,-5.00021 5,-5 0 0 0 -2.09341,-4.06797 c 1.47798,-0.59956 3.09485,-0.93224 4.79299,-0.93224 z" />
    <circle
       style="fill:none;stroke:#000000;stroke-width:0.076;stroke-linejoin:round;stroke-miterlimit:2.61313;stroke-dasharray:none"
       id="path873"
       cx="-131.70001"
       cy="31.622116"
       r="2"
       transform="scale(-1,1)" />
    <circle
       style="fill:none;stroke:#000000;stroke-width:0.076;stroke-linejoin:round;stroke-miterlimit:2.61313;stroke-dasharray:none"
       id="path873-0"
       cx="-7.9999995"
       cy="31.622116"
       r="2"
       transform="scale(-1,1)" />
    <circle
       style="fill:none;stroke:#000000;stroke-width:0.076;stroke-linejoin:round;stroke-miterlimit:2.61313;stroke-dasharray:none"
       id="path873-9"
       cx="-7.9999995"
       cy="155.32211"
       r="2"
       transform="scale(-1,1)" />
    <circle
       style="fill:none;stroke:#000000;stroke-width:0.076;stroke-linejoin:round;stroke-miterlimit:2.61313;stroke-dasharray:none"
       id="path873-4"
       cx="-131.70001"
       cy="155.32211"
       r="2"
       transform="scale(-1,1)" />
    <ellipse
       style="fill:none;stroke:#000000;stroke-width:0.0762;stroke-linejoin:round;stroke-miterlimit:2.61313;stroke-dasharray:none"
       id="path895-1-9"
       cx="-128.75"
       cy="10.9501"
       transform="scale(-1,1)"
       rx="4.5999002"
       ry="4.6000004" />
    <circle
       style="fill:none;stroke:#000000;stroke-width:0.0762;stroke-linejoin:round;stroke-miterlimit:2.61313;stroke-dasharray:none"
       id="path895-1-3"
       cx="-128.75011"
       cy="175.99411"
       r="4.6000004"
       transform="scale(-1,1)" />
    <rect
       style="fill:none;stroke:#ff0000;stroke-width:0.0759878;stroke-linejoin:round;stroke-miterlimit:2.61313"
       id="rect24"
       width="98.398178"
       height="100.92393"
       x="-156.49699"
       y="-108.19218"
       rx="18.971373"
       ry="19.032675"
       transform="matrix(0,-1,-1,0,0,0)" />
    <g
       id="button_24_mm-1"
       transform="matrix(1,0,0,-1,70.828093,55.884969)">
      <circle
         style="fill:none;stroke:#ff0000;stroke-width:0.0740349;stroke-linejoin:round;stroke-miterlimit:2.61313"
         id="button_boundary_24_mm-1"
         cx="13.499018"
         cy="13.499018"
         r="13.462" />
      <circle
         style="fill:none;stroke:#000000;stroke-width:0.0750001;stroke-linejoin:round;stroke-miterlimit:2.61313"
         id="button_hole_24_mm-0"
         cx="13.499018"
         cy="13.499018"
         r="12.103" />
    </g>
    <g
       id="button_24_mm-6"
       transform="matrix(1,0,0,-1,41.873893,55.884969)">
      <circle
         style="fill:none;stroke:#ff0000;stroke-width:0.0740349;stroke-linejoin:round;stroke-miterlimit:2.61313"
         id="button_boundary_24_mm-11"
         cx="13.499018"
         cy="13.499018"
         r="13.462" />
      <circle
         style="fill:none;stroke:#000000;stroke-width:0.0750001;stroke-linejoin:round;stroke-miterlimit:2.61313"
         id="button_hole_24_mm-3"
         cx="13.499018"
         cy="13.499018"
         r="12.103" />
    </g>
    <g
       id="button_24_mm-2"
       transform="matrix(1,0,0,-1,99.782296,55.884969)">
      <circle
         style="fill:none;stroke:#ff0000;stroke-width:0.0740349;stroke-linejoin:round;stroke-miterlimit:2.61313"
         id="button_boundary_24_mm-9"
         cx="13.499018"
         cy="13.499018"
         r="13.462" />
      <circle
         style="fill:none;stroke:#000000;stroke-width:0.0750001;stroke-linejoin:round;stroke-miterlimit:2.61313"
         id="button_hole_24_mm-2"
         cx="13.499018"
         cy="13.499018"
         r="12.103" />
    </g>
    <g
       id="g712">
      <rect
         style="fill:none;stroke:#ff0000;stroke-width:0.0759878;stroke-linejoin:round;stroke-miterlimit:2.61313"
         id="rect24-7"
         width="98.39817"
         height="100.92392"
         x="-156.49698"
         y="-108.19217"
         rx="18.971371"
         ry="19.032675"
         transform="matrix(0,-1,-1,0,0,0)" />
      <circle
         style="fill:none;stroke:#000000;stroke-width:0.0762;stroke-linejoin:round;stroke-miterlimit:2.61313"
         id="path26-7"
         cx="-107.2979"
         cy="-57.730225"
         transform="matrix(0,-1,-1,0,0,0)"
         r="29" />
      <circle
         style="fill:none;stroke:#000000;stroke-width:0.0762;stroke-linejoin:round;stroke-miterlimit:2.61313"
         id="path28-34"
         cx="-141.35025"
         cy="-91.624725"
         transform="matrix(0,-1,-1,0,0,0)"
         r="3.5" />
      <circle
         style="fill:none;stroke:#000000;stroke-width:0.0762;stroke-linejoin:round;stroke-miterlimit:2.61313"
         id="path28-3-7"
         cx="-73.245567"
         cy="-91.624725"
         transform="matrix(0,-1,-1,0,0,0)"
         r="3.5" />
      <circle
         style="fill:none;stroke:#000000;stroke-width:0.0762;stroke-linejoin:round;stroke-miterlimit:2.61313"
         id="path28-6-5"
         cx="-141.35025"
         cy="-23.835709"
         transform="matrix(0,-1,-1,0,0,0)"
         r="3.5" />
      <circle
         style="fill:none;stroke:#000000;stroke-width:0.0762;stroke-linejoin:round;stroke-miterlimit:2.61313"
         id="path28-8-1"
         cx="-73.245567"
         cy="-23.835709"
         transform="matrix(0,-1,-1,0,0,0)"
         r="3.5" />
    </g>
  </g>
</svg>
