<?xml version="1.0" encoding="UTF-8" standalone="no"?>
<svg
   xmlns:dc="http://purl.org/dc/elements/1.1/"
   xmlns:cc="http://creativecommons.org/ns#"
   xmlns:rdf="http://www.w3.org/1999/02/22-rdf-syntax-ns#"
   xmlns:svg="http://www.w3.org/2000/svg"
   xmlns="http://www.w3.org/2000/svg"
   xmlns:sodipodi="http://sodipodi.sourceforge.net/DTD/sodipodi-0.dtd"
   xmlns:inkscape="http://www.inkscape.org/namespaces/inkscape"
   width="139.7mm"
   height="186.944mm"
   viewBox="0 0 139.7 186.94402"
   version="1.1"
   id="svg1496"
   inkscape:version="1.0.2-2 (e86c870879, 2021-01-15)"
   sodipodi:docname="trackball-player-2.svg">
  <defs
     id="defs1490" />
  <sodipodi:namedview
     id="base"
     pagecolor="#ffffff"
     bordercolor="#0000ff"
     borderopacity="1"
     inkscape:pageopacity="0.0"
     inkscape:pageshadow="2"
     inkscape:zoom="1.979899"
     inkscape:cx="691.31275"
     inkscape:cy="316.92673"
     inkscape:document-units="in"
     inkscape:current-layer="layer1"
     inkscape:document-rotation="0"
     showgrid="false"
     units="mm"
     inkscape:window-width="3840"
     inkscape:window-height="2081"
     inkscape:window-x="-9"
     inkscape:window-y="-9"
     inkscape:window-maximized="1"
     inkscape:showpageshadow="false"
     showguides="true"
     inkscape:guide-bbox="true" />
  <metadata
     id="metadata1493">
    <rdf:RDF>
      <cc:Work
         rdf:about="">
        <dc:format>image/svg+xml</dc:format>
        <dc:type
           rdf:resource="http://purl.org/dc/dcmitype/StillImage" />
        <dc:title />
      </cc:Work>
    </rdf:RDF>
  </metadata>
  <g
     inkscape:label="Layer 1"
     inkscape:groupmode="layer"
     id="layer1">
    <path
       id="rect16"
       style="fill:none;stroke:#000000;stroke-width:0.0762;stroke-linejoin:round;stroke-miterlimit:2.61313;stroke-dasharray:none"
       d="m 127.00001,0 c 7.0358,0 12.7,5.6642009 12.7,12.700001 V 174.24416 c 0,7.0358 -5.6642,12.7 -12.7,12.7 H 0 V 0 Z" />
    <circle
       style="fill:none;stroke:#000000;stroke-width:0.0762;stroke-linejoin:round;stroke-miterlimit:2.61313;stroke-dasharray:none"
       id="path895-1"
       cx="-10.950104"
       cy="10.950104"
       r="4.6000004"
       transform="scale(-1,1)" />
    <circle
       style="fill:none;stroke:#000000;stroke-width:0.0762;stroke-linejoin:round;stroke-miterlimit:2.61313;stroke-dasharray:none"
       id="path895-5"
       cx="-10.950104"
       cy="175.99411"
       r="4.6000004"
       transform="scale(-1,1)" />
    <rect
       style="fill:none;stroke:#ff0000;stroke-width:0.0760015;stroke-linejoin:round;stroke-miterlimit:2.61313;stroke-dasharray:none"
       id="rect44"
       width="139.7"
       height="139.7"
       x="-139.70001"
       y="-163.32211"
       rx="12.7"
       ry="12.7"
       transform="scale(-1)" />
    <path
       id="rect869"
       style="fill:none;stroke:#ff0000;stroke-width:0.076;stroke-linejoin:round;stroke-miterlimit:2.61313;stroke-dasharray:none"
       d="m 124.00016,160.32229 c 1.69809,0 3.31504,-0.33271 4.79299,-0.93224 a 5,5 0 0 1 -2.09341,-4.06797 5,5 0 0 1 5.00021,-5.00021 5,5 0 0 1 4.06797,2.09289 c 0.59941,-1.47783 0.93224,-3.09455 0.93224,-4.79247 V 39.321932 c 0,-1.69814 -0.33268,-3.31501 -0.93224,-4.79299 a 5,5 0 0 1 -4.06797,2.09341 5,5 0 0 1 -5.00021,-5.000209 5,5 0 0 1 2.09341,-4.06797 c -1.47798,-0.59956 -3.09485,-0.93224 -4.79299,-0.93224 H 15.6998 c -1.69814,0 -3.31501,0.33268 -4.79299,0.93224 a 5,5 0 0 1 2.09341,4.06797 5,5 0 0 1 -5.00021,5.000209 5,5 0 0 1 -4.06797,-2.09341 c -0.59956,1.47798 -0.93224,3.09485 -0.93224,4.79299 V 147.62229 c 0,1.69814 0.33268,3.31501 0.93224,4.79299 a 5,5 0 0 1 4.06797,-2.09341 5,5 0 0 1 5.00021,5.00021 5,5 0 0 1 -2.09341,4.06797 c 1.47798,0.59956 3.09485,0.93224 4.79299,0.93224 z" />
    <circle
       style="fill:none;stroke:#000000;stroke-width:0.076;stroke-linejoin:round;stroke-miterlimit:2.61313;stroke-dasharray:none"
       id="path873"
       cx="-131.70001"
       cy="-155.32211"
       r="2"
       transform="scale(-1)" />
    <circle
       style="fill:none;stroke:#000000;stroke-width:0.076;stroke-linejoin:round;stroke-miterlimit:2.61313;stroke-dasharray:none"
       id="path873-0"
       cx="-7.9999995"
       cy="-155.32211"
       r="2"
       transform="scale(-1)" />
    <circle
       style="fill:none;stroke:#000000;stroke-width:0.076;stroke-linejoin:round;stroke-miterlimit:2.61313;stroke-dasharray:none"
       id="path873-9"
       cx="-7.9999995"
       cy="-31.622116"
       r="2"
       transform="scale(-1)" />
    <circle
       style="fill:none;stroke:#000000;stroke-width:0.076;stroke-linejoin:round;stroke-miterlimit:2.61313;stroke-dasharray:none"
       id="path873-4"
       cx="-131.70001"
       cy="-31.622116"
       r="2"
       transform="scale(-1)" />
    <ellipse
       style="fill:none;stroke:#000000;stroke-width:0.0762;stroke-linejoin:round;stroke-miterlimit:2.61313;stroke-dasharray:none"
       id="path895-1-9"
       cx="-128.75"
       cy="10.9501"
       transform="scale(-1,1)"
       rx="4.5999002"
       ry="4.6000004" />
    <circle
       style="fill:none;stroke:#000000;stroke-width:0.0762;stroke-linejoin:round;stroke-miterlimit:2.61313;stroke-dasharray:none"
       id="path895-1-3"
       cx="-128.75011"
       cy="175.99411"
       r="4.6000004"
       transform="scale(-1,1)" />
    <g
       id="button_24_mm-1"
       transform="translate(70.828093,131.05926)">
      <circle
         style="fill:none;stroke:#ff0000;stroke-width:0.0740349;stroke-linejoin:round;stroke-miterlimit:2.61313"
         id="button_boundary_24_mm-1"
         cx="13.499018"
         cy="13.499018"
         r="13.462" />
      <circle
         style="fill:none;stroke:#000000;stroke-width:0.0750001;stroke-linejoin:round;stroke-miterlimit:2.61313"
         id="button_hole_24_mm-0"
         cx="13.499018"
         cy="13.499018"
         r="12.103" />
    </g>
    <g
       id="button_24_mm-6"
       transform="translate(41.873893,131.05926)">
      <circle
         style="fill:none;stroke:#ff0000;stroke-width:0.0740349;stroke-linejoin:round;stroke-miterlimit:2.61313"
         id="button_boundary_24_mm-11"
         cx="13.499018"
         cy="13.499018"
         r="13.462" />
      <circle
         style="fill:none;stroke:#000000;stroke-width:0.0750001;stroke-linejoin:round;stroke-miterlimit:2.61313"
         id="button_hole_24_mm-3"
         cx="13.499018"
         cy="13.499018"
         r="12.103" />
    </g>
    <g
       id="button_24_mm-2"
       transform="translate(99.782296,131.05926)">
      <circle
         style="fill:none;stroke:#ff0000;stroke-width:0.0740349;stroke-linejoin:round;stroke-miterlimit:2.61313"
         id="button_boundary_24_mm-9"
         cx="13.499018"
         cy="13.499018"
         r="13.462" />
      <circle
         style="fill:none;stroke:#000000;stroke-width:0.0750001;stroke-linejoin:round;stroke-miterlimit:2.61313"
         id="button_hole_24_mm-2"
         cx="13.499018"
         cy="13.499018"
         r="12.103" />
    </g>
    <g
       id="g1066"
       transform="translate(-177.46697,-42.495857)">
      <rect
         style="fill:none;stroke:#ff0000;stroke-width:0.0759878;stroke-linejoin:round;stroke-miterlimit:2.61313"
         id="rect24-3"
         width="98.39817"
         height="100.92392"
         x="-171.34126"
         y="-285.65915"
         rx="18.971371"
         ry="19.032675"
         transform="matrix(0,-1,-1,0,0,0)" />
      <circle
         style="fill:none;stroke:#000000;stroke-width:0.0762;stroke-linejoin:round;stroke-miterlimit:2.61313"
         id="path26-2"
         cx="-122.14218"
         cy="-235.1972"
         transform="matrix(0,-1,-1,0,0,0)"
         r="29" />
      <circle
         style="fill:none;stroke:#000000;stroke-width:0.0762;stroke-linejoin:round;stroke-miterlimit:2.61313"
         id="path28-1"
         cx="-156.19452"
         cy="-269.09171"
         transform="matrix(0,-1,-1,0,0,0)"
         r="3.5" />
      <circle
         style="fill:none;stroke:#000000;stroke-width:0.0762;stroke-linejoin:round;stroke-miterlimit:2.61313"
         id="path28-3-1"
         cx="-88.089836"
         cy="-269.09171"
         transform="matrix(0,-1,-1,0,0,0)"
         r="3.5" />
      <circle
         style="fill:none;stroke:#000000;stroke-width:0.0762;stroke-linejoin:round;stroke-miterlimit:2.61313"
         id="path28-6-6"
         cx="-156.19452"
         cy="-201.30269"
         transform="matrix(0,-1,-1,0,0,0)"
         r="3.5" />
      <circle
         style="fill:none;stroke:#000000;stroke-width:0.0762;stroke-linejoin:round;stroke-miterlimit:2.61313"
         id="path28-8-9"
         cx="-88.089836"
         cy="-201.30269"
         transform="matrix(0,-1,-1,0,0,0)"
         r="3.5" />
    </g>
  </g>
</svg>
