<?xml version="1.0" encoding="UTF-8" standalone="no"?>
<svg
   xmlns:dc="http://purl.org/dc/elements/1.1/"
   xmlns:cc="http://creativecommons.org/ns#"
   xmlns:rdf="http://www.w3.org/1999/02/22-rdf-syntax-ns#"
   xmlns:svg="http://www.w3.org/2000/svg"
   xmlns="http://www.w3.org/2000/svg"
   xmlns:sodipodi="http://sodipodi.sourceforge.net/DTD/sodipodi-0.dtd"
   xmlns:inkscape="http://www.inkscape.org/namespaces/inkscape"
   width="26.003in"
   height="11.003in"
   viewBox="0 0 660.47622 279.47621"
   version="1.1"
   id="svg8"
   inkscape:version="1.0.2-2 (e86c870879, 2021-01-15)"
   sodipodi:docname="arcade.svg">
  <defs
     id="defs2" />
  <sodipodi:namedview
     id="base"
     pagecolor="#ffffff"
     bordercolor="#666666"
     borderopacity="1.0"
     inkscape:pageopacity="0.0"
     inkscape:pageshadow="2"
     inkscape:zoom="0.98994949"
     inkscape:cx="1388.0813"
     inkscape:cy="220.77378"
     inkscape:document-units="in"
     inkscape:current-layer="layer1"
     inkscape:document-rotation="0"
     showgrid="false"
     units="in"
     inkscape:window-width="3840"
     inkscape:window-height="2097"
     inkscape:window-x="-8"
     inkscape:window-y="-8"
     inkscape:window-maximized="1" />
  <metadata
     id="metadata5">
    <rdf:RDF>
      <cc:Work
         rdf:about="">
        <dc:format>image/svg+xml</dc:format>
        <dc:type
           rdf:resource="http://purl.org/dc/dcmitype/StillImage" />
        <dc:title></dc:title>
      </cc:Work>
    </rdf:RDF>
  </metadata>
  <g
     inkscape:label="Layer 1"
     inkscape:groupmode="layer"
     id="layer1">
    <path
       d="m 330.238,258.6021 c 2.5206,0 4.56399,-2.0434 4.56399,-4.564 1.1e-4,-2.5207 -2.04329,-4.56413 -4.56399,-4.56413 -2.5207,0 -4.5641,2.04343 -4.5641,4.56413 0,2.5206 2.0434,4.564 4.5641,4.564 z"
       style="fill:none;stroke:#000000;stroke-width:0.0762;stroke-linecap:butt;stroke-linejoin:bevel;stroke-miterlimit:2.61313;stroke-dasharray:none;stroke-opacity:1"
       id="path114" />
    <path
       d="m 25.438105,214.40687 c 2.520597,0 4.563992,-2.04339 4.563992,-4.5641 1.06e-4,-2.52059 -2.043289,-4.56399 -4.563992,-4.56399 -2.520703,0 -4.564098,2.04329 -4.564098,4.56399 0,2.52071 2.043395,4.5641 4.564098,4.5641 z"
       style="fill:none;stroke:#000000;stroke-width:0.0762;stroke-linecap:butt;stroke-linejoin:bevel;stroke-miterlimit:2.61313;stroke-dasharray:none;stroke-opacity:1"
       id="path116" />
    <path
       d="m 330.238,30.002095 c 2.5206,0 4.56399,-2.043395 4.56399,-4.563992 1.1e-4,-2.520703 -2.04329,-4.564133 -4.56399,-4.564133 -2.5207,0 -4.5641,2.04343 -4.5641,4.564133 0,2.520597 2.0434,4.563992 4.5641,4.563992 z"
       style="fill:none;stroke:#000000;stroke-width:0.0762;stroke-linecap:butt;stroke-linejoin:bevel;stroke-miterlimit:2.61313;stroke-dasharray:none;stroke-opacity:1"
       id="path118" />
    <path
       d="m 635.0379,214.40687 c 2.52059,0 4.56399,-2.04339 4.56399,-4.5641 1.1e-4,-2.52059 -2.04329,-4.56399 -4.56399,-4.56399 -2.52071,0 -4.5641,2.04329 -4.5641,4.56399 0,2.52071 2.04339,4.5641 4.5641,4.5641 z"
       style="fill:none;stroke:#000000;stroke-width:0.0762;stroke-linecap:butt;stroke-linejoin:bevel;stroke-miterlimit:2.61313;stroke-dasharray:none;stroke-opacity:1"
       id="path120" />
    <path
       d="m 25.438105,30.002095 c 2.520597,0 4.563992,-2.043395 4.563992,-4.563992 1.06e-4,-2.520703 -2.043289,-4.564133 -4.563992,-4.564133 -2.520703,0 -4.564098,2.04343 -4.564098,4.564133 0,2.520597 2.043395,4.563992 4.564098,4.563992 z"
       style="fill:none;stroke:#000000;stroke-width:0.0762;stroke-linecap:butt;stroke-linejoin:bevel;stroke-miterlimit:2.61313;stroke-dasharray:none;stroke-opacity:1"
       id="path122" />
    <path
       d="m 635.0379,30.002095 c 2.52059,0 4.56399,-2.043395 4.56399,-4.563992 1.1e-4,-2.520703 -2.04329,-4.564133 -4.56399,-4.564133 -2.52071,0 -4.5641,2.04343 -4.5641,4.564133 0,2.520597 2.04339,4.563992 4.5641,4.563992 z"
       style="fill:none;stroke:#000000;stroke-width:0.0762;stroke-linecap:butt;stroke-linejoin:bevel;stroke-miterlimit:2.61313;stroke-dasharray:none;stroke-opacity:1"
       id="path124" />
    <path
       d="M 660.4379,25.438103 V 209.84277 c 0.004,11.24423 -7.4059,21.15662 -18.1858,24.35402 -203.59459,60.32151 -420.4268,60.29889 -624.028195,0 C 7.4417111,231.00697 0.04209131,221.087 0.03810492,209.84277 V 25.438103 C 0.03380103,18.705797 2.7040819,12.2476 7.4615019,7.4841831 12.218887,2.7208011 18.7058,0.04230057 25.438105,0.03810251 H 635.0379 c 6.7322,-0.0042333 13.19039,2.66597699 17.95381,7.42339699 4.76349,4.7573845 7.44188,11.2442975 7.44619,17.9766035 z"
       style="fill:none;stroke:#000000;stroke-width:0.0762;stroke-linecap:butt;stroke-linejoin:bevel;stroke-miterlimit:2.61313;stroke-dasharray:none;stroke-opacity:1"
       id="path126" />
    <rect
       style="fill:none;fill-rule:evenodd;stroke:#000000;stroke-width:0.240146;stroke-miterlimit:4;stroke-dasharray:none;stroke-opacity:1"
       id="rect198"
       width="558.55981"
       height="139.45985"
       x="50.920071"
       y="50.920071" />
    <path
       d="m 61.747454,42.694244 c 2.51798,0 4.559264,-2.043404 4.559264,-4.564012 1e-4,-2.520714 -2.041174,-4.564152 -4.559264,-4.564152 -2.5181,0 -4.559375,2.043438 -4.559375,4.564152 0,2.520608 2.041275,4.564012 4.559375,4.564012 z"
       style="fill:none;stroke:#000000;stroke-width:0.0761607;stroke-linecap:butt;stroke-linejoin:bevel;stroke-miterlimit:2.61313;stroke-dasharray:none;stroke-opacity:1"
       id="path122-3" />
    <path
       d="m 319.30344,42.69424 c 2.51798,0 4.55927,-2.0434 4.55927,-4.56401 1e-4,-2.52071 -2.04118,-4.56415 -4.55927,-4.56415 -2.5181,0 -4.55937,2.04344 -4.55937,4.56415 0,2.52061 2.04127,4.56401 4.55937,4.56401 z"
       style="fill:none;stroke:#000000;stroke-width:0.0761607;stroke-linecap:butt;stroke-linejoin:bevel;stroke-miterlimit:2.61313;stroke-dasharray:none;stroke-opacity:1"
       id="path122-3-1" />
    <path
       d="m 341.14744,42.69424 c 2.51798,0 4.55927,-2.0434 4.55927,-4.56401 1e-4,-2.52071 -2.04118,-4.56415 -4.55927,-4.56415 -2.5181,0 -4.55937,2.04344 -4.55937,4.56415 0,2.52061 2.04127,4.56401 4.55937,4.56401 z"
       style="fill:none;stroke:#000000;stroke-width:0.0761607;stroke-linecap:butt;stroke-linejoin:bevel;stroke-miterlimit:2.61313;stroke-dasharray:none;stroke-opacity:1"
       id="path122-3-1-3" />
    <path
       d="m 598.70344,42.684738 c 2.51799,0 4.55929,-2.041277 4.55929,-4.559269 10e-5,-2.518092 -2.04119,-4.559409 -4.55929,-4.559409 -2.51811,0 -4.55939,2.041317 -4.55939,4.559409 0,2.517992 2.04128,4.559269 4.55939,4.559269 z"
       style="fill:none;stroke:#000000;stroke-width:0.0761213;stroke-linecap:butt;stroke-linejoin:bevel;stroke-miterlimit:2.61313;stroke-dasharray:none;stroke-opacity:1"
       id="path122-3-1-3-1" />
    <path
       d="m 179.60345,42.69424 c 2.51798,0 4.55927,-2.0434 4.55927,-4.56401 1e-4,-2.52071 -2.04118,-4.56415 -4.55927,-4.56415 -2.5181,0 -4.55937,2.04344 -4.55937,4.56415 0,2.52061 2.04127,4.56401 4.55937,4.56401 z"
       style="fill:none;stroke:#000000;stroke-width:0.0761607;stroke-linecap:butt;stroke-linejoin:bevel;stroke-miterlimit:2.61313;stroke-dasharray:none;stroke-opacity:1"
       id="path122-3-1-8" />
    <path
       d="m 201.44745,42.69424 c 2.51798,0 4.55927,-2.0434 4.55927,-4.56401 1e-4,-2.52071 -2.04118,-4.56415 -4.55927,-4.56415 -2.5181,0 -4.55937,2.04344 -4.55937,4.56415 0,2.52061 2.04127,4.56401 4.55937,4.56401 z"
       style="fill:none;stroke:#000000;stroke-width:0.0761607;stroke-linecap:butt;stroke-linejoin:bevel;stroke-miterlimit:2.61313;stroke-dasharray:none;stroke-opacity:1"
       id="path122-3-1-8-1" />
    <path
       d="m 459.00344,42.69424 c 2.51798,0 4.55927,-2.0434 4.55927,-4.56401 1e-4,-2.52071 -2.04118,-4.56415 -4.55927,-4.56415 -2.5181,0 -4.55937,2.04344 -4.55937,4.56415 0,2.52061 2.04127,4.56401 4.55937,4.56401 z"
       style="fill:none;stroke:#000000;stroke-width:0.0761607;stroke-linecap:butt;stroke-linejoin:bevel;stroke-miterlimit:2.61313;stroke-dasharray:none;stroke-opacity:1"
       id="path122-3-1-3-8" />
    <path
       d="m 480.84744,42.69424 c 2.51798,0 4.55927,-2.0434 4.55927,-4.56401 1e-4,-2.52071 -2.04118,-4.56415 -4.55927,-4.56415 -2.5181,0 -4.55937,2.04344 -4.55937,4.56415 0,2.52061 2.04127,4.56401 4.55937,4.56401 z"
       style="fill:none;stroke:#000000;stroke-width:0.0761607;stroke-linecap:butt;stroke-linejoin:bevel;stroke-miterlimit:2.61313;stroke-dasharray:none;stroke-opacity:1"
       id="path122-3-1-3-8-2" />
    <path
       d="m 61.747449,207.54024 c 2.51798,0 4.55927,-2.0434 4.55927,-4.56401 1e-4,-2.52071 -2.04118,-4.56415 -4.55927,-4.56415 -2.5181,0 -4.55937,2.04344 -4.55937,4.56415 0,2.52061 2.04127,4.56401 4.55937,4.56401 z"
       style="fill:none;stroke:#000000;stroke-width:0.0761607;stroke-linecap:butt;stroke-linejoin:bevel;stroke-miterlimit:2.61313;stroke-dasharray:none;stroke-opacity:1"
       id="path122-3-8" />
    <path
       d="m 319.30344,207.54024 c 2.51798,0 4.55927,-2.0434 4.55927,-4.56401 1e-4,-2.52071 -2.04118,-4.56415 -4.55927,-4.56415 -2.5181,0 -4.55937,2.04344 -4.55937,4.56415 0,2.52061 2.04127,4.56401 4.55937,4.56401 z"
       style="fill:none;stroke:#000000;stroke-width:0.0761607;stroke-linecap:butt;stroke-linejoin:bevel;stroke-miterlimit:2.61313;stroke-dasharray:none;stroke-opacity:1"
       id="path122-3-1-6" />
    <path
       d="m 341.14744,207.54024 c 2.51798,0 4.55927,-2.0434 4.55927,-4.56401 1e-4,-2.52071 -2.04118,-4.56415 -4.55927,-4.56415 -2.5181,0 -4.55937,2.04344 -4.55937,4.56415 0,2.52061 2.04127,4.56401 4.55937,4.56401 z"
       style="fill:none;stroke:#000000;stroke-width:0.0761607;stroke-linecap:butt;stroke-linejoin:bevel;stroke-miterlimit:2.61313;stroke-dasharray:none;stroke-opacity:1"
       id="path122-3-1-3-0" />
    <path
       d="m 598.70344,207.53074 c 2.51799,0 4.55929,-2.04128 4.55929,-4.55927 10e-5,-2.51809 -2.04119,-4.55941 -4.55929,-4.55941 -2.51811,0 -4.55939,2.04132 -4.55939,4.55941 0,2.51799 2.04128,4.55927 4.55939,4.55927 z"
       style="fill:none;stroke:#000000;stroke-width:0.0761213;stroke-linecap:butt;stroke-linejoin:bevel;stroke-miterlimit:2.61313;stroke-dasharray:none;stroke-opacity:1"
       id="path122-3-1-3-1-4" />
    <path
       d="m 179.60345,207.54024 c 2.51798,0 4.55927,-2.0434 4.55927,-4.56401 1e-4,-2.52071 -2.04118,-4.56415 -4.55927,-4.56415 -2.5181,0 -4.55937,2.04344 -4.55937,4.56415 0,2.52061 2.04127,4.56401 4.55937,4.56401 z"
       style="fill:none;stroke:#000000;stroke-width:0.0761607;stroke-linecap:butt;stroke-linejoin:bevel;stroke-miterlimit:2.61313;stroke-dasharray:none;stroke-opacity:1"
       id="path122-3-1-8-2" />
    <path
       d="m 201.44745,207.54024 c 2.51798,0 4.55927,-2.0434 4.55927,-4.56401 1e-4,-2.52071 -2.04118,-4.56415 -4.55927,-4.56415 -2.5181,0 -4.55937,2.04344 -4.55937,4.56415 0,2.52061 2.04127,4.56401 4.55937,4.56401 z"
       style="fill:none;stroke:#000000;stroke-width:0.0761607;stroke-linecap:butt;stroke-linejoin:bevel;stroke-miterlimit:2.61313;stroke-dasharray:none;stroke-opacity:1"
       id="path122-3-1-8-1-8" />
    <path
       d="m 459.00344,207.54024 c 2.51798,0 4.55927,-2.0434 4.55927,-4.56401 1e-4,-2.52071 -2.04118,-4.56415 -4.55927,-4.56415 -2.5181,0 -4.55937,2.04344 -4.55937,4.56415 0,2.52061 2.04127,4.56401 4.55937,4.56401 z"
       style="fill:none;stroke:#000000;stroke-width:0.0761607;stroke-linecap:butt;stroke-linejoin:bevel;stroke-miterlimit:2.61313;stroke-dasharray:none;stroke-opacity:1"
       id="path122-3-1-3-8-7" />
    <path
       d="m 480.84744,207.54024 c 2.51798,0 4.55927,-2.0434 4.55927,-4.56401 1e-4,-2.52071 -2.04118,-4.56415 -4.55927,-4.56415 -2.5181,0 -4.55937,2.04344 -4.55937,4.56415 0,2.52061 2.04127,4.56401 4.55937,4.56401 z"
       style="fill:none;stroke:#000000;stroke-width:0.0761607;stroke-linecap:butt;stroke-linejoin:bevel;stroke-miterlimit:2.61313;stroke-dasharray:none;stroke-opacity:1"
       id="path122-3-1-3-8-2-3" />
  </g>
</svg>
