<?xml version="1.0" encoding="UTF-8" standalone="no"?>
<svg
   xmlns:dc="http://purl.org/dc/elements/1.1/"
   xmlns:cc="http://creativecommons.org/ns#"
   xmlns:rdf="http://www.w3.org/1999/02/22-rdf-syntax-ns#"
   xmlns:svg="http://www.w3.org/2000/svg"
   xmlns="http://www.w3.org/2000/svg"
   xmlns:sodipodi="http://sodipodi.sourceforge.net/DTD/sodipodi-0.dtd"
   xmlns:inkscape="http://www.inkscape.org/namespaces/inkscape"
   width="26.003in"
   height="11.003in"
   viewBox="0 0 660.47622 279.47621"
   version="1.1"
   id="svg8"
   inkscape:version="1.0.2-2 (e86c870879, 2021-01-15)"
   sodipodi:docname="arcade_modules.svg">
  <defs
     id="defs2" />
  <sodipodi:namedview
     id="base"
     pagecolor="#ffffff"
     bordercolor="#666666"
     borderopacity="1.0"
     inkscape:pageopacity="0.0"
     inkscape:pageshadow="2"
     inkscape:zoom="0.98994949"
     inkscape:cx="1388.0813"
     inkscape:cy="220.77378"
     inkscape:document-units="in"
     inkscape:current-layer="layer1"
     inkscape:document-rotation="0"
     showgrid="false"
     units="in"
     inkscape:window-width="3840"
     inkscape:window-height="2097"
     inkscape:window-x="-8"
     inkscape:window-y="-8"
     inkscape:window-maximized="1" />
  <metadata
     id="metadata5">
    <rdf:RDF>
      <cc:Work
         rdf:about="">
        <dc:format>image/svg+xml</dc:format>
        <dc:type
           rdf:resource="http://purl.org/dc/dcmitype/StillImage" />
        <dc:title></dc:title>
      </cc:Work>
    </rdf:RDF>
  </metadata>
  <g
     inkscape:label="Layer 1"
     inkscape:groupmode="layer"
     id="layer1">
    <path
       d="m 330.238,258.6021 c 2.5206,0 4.56399,-2.0434 4.56399,-4.564 1.1e-4,-2.5207 -2.04329,-4.56413 -4.56399,-4.56413 -2.5207,0 -4.5641,2.04343 -4.5641,4.56413 0,2.5206 2.0434,4.564 4.5641,4.564 z"
       style="fill:none;stroke:#000000;stroke-width:0.0762;stroke-linecap:butt;stroke-linejoin:bevel;stroke-miterlimit:2.61313;stroke-dasharray:none;stroke-opacity:1"
       id="path114" />
    <path
       d="m 25.438105,214.40687 c 2.520597,0 4.563992,-2.04339 4.563992,-4.5641 1.06e-4,-2.52059 -2.043289,-4.56399 -4.563992,-4.56399 -2.520703,0 -4.564098,2.04329 -4.564098,4.56399 0,2.52071 2.043395,4.5641 4.564098,4.5641 z"
       style="fill:none;stroke:#000000;stroke-width:0.0762;stroke-linecap:butt;stroke-linejoin:bevel;stroke-miterlimit:2.61313;stroke-dasharray:none;stroke-opacity:1"
       id="path116" />
    <path
       d="m 330.238,30.002095 c 2.5206,0 4.56399,-2.043395 4.56399,-4.563992 1.1e-4,-2.520703 -2.04329,-4.564133 -4.56399,-4.564133 -2.5207,0 -4.5641,2.04343 -4.5641,4.564133 0,2.520597 2.0434,4.563992 4.5641,4.563992 z"
       style="fill:none;stroke:#000000;stroke-width:0.0762;stroke-linecap:butt;stroke-linejoin:bevel;stroke-miterlimit:2.61313;stroke-dasharray:none;stroke-opacity:1"
       id="path118" />
    <path
       d="m 635.0379,214.40687 c 2.52059,0 4.56399,-2.04339 4.56399,-4.5641 1.1e-4,-2.52059 -2.04329,-4.56399 -4.56399,-4.56399 -2.52071,0 -4.5641,2.04329 -4.5641,4.56399 0,2.52071 2.04339,4.5641 4.5641,4.5641 z"
       style="fill:none;stroke:#000000;stroke-width:0.0762;stroke-linecap:butt;stroke-linejoin:bevel;stroke-miterlimit:2.61313;stroke-dasharray:none;stroke-opacity:1"
       id="path120" />
    <path
       d="m 25.438105,30.002095 c 2.520597,0 4.563992,-2.043395 4.563992,-4.563992 1.06e-4,-2.520703 -2.043289,-4.564133 -4.563992,-4.564133 -2.520703,0 -4.564098,2.04343 -4.564098,4.564133 0,2.520597 2.043395,4.563992 4.564098,4.563992 z"
       style="fill:none;stroke:#000000;stroke-width:0.0762;stroke-linecap:butt;stroke-linejoin:bevel;stroke-miterlimit:2.61313;stroke-dasharray:none;stroke-opacity:1"
       id="path122" />
    <path
       d="m 635.0379,30.002095 c 2.52059,0 4.56399,-2.043395 4.56399,-4.563992 1.1e-4,-2.520703 -2.04329,-4.564133 -4.56399,-4.564133 -2.52071,0 -4.5641,2.04343 -4.5641,4.564133 0,2.520597 2.04339,4.563992 4.5641,4.563992 z"
       style="fill:none;stroke:#000000;stroke-width:0.0762;stroke-linecap:butt;stroke-linejoin:bevel;stroke-miterlimit:2.61313;stroke-dasharray:none;stroke-opacity:1"
       id="path124" />
    <path
       d="M 660.4379,25.438103 V 209.84277 c 0.004,11.24423 -7.4059,21.15662 -18.1858,24.35402 -203.59459,60.32151 -420.4268,60.29889 -624.028195,0 C 7.4417111,231.00697 0.04209131,221.087 0.03810492,209.84277 V 25.438103 C 0.03380103,18.705797 2.7040819,12.2476 7.4615019,7.4841831 12.218887,2.7208011 18.7058,0.04230057 25.438105,0.03810251 H 635.0379 c 6.7322,-0.0042333 13.19039,2.66597699 17.95381,7.42339699 4.76349,4.7573845 7.44188,11.2442975 7.44619,17.9766035 z"
       style="fill:none;stroke:#000000;stroke-width:0.0762;stroke-linecap:butt;stroke-linejoin:bevel;stroke-miterlimit:2.61313;stroke-dasharray:none;stroke-opacity:1"
       id="path126" />
    <rect
       style="fill:none;fill-rule:evenodd;stroke:#000000;stroke-width:0.240146;stroke-miterlimit:4;stroke-dasharray:none;stroke-opacity:1"
       id="rect198"
       width="558.55981"
       height="139.45985"
       x="50.920071"
       y="50.920071" />
    <path
       d="m 61.747454,42.694244 c 2.51798,0 4.559264,-2.043404 4.559264,-4.564012 1e-4,-2.520714 -2.041174,-4.564152 -4.559264,-4.564152 -2.5181,0 -4.559375,2.043438 -4.559375,4.564152 0,2.520608 2.041275,4.564012 4.559375,4.564012 z"
       style="fill:none;stroke:#000000;stroke-width:0.0761607;stroke-linecap:butt;stroke-linejoin:bevel;stroke-miterlimit:2.61313;stroke-dasharray:none;stroke-opacity:1"
       id="path122-3" />
    <path
       d="m 319.30344,42.69424 c 2.51798,0 4.55927,-2.0434 4.55927,-4.56401 1e-4,-2.52071 -2.04118,-4.56415 -4.55927,-4.56415 -2.5181,0 -4.55937,2.04344 -4.55937,4.56415 0,2.52061 2.04127,4.56401 4.55937,4.56401 z"
       style="fill:none;stroke:#000000;stroke-width:0.0761607;stroke-linecap:butt;stroke-linejoin:bevel;stroke-miterlimit:2.61313;stroke-dasharray:none;stroke-opacity:1"
       id="path122-3-1" />
    <path
       d="m 341.14744,42.69424 c 2.51798,0 4.55927,-2.0434 4.55927,-4.56401 1e-4,-2.52071 -2.04118,-4.56415 -4.55927,-4.56415 -2.5181,0 -4.55937,2.04344 -4.55937,4.56415 0,2.52061 2.04127,4.56401 4.55937,4.56401 z"
       style="fill:none;stroke:#000000;stroke-width:0.0761607;stroke-linecap:butt;stroke-linejoin:bevel;stroke-miterlimit:2.61313;stroke-dasharray:none;stroke-opacity:1"
       id="path122-3-1-3" />
    <path
       d="m 598.70344,42.684738 c 2.51799,0 4.55929,-2.041277 4.55929,-4.559269 10e-5,-2.518092 -2.04119,-4.559409 -4.55929,-4.559409 -2.51811,0 -4.55939,2.041317 -4.55939,4.559409 0,2.517992 2.04128,4.559269 4.55939,4.559269 z"
       style="fill:none;stroke:#000000;stroke-width:0.0761213;stroke-linecap:butt;stroke-linejoin:bevel;stroke-miterlimit:2.61313;stroke-dasharray:none;stroke-opacity:1"
       id="path122-3-1-3-1" />
    <path
       d="m 179.60345,42.69424 c 2.51798,0 4.55927,-2.0434 4.55927,-4.56401 1e-4,-2.52071 -2.04118,-4.56415 -4.55927,-4.56415 -2.5181,0 -4.55937,2.04344 -4.55937,4.56415 0,2.52061 2.04127,4.56401 4.55937,4.56401 z"
       style="fill:none;stroke:#000000;stroke-width:0.0761607;stroke-linecap:butt;stroke-linejoin:bevel;stroke-miterlimit:2.61313;stroke-dasharray:none;stroke-opacity:1"
       id="path122-3-1-8" />
    <path
       d="m 201.44745,42.69424 c 2.51798,0 4.55927,-2.0434 4.55927,-4.56401 1e-4,-2.52071 -2.04118,-4.56415 -4.55927,-4.56415 -2.5181,0 -4.55937,2.04344 -4.55937,4.56415 0,2.52061 2.04127,4.56401 4.55937,4.56401 z"
       style="fill:none;stroke:#000000;stroke-width:0.0761607;stroke-linecap:butt;stroke-linejoin:bevel;stroke-miterlimit:2.61313;stroke-dasharray:none;stroke-opacity:1"
       id="path122-3-1-8-1" />
    <path
       d="m 459.00344,42.69424 c 2.51798,0 4.55927,-2.0434 4.55927,-4.56401 1e-4,-2.52071 -2.04118,-4.56415 -4.55927,-4.56415 -2.5181,0 -4.55937,2.04344 -4.55937,4.56415 0,2.52061 2.04127,4.56401 4.55937,4.56401 z"
       style="fill:none;stroke:#000000;stroke-width:0.0761607;stroke-linecap:butt;stroke-linejoin:bevel;stroke-miterlimit:2.61313;stroke-dasharray:none;stroke-opacity:1"
       id="path122-3-1-3-8" />
    <path
       d="m 480.84744,42.69424 c 2.51798,0 4.55927,-2.0434 4.55927,-4.56401 1e-4,-2.52071 -2.04118,-4.56415 -4.55927,-4.56415 -2.5181,0 -4.55937,2.04344 -4.55937,4.56415 0,2.52061 2.04127,4.56401 4.55937,4.56401 z"
       style="fill:none;stroke:#000000;stroke-width:0.0761607;stroke-linecap:butt;stroke-linejoin:bevel;stroke-miterlimit:2.61313;stroke-dasharray:none;stroke-opacity:1"
       id="path122-3-1-3-8-2" />
    <path
       d="m 61.747449,207.54024 c 2.51798,0 4.55927,-2.0434 4.55927,-4.56401 1e-4,-2.52071 -2.04118,-4.56415 -4.55927,-4.56415 -2.5181,0 -4.55937,2.04344 -4.55937,4.56415 0,2.52061 2.04127,4.56401 4.55937,4.56401 z"
       style="fill:none;stroke:#000000;stroke-width:0.0761607;stroke-linecap:butt;stroke-linejoin:bevel;stroke-miterlimit:2.61313;stroke-dasharray:none;stroke-opacity:1"
       id="path122-3-8" />
    <path
       d="m 319.30344,207.54024 c 2.51798,0 4.55927,-2.0434 4.55927,-4.56401 1e-4,-2.52071 -2.04118,-4.56415 -4.55927,-4.56415 -2.5181,0 -4.55937,2.04344 -4.55937,4.56415 0,2.52061 2.04127,4.56401 4.55937,4.56401 z"
       style="fill:none;stroke:#000000;stroke-width:0.0761607;stroke-linecap:butt;stroke-linejoin:bevel;stroke-miterlimit:2.61313;stroke-dasharray:none;stroke-opacity:1"
       id="path122-3-1-6" />
    <path
       d="m 341.14744,207.54024 c 2.51798,0 4.55927,-2.0434 4.55927,-4.56401 1e-4,-2.52071 -2.04118,-4.56415 -4.55927,-4.56415 -2.5181,0 -4.55937,2.04344 -4.55937,4.56415 0,2.52061 2.04127,4.56401 4.55937,4.56401 z"
       style="fill:none;stroke:#000000;stroke-width:0.0761607;stroke-linecap:butt;stroke-linejoin:bevel;stroke-miterlimit:2.61313;stroke-dasharray:none;stroke-opacity:1"
       id="path122-3-1-3-0" />
    <path
       d="m 598.70344,207.53074 c 2.51799,0 4.55929,-2.04128 4.55929,-4.55927 10e-5,-2.51809 -2.04119,-4.55941 -4.55929,-4.55941 -2.51811,0 -4.55939,2.04132 -4.55939,4.55941 0,2.51799 2.04128,4.55927 4.55939,4.55927 z"
       style="fill:none;stroke:#000000;stroke-width:0.0761213;stroke-linecap:butt;stroke-linejoin:bevel;stroke-miterlimit:2.61313;stroke-dasharray:none;stroke-opacity:1"
       id="path122-3-1-3-1-4" />
    <path
       d="m 179.60345,207.54024 c 2.51798,0 4.55927,-2.0434 4.55927,-4.56401 1e-4,-2.52071 -2.04118,-4.56415 -4.55927,-4.56415 -2.5181,0 -4.55937,2.04344 -4.55937,4.56415 0,2.52061 2.04127,4.56401 4.55937,4.56401 z"
       style="fill:none;stroke:#000000;stroke-width:0.0761607;stroke-linecap:butt;stroke-linejoin:bevel;stroke-miterlimit:2.61313;stroke-dasharray:none;stroke-opacity:1"
       id="path122-3-1-8-2" />
    <path
       d="m 201.44745,207.54024 c 2.51798,0 4.55927,-2.0434 4.55927,-4.56401 1e-4,-2.52071 -2.04118,-4.56415 -4.55927,-4.56415 -2.5181,0 -4.55937,2.04344 -4.55937,4.56415 0,2.52061 2.04127,4.56401 4.55937,4.56401 z"
       style="fill:none;stroke:#000000;stroke-width:0.0761607;stroke-linecap:butt;stroke-linejoin:bevel;stroke-miterlimit:2.61313;stroke-dasharray:none;stroke-opacity:1"
       id="path122-3-1-8-1-8" />
    <path
       d="m 459.00344,207.54024 c 2.51798,0 4.55927,-2.0434 4.55927,-4.56401 1e-4,-2.52071 -2.04118,-4.56415 -4.55927,-4.56415 -2.5181,0 -4.55937,2.04344 -4.55937,4.56415 0,2.52061 2.04127,4.56401 4.55937,4.56401 z"
       style="fill:none;stroke:#000000;stroke-width:0.0761607;stroke-linecap:butt;stroke-linejoin:bevel;stroke-miterlimit:2.61313;stroke-dasharray:none;stroke-opacity:1"
       id="path122-3-1-3-8-7" />
    <path
       d="m 480.84744,207.54024 c 2.51798,0 4.55927,-2.0434 4.55927,-4.56401 1e-4,-2.52071 -2.04118,-4.56415 -4.55927,-4.56415 -2.5181,0 -4.55937,2.04344 -4.55937,4.56415 0,2.52061 2.04127,4.56401 4.55937,4.56401 z"
       style="fill:none;stroke:#000000;stroke-width:0.0761607;stroke-linecap:butt;stroke-linejoin:bevel;stroke-miterlimit:2.61313;stroke-dasharray:none;stroke-opacity:1"
       id="path122-3-1-3-8-2-3" />
    <rect
       style="fill:none;stroke:#ff0000;stroke-width:0.228367;stroke-linejoin:round;stroke-miterlimit:4;stroke-dasharray:none;stroke-opacity:1"
       id="rect1335"
       width="279.17163"
       height="186.71562"
       x="50.914185"
       y="27.292183"
       rx="12.7"
       ry="12.7" />
    <rect
       style="fill:none;stroke:#ff0000;stroke-width:0.228367;stroke-linejoin:round;stroke-miterlimit:4;stroke-dasharray:none;stroke-opacity:1"
       id="rect1335-3"
       width="279.17163"
       height="186.71562"
       x="330.31418"
       y="27.292183"
       rx="12.68962"
       ry="12.684484" />
    <path
       d="m 107.62331,127.74931 c 5.86348,0 10.61682,4.7535 10.61682,10.6172 0,5.86368 -4.75334,10.61719 -10.61682,10.61719 -5.86349,0 -10.61682,-4.75351 -10.61682,-10.61719 0,-5.8637 4.75333,-10.6172 10.61682,-10.6172 z"
       style="fill:none;stroke:#000000;stroke-width:0.0761986;stroke-linecap:butt;stroke-linejoin:miter;stroke-miterlimit:2.61313;stroke-dasharray:none;stroke-opacity:1"
       id="path1375" />
    <path
       d="m 107.62331,119.3165 c 10.52061,0 19.04932,8.52901 19.04932,19.05001 0,10.52099 -8.52871,19.04999 -19.04932,19.04999 -10.520624,0 -19.049319,-8.529 -19.049319,-19.04999 0,-10.521 8.528695,-19.05001 19.049319,-19.05001 z"
       style="fill:none;stroke:#ff0000;stroke-width:0.0761986;stroke-linecap:butt;stroke-linejoin:miter;stroke-miterlimit:2.61313;stroke-dasharray:none;stroke-opacity:1"
       id="path1377" />
    <path
       d="m 217.49537,99.32419 c 9.1179,0 16.50941,7.39179 16.50941,16.51 0,9.11818 -7.39151,16.51 -16.50941,16.51 -9.11784,0 -16.5094,-7.39182 -16.5094,-16.51 0,-9.11821 7.39156,-16.51 16.5094,-16.51 z"
       style="fill:none;stroke:#ff0000;stroke-width:0.0761986;stroke-linecap:butt;stroke-linejoin:miter;stroke-miterlimit:2.61313;stroke-dasharray:none;stroke-opacity:1"
       id="path1379" />
    <path
       d="m 217.49537,100.59419 c 8.41652,0 15.23946,6.82318 15.23946,15.24 0,8.41679 -6.82294,15.24001 -15.23946,15.24001 -8.41648,0 -15.23945,-6.82322 -15.23945,-15.24001 0,-8.41682 6.82297,-15.24 15.23945,-15.24 z"
       style="fill:none;stroke:#000000;stroke-width:0.0761986;stroke-linecap:butt;stroke-linejoin:miter;stroke-miterlimit:2.61313;stroke-dasharray:none;stroke-opacity:1"
       id="path1381" />
    <path
       d="m 257.66824,82.009789 c 9.11788,0 16.50941,7.391788 16.50941,16.510001 0,9.11821 -7.39153,16.51 -16.50941,16.51 -9.11785,0 -16.50941,-7.39179 -16.50941,-16.51 0,-9.118213 7.39156,-16.510001 16.50941,-16.510001 z"
       style="fill:none;stroke:#ff0000;stroke-width:0.0761986;stroke-linecap:butt;stroke-linejoin:miter;stroke-miterlimit:2.61313;stroke-dasharray:none;stroke-opacity:1"
       id="path1383" />
    <path
       d="m 257.66824,83.279789 c 8.41652,0 15.23946,6.823181 15.23946,15.240001 0,8.41678 -6.82294,15.24 -15.23946,15.24 -8.41648,0 -15.23946,-6.82322 -15.23946,-15.24 0,-8.41682 6.82298,-15.240001 15.23946,-15.240001 z"
       style="fill:none;stroke:#000000;stroke-width:0.0761986;stroke-linecap:butt;stroke-linejoin:miter;stroke-miterlimit:2.61313;stroke-dasharray:none;stroke-opacity:1"
       id="path1385" />
    <path
       d="m 301.33348,82.750588 c 9.11789,0 16.50941,7.391787 16.50941,16.510002 0,9.11821 -7.39152,16.51 -16.50941,16.51 -9.11774,0 -16.5093,-7.39179 -16.5093,-16.51 0,-9.118215 7.39156,-16.510002 16.5093,-16.510002 z"
       style="fill:none;stroke:#ff0000;stroke-width:0.0761986;stroke-linecap:butt;stroke-linejoin:miter;stroke-miterlimit:2.61313;stroke-dasharray:none;stroke-opacity:1"
       id="path1387" />
    <path
       d="m 301.33348,84.020587 c 8.41652,0 15.23946,6.823181 15.23946,15.240003 0,8.41678 -6.82294,15.24 -15.23946,15.24 -8.41648,0 -15.23935,-6.82322 -15.23935,-15.24 0,-8.416822 6.82287,-15.240003 15.23935,-15.240003 z"
       style="fill:none;stroke:#000000;stroke-width:0.0761986;stroke-linecap:butt;stroke-linejoin:miter;stroke-miterlimit:2.61313;stroke-dasharray:none;stroke-opacity:1"
       id="path1389" />
    <path
       d="m 217.49537,142.07071 c 9.1179,0 16.50941,7.39179 16.50941,16.50999 0,9.11817 -7.39151,16.51 -16.50941,16.51 -9.11784,0 -16.5094,-7.39183 -16.5094,-16.51 0,-9.1182 7.39156,-16.50999 16.5094,-16.50999 z"
       style="fill:none;stroke:#ff0000;stroke-width:0.0761986;stroke-linecap:butt;stroke-linejoin:miter;stroke-miterlimit:2.61313;stroke-dasharray:none;stroke-opacity:1"
       id="path1391" />
    <path
       d="m 217.49537,143.3407 c 8.41652,0 15.23946,6.82319 15.23946,15.24 0,8.41678 -6.82294,15.24001 -15.23946,15.24001 -8.41648,0 -15.23945,-6.82322 -15.23945,-15.24001 0,-8.41681 6.82297,-15.24 15.23945,-15.24 z"
       style="fill:none;stroke:#000000;stroke-width:0.0761986;stroke-linecap:butt;stroke-linejoin:miter;stroke-miterlimit:2.61313;stroke-dasharray:none;stroke-opacity:1"
       id="path1393" />
    <path
       d="m 257.66824,124.7563 c 9.11788,0 16.50941,7.39178 16.50941,16.50999 0,9.11818 -7.39153,16.51 -16.50941,16.51 -9.11785,0 -16.50941,-7.39182 -16.50941,-16.51 0,-9.11821 7.39156,-16.50999 16.50941,-16.50999 z"
       style="fill:none;stroke:#ff0000;stroke-width:0.0761986;stroke-linecap:butt;stroke-linejoin:miter;stroke-miterlimit:2.61313;stroke-dasharray:none;stroke-opacity:1"
       id="path1395" />
    <path
       d="m 257.66824,126.0263 c 8.41652,0 15.23946,6.82318 15.23946,15.23999 0,8.41679 -6.82294,15.24 -15.23946,15.24 -8.41648,0 -15.23946,-6.8232 -15.23946,-15.24 0,-8.41681 6.82298,-15.23999 15.23946,-15.23999 z"
       style="fill:none;stroke:#000000;stroke-width:0.0761986;stroke-linecap:butt;stroke-linejoin:miter;stroke-miterlimit:2.61313;stroke-dasharray:none;stroke-opacity:1"
       id="path1397" />
    <path
       d="m 301.33348,125.49709 c 9.11789,0 16.50941,7.39179 16.50941,16.51001 0,9.11817 -7.39152,16.50999 -16.50941,16.50999 -9.11774,0 -16.5093,-7.39182 -16.5093,-16.50999 0,-9.11822 7.39156,-16.51001 16.5093,-16.51001 z"
       style="fill:none;stroke:#ff0000;stroke-width:0.0761986;stroke-linecap:butt;stroke-linejoin:miter;stroke-miterlimit:2.61313;stroke-dasharray:none;stroke-opacity:1"
       id="path1399" />
    <path
       d="m 301.33348,126.76709 c 8.41652,0 15.23946,6.82319 15.23946,15.24001 0,8.41678 -6.82294,15.23999 -15.23946,15.23999 -8.41648,0 -15.23935,-6.8232 -15.23935,-15.23999 0,-8.41682 6.82287,-15.24001 15.23935,-15.24001 z"
       style="fill:none;stroke:#000000;stroke-width:0.0761986;stroke-linecap:butt;stroke-linejoin:miter;stroke-miterlimit:2.61313;stroke-dasharray:none;stroke-opacity:1"
       id="path1401" />
    <path
       d="m 88.146396,64.896998 c 6.663072,0 12.064564,5.401698 12.064564,12.065 0,6.663302 -5.401492,12.065 -12.064564,12.065 -6.663063,0 -12.06456,-5.401698 -12.06456,-12.065 0,-6.663302 5.401497,-12.065 12.06456,-12.065 z"
       style="fill:none;stroke:#000000;stroke-width:0.0761986;stroke-linecap:butt;stroke-linejoin:miter;stroke-miterlimit:2.61313;stroke-dasharray:none;stroke-opacity:1"
       id="path1403" />
    <path
       d="m 88.146396,63.538098 c 7.413545,0 13.423414,6.010099 13.423414,13.4239 0,7.413801 -6.009869,13.4239 -13.423414,13.4239 -7.413536,0 -13.423412,-6.010099 -13.423412,-13.4239 0,-7.413801 6.009876,-13.4239 13.423412,-13.4239 z"
       style="fill:none;stroke:#ff0000;stroke-width:0.0761986;stroke-linecap:butt;stroke-linejoin:miter;stroke-miterlimit:2.61313;stroke-dasharray:none;stroke-opacity:1"
       id="path1405" />
    <path
       d="m 126.12916,64.896998 c 6.66306,0 12.06457,5.401698 12.06457,12.065 0,6.663302 -5.40151,12.065 -12.06457,12.065 -6.66306,0 -12.06457,-5.401698 -12.06457,-12.065 0,-6.663302 5.40151,-12.065 12.06457,-12.065 z"
       style="fill:none;stroke:#000000;stroke-width:0.0761986;stroke-linecap:butt;stroke-linejoin:miter;stroke-miterlimit:2.61313;stroke-dasharray:none;stroke-opacity:1"
       id="path1407" />
    <path
       d="m 126.12916,63.538098 c 7.41353,0 13.42342,6.010099 13.42342,13.4239 0,7.413801 -6.00989,13.4239 -13.42342,13.4239 -7.41354,0 -13.42342,-6.010099 -13.42342,-13.4239 0,-7.413801 6.00988,-13.4239 13.42342,-13.4239 z"
       style="fill:none;stroke:#ff0000;stroke-width:0.0761986;stroke-linecap:butt;stroke-linejoin:miter;stroke-miterlimit:2.61313;stroke-dasharray:none;stroke-opacity:1"
       id="path1409" />
    <path
       d="m 63.588191,159.83038 c 0,-1.40279 1.13714,-2.54 2.53991,-2.54 1.40274,0 2.539909,1.13721 2.539909,2.54 0,1.40282 -1.137169,2.54 -2.539909,2.54 -1.40277,0 -2.53991,-1.13718 -2.53991,-2.54 z"
       style="fill:none;stroke:#231f20;stroke-width:0.176386;stroke-linecap:butt;stroke-linejoin:miter;stroke-miterlimit:2.61313;stroke-dasharray:none;stroke-opacity:1"
       id="path1461" />
    <path
       d="m 63.588191,115.64708 c 0,1.40282 1.13714,2.54 2.53991,2.54 1.40274,0 2.539909,-1.13718 2.539909,-2.54 0,-1.40279 -1.137169,-2.54 -2.539909,-2.54 -1.40277,0 -2.53991,1.13721 -2.53991,2.54 z"
       style="fill:none;stroke:#231f20;stroke-width:0.176386;stroke-linecap:butt;stroke-linejoin:miter;stroke-miterlimit:2.61313;stroke-dasharray:none;stroke-opacity:1"
       id="path1463" />
    <path
       d="m 151.21506,159.83038 c 0,-1.40279 -1.13717,-2.54 -2.53991,-2.54 -1.40277,0 -2.5399,1.13721 -2.5399,2.54 0,1.40282 1.13713,2.54 2.5399,2.54 1.40274,0 2.53991,-1.13718 2.53991,-2.54 z"
       style="fill:none;stroke:#231f20;stroke-width:0.176386;stroke-linecap:butt;stroke-linejoin:miter;stroke-miterlimit:2.61313;stroke-dasharray:none;stroke-opacity:1"
       id="path1465" />
    <path
       d="m 151.21506,115.64708 c 0,1.40282 -1.13717,2.54 -2.53991,2.54 -1.40277,0 -2.5399,-1.13718 -2.5399,-2.54 0,-1.40279 1.13713,-2.54 2.5399,-2.54 1.40274,0 2.53991,1.13721 2.53991,2.54 z"
       style="fill:none;stroke:#231f20;stroke-width:0.176386;stroke-linecap:butt;stroke-linejoin:miter;stroke-miterlimit:2.61313;stroke-dasharray:none;stroke-opacity:1"
       id="path1467" />
    <path
       d="m 387.02329,121.39931 c 5.86348,0 10.61682,4.7535 10.61682,10.6172 0,5.86368 -4.75334,10.61719 -10.61682,10.61719 -5.86349,0 -10.61682,-4.75351 -10.61682,-10.61719 0,-5.8637 4.75333,-10.6172 10.61682,-10.6172 z"
       style="fill:none;stroke:#000000;stroke-width:0.0761986;stroke-linecap:butt;stroke-linejoin:miter;stroke-miterlimit:2.61313;stroke-dasharray:none;stroke-opacity:1"
       id="path1375-5" />
    <path
       d="m 387.02329,112.9665 c 10.52061,0 19.04932,8.52901 19.04932,19.05001 0,10.52099 -8.52871,19.04999 -19.04932,19.04999 -10.52062,0 -19.04931,-8.529 -19.04931,-19.04999 0,-10.521 8.52869,-19.05001 19.04931,-19.05001 z"
       style="fill:none;stroke:#ff0000;stroke-width:0.0761986;stroke-linecap:butt;stroke-linejoin:miter;stroke-miterlimit:2.61313;stroke-dasharray:none;stroke-opacity:1"
       id="path1377-1" />
    <path
       d="m 496.89535,92.97419 c 9.1179,0 16.50941,7.39179 16.50941,16.51 0,9.11818 -7.39151,16.51 -16.50941,16.51 -9.11784,0 -16.5094,-7.39182 -16.5094,-16.51 0,-9.11821 7.39156,-16.51 16.5094,-16.51 z"
       style="fill:none;stroke:#ff0000;stroke-width:0.0761986;stroke-linecap:butt;stroke-linejoin:miter;stroke-miterlimit:2.61313;stroke-dasharray:none;stroke-opacity:1"
       id="path1379-1" />
    <path
       d="m 496.89535,94.24419 c 8.41652,0 15.23946,6.82318 15.23946,15.24 0,8.41679 -6.82294,15.24001 -15.23946,15.24001 -8.41648,0 -15.23945,-6.82322 -15.23945,-15.24001 0,-8.41682 6.82297,-15.24 15.23945,-15.24 z"
       style="fill:none;stroke:#000000;stroke-width:0.0761986;stroke-linecap:butt;stroke-linejoin:miter;stroke-miterlimit:2.61313;stroke-dasharray:none;stroke-opacity:1"
       id="path1381-8" />
    <path
       d="m 537.06822,75.659789 c 9.11788,0 16.50941,7.391788 16.50941,16.510001 0,9.11821 -7.39153,16.51 -16.50941,16.51 -9.11785,0 -16.50941,-7.39179 -16.50941,-16.51 0,-9.118213 7.39156,-16.510001 16.50941,-16.510001 z"
       style="fill:none;stroke:#ff0000;stroke-width:0.0761986;stroke-linecap:butt;stroke-linejoin:miter;stroke-miterlimit:2.61313;stroke-dasharray:none;stroke-opacity:1"
       id="path1383-7" />
    <path
       d="m 537.06822,76.929789 c 8.41652,0 15.23946,6.823181 15.23946,15.240001 0,8.41678 -6.82294,15.24 -15.23946,15.24 -8.41648,0 -15.23946,-6.82322 -15.23946,-15.24 0,-8.41682 6.82298,-15.240001 15.23946,-15.240001 z"
       style="fill:none;stroke:#000000;stroke-width:0.0761986;stroke-linecap:butt;stroke-linejoin:miter;stroke-miterlimit:2.61313;stroke-dasharray:none;stroke-opacity:1"
       id="path1385-0" />
    <path
       d="m 580.73346,76.400588 c 9.11789,0 16.50941,7.391787 16.50941,16.510002 0,9.11821 -7.39152,16.51 -16.50941,16.51 -9.11774,0 -16.5093,-7.39179 -16.5093,-16.51 0,-9.118215 7.39156,-16.510002 16.5093,-16.510002 z"
       style="fill:none;stroke:#ff0000;stroke-width:0.0761986;stroke-linecap:butt;stroke-linejoin:miter;stroke-miterlimit:2.61313;stroke-dasharray:none;stroke-opacity:1"
       id="path1387-1" />
    <path
       d="m 580.73346,77.670587 c 8.41652,0 15.23946,6.823181 15.23946,15.240003 0,8.41678 -6.82294,15.24 -15.23946,15.24 -8.41648,0 -15.23935,-6.82322 -15.23935,-15.24 0,-8.416822 6.82287,-15.240003 15.23935,-15.240003 z"
       style="fill:none;stroke:#000000;stroke-width:0.0761986;stroke-linecap:butt;stroke-linejoin:miter;stroke-miterlimit:2.61313;stroke-dasharray:none;stroke-opacity:1"
       id="path1389-4" />
    <path
       d="m 496.89535,135.72071 c 9.1179,0 16.50941,7.39179 16.50941,16.50999 0,9.11817 -7.39151,16.51 -16.50941,16.51 -9.11784,0 -16.5094,-7.39183 -16.5094,-16.51 0,-9.1182 7.39156,-16.50999 16.5094,-16.50999 z"
       style="fill:none;stroke:#ff0000;stroke-width:0.0761986;stroke-linecap:butt;stroke-linejoin:miter;stroke-miterlimit:2.61313;stroke-dasharray:none;stroke-opacity:1"
       id="path1391-1" />
    <path
       d="m 496.89535,136.9907 c 8.41652,0 15.23946,6.82319 15.23946,15.24 0,8.41678 -6.82294,15.24001 -15.23946,15.24001 -8.41648,0 -15.23945,-6.82322 -15.23945,-15.24001 0,-8.41681 6.82297,-15.24 15.23945,-15.24 z"
       style="fill:none;stroke:#000000;stroke-width:0.0761986;stroke-linecap:butt;stroke-linejoin:miter;stroke-miterlimit:2.61313;stroke-dasharray:none;stroke-opacity:1"
       id="path1393-6" />
    <path
       d="m 537.06822,118.4063 c 9.11788,0 16.50941,7.39178 16.50941,16.50999 0,9.11818 -7.39153,16.51 -16.50941,16.51 -9.11785,0 -16.50941,-7.39182 -16.50941,-16.51 0,-9.11821 7.39156,-16.50999 16.50941,-16.50999 z"
       style="fill:none;stroke:#ff0000;stroke-width:0.0761986;stroke-linecap:butt;stroke-linejoin:miter;stroke-miterlimit:2.61313;stroke-dasharray:none;stroke-opacity:1"
       id="path1395-6" />
    <path
       d="m 537.06822,119.6763 c 8.41652,0 15.23946,6.82318 15.23946,15.23999 0,8.41679 -6.82294,15.24 -15.23946,15.24 -8.41648,0 -15.23946,-6.8232 -15.23946,-15.24 0,-8.41681 6.82298,-15.23999 15.23946,-15.23999 z"
       style="fill:none;stroke:#000000;stroke-width:0.0761986;stroke-linecap:butt;stroke-linejoin:miter;stroke-miterlimit:2.61313;stroke-dasharray:none;stroke-opacity:1"
       id="path1397-3" />
    <path
       d="m 580.73346,119.14709 c 9.11789,0 16.50941,7.39179 16.50941,16.51001 0,9.11817 -7.39152,16.50999 -16.50941,16.50999 -9.11774,0 -16.5093,-7.39182 -16.5093,-16.50999 0,-9.11822 7.39156,-16.51001 16.5093,-16.51001 z"
       style="fill:none;stroke:#ff0000;stroke-width:0.0761986;stroke-linecap:butt;stroke-linejoin:miter;stroke-miterlimit:2.61313;stroke-dasharray:none;stroke-opacity:1"
       id="path1399-9" />
    <path
       d="m 580.73346,120.41709 c 8.41652,0 15.23946,6.82319 15.23946,15.24001 0,8.41678 -6.82294,15.23999 -15.23946,15.23999 -8.41648,0 -15.23935,-6.8232 -15.23935,-15.23999 0,-8.41682 6.82287,-15.24001 15.23935,-15.24001 z"
       style="fill:none;stroke:#000000;stroke-width:0.0761986;stroke-linecap:butt;stroke-linejoin:miter;stroke-miterlimit:2.61313;stroke-dasharray:none;stroke-opacity:1"
       id="path1401-8" />
    <path
       d="m 367.54638,58.546998 c 6.66307,0 12.06456,5.401698 12.06456,12.065 0,6.663302 -5.40149,12.065 -12.06456,12.065 -6.66306,0 -12.06456,-5.401698 -12.06456,-12.065 0,-6.663302 5.4015,-12.065 12.06456,-12.065 z"
       style="fill:none;stroke:#000000;stroke-width:0.0761986;stroke-linecap:butt;stroke-linejoin:miter;stroke-miterlimit:2.61313;stroke-dasharray:none;stroke-opacity:1"
       id="path1403-9" />
    <path
       d="m 367.54638,57.188098 c 7.41355,0 13.42341,6.010099 13.42341,13.4239 0,7.413801 -6.00986,13.4239 -13.42341,13.4239 -7.41354,0 -13.42341,-6.010099 -13.42341,-13.4239 0,-7.413801 6.00987,-13.4239 13.42341,-13.4239 z"
       style="fill:none;stroke:#ff0000;stroke-width:0.0761986;stroke-linecap:butt;stroke-linejoin:miter;stroke-miterlimit:2.61313;stroke-dasharray:none;stroke-opacity:1"
       id="path1405-6" />
    <path
       d="m 405.52914,58.546998 c 6.66306,0 12.06457,5.401698 12.06457,12.065 0,6.663302 -5.40151,12.065 -12.06457,12.065 -6.66306,0 -12.06457,-5.401698 -12.06457,-12.065 0,-6.663302 5.40151,-12.065 12.06457,-12.065 z"
       style="fill:none;stroke:#000000;stroke-width:0.0761986;stroke-linecap:butt;stroke-linejoin:miter;stroke-miterlimit:2.61313;stroke-dasharray:none;stroke-opacity:1"
       id="path1407-6" />
    <path
       d="m 405.52914,57.188098 c 7.41353,0 13.42342,6.010099 13.42342,13.4239 0,7.413801 -6.00989,13.4239 -13.42342,13.4239 -7.41354,0 -13.42342,-6.010099 -13.42342,-13.4239 0,-7.413801 6.00988,-13.4239 13.42342,-13.4239 z"
       style="fill:none;stroke:#ff0000;stroke-width:0.0761986;stroke-linecap:butt;stroke-linejoin:miter;stroke-miterlimit:2.61313;stroke-dasharray:none;stroke-opacity:1"
       id="path1409-4" />
    <path
       d="m 342.98818,153.48038 c 0,-1.40279 1.13714,-2.54 2.53991,-2.54 1.40274,0 2.5399,1.13721 2.5399,2.54 0,1.40282 -1.13716,2.54 -2.5399,2.54 -1.40277,0 -2.53991,-1.13718 -2.53991,-2.54 z"
       style="fill:none;stroke:#231f20;stroke-width:0.176386;stroke-linecap:butt;stroke-linejoin:miter;stroke-miterlimit:2.61313;stroke-dasharray:none;stroke-opacity:1"
       id="path1461-2" />
    <path
       d="m 342.98818,109.29708 c 0,1.40282 1.13714,2.54 2.53991,2.54 1.40274,0 2.5399,-1.13718 2.5399,-2.54 0,-1.40279 -1.13716,-2.54 -2.5399,-2.54 -1.40277,0 -2.53991,1.13721 -2.53991,2.54 z"
       style="fill:none;stroke:#231f20;stroke-width:0.176386;stroke-linecap:butt;stroke-linejoin:miter;stroke-miterlimit:2.61313;stroke-dasharray:none;stroke-opacity:1"
       id="path1463-8" />
    <path
       d="m 430.61504,153.48038 c 0,-1.40279 -1.13717,-2.54 -2.53991,-2.54 -1.40277,0 -2.5399,1.13721 -2.5399,2.54 0,1.40282 1.13713,2.54 2.5399,2.54 1.40274,0 2.53991,-1.13718 2.53991,-2.54 z"
       style="fill:none;stroke:#231f20;stroke-width:0.176386;stroke-linecap:butt;stroke-linejoin:miter;stroke-miterlimit:2.61313;stroke-dasharray:none;stroke-opacity:1"
       id="path1465-8" />
    <path
       d="m 430.61504,109.29708 c 0,1.40282 -1.13717,2.54 -2.53991,2.54 -1.40277,0 -2.5399,-1.13718 -2.5399,-2.54 0,-1.40279 1.13713,-2.54 2.5399,-2.54 1.40274,0 2.53991,1.13721 2.53991,2.54 z"
       style="fill:none;stroke:#231f20;stroke-width:0.176386;stroke-linecap:butt;stroke-linejoin:miter;stroke-miterlimit:2.61313;stroke-dasharray:none;stroke-opacity:1"
       id="path1467-0" />
  </g>
</svg>
