<?xml version="1.0" encoding="UTF-8" standalone="no"?>
<svg
   xmlns:dc="http://purl.org/dc/elements/1.1/"
   xmlns:cc="http://creativecommons.org/ns#"
   xmlns:rdf="http://www.w3.org/1999/02/22-rdf-syntax-ns#"
   xmlns:svg="http://www.w3.org/2000/svg"
   xmlns="http://www.w3.org/2000/svg"
   xmlns:sodipodi="http://sodipodi.sourceforge.net/DTD/sodipodi-0.dtd"
   xmlns:inkscape="http://www.inkscape.org/namespaces/inkscape"
   width="5.5in"
   height="5.5in"
   viewBox="0 0 139.7 139.7"
   version="1.1"
   id="svg5504"
   inkscape:version="1.0.2-2 (e86c870879, 2021-01-15)"
   sodipodi:docname="control-box.svg">
  <defs
     id="defs5498" />
  <sodipodi:namedview
     id="base"
     pagecolor="#ffffff"
     bordercolor="#666666"
     borderopacity="1.0"
     inkscape:pageopacity="0.0"
     inkscape:pageshadow="2"
     inkscape:zoom="0.98994949"
     inkscape:cx="561.95966"
     inkscape:cy="792.2193"
     inkscape:document-units="mm"
     inkscape:current-layer="layer1"
     inkscape:document-rotation="0"
     showgrid="false"
     units="in"
     inkscape:window-width="3840"
     inkscape:window-height="2081"
     inkscape:window-x="-9"
     inkscape:window-y="-9"
     inkscape:window-maximized="1" />
  <metadata
     id="metadata5501">
    <rdf:RDF>
      <cc:Work
         rdf:about="">
        <dc:format>image/svg+xml</dc:format>
        <dc:type
           rdf:resource="http://purl.org/dc/dcmitype/StillImage" />
        <dc:title></dc:title>
      </cc:Work>
    </rdf:RDF>
  </metadata>
  <g
     inkscape:label="Layer 1"
     inkscape:groupmode="layer"
     id="layer1">
    <rect
       style="fill:none;stroke:#000000;stroke-width:0.0761584;stroke-linejoin:round;stroke-miterlimit:2.61313"
       id="rect6067"
       width="139.62384"
       height="139.62384"
       x="0.038079232"
       y="0.038079232"
       rx="12.7"
       ry="12.7" />
    <path
       id="rect6069"
       style="fill:none;stroke:#000000;stroke-width:0.0744863;stroke-linejoin:round;stroke-miterlimit:2.61313"
       d="m 15.45177,3.037024 c -1.075764,0 -2.118889,0.1358032 -3.112988,0.3906737 a 6.9999999,6.9999999 0 0 1 4.699454,6.6104493 6.9999999,6.9999999 0 0 1 -7.000089,7.000089 6.9999999,6.9999999 0 0 1 -6.6104493,-4.698938 C 3.1729074,13.333253 3.037024,14.37618 3.037024,15.45177 v 108.79646 c 0,1.09102 0.1406244,2.14804 0.4025593,3.15485 a 6.9999005,6.9999999 0 0 1 6.5985637,-4.66484 6.9999005,6.9999999 0 0 1 6.999572,7.00009 6.9999005,6.9999999 0 0 1 -4.56923,6.56394 c 0.955301,0.23404 1.953846,0.3607 2.983281,0.3607 h 108.79646 c 1.04601,0 2.06055,-0.12963 3.02979,-0.37103 a 6.9999999,6.9999999 0 0 1 -4.53978,-6.55361 6.9999999,6.9999999 0 0 1 7.00009,-7.00009 6.9999999,6.9999999 0 0 1 6.55309,4.54029 c 0.2415,-0.96941 0.37155,-1.98408 0.37155,-3.0303 V 15.45177 c 0,-1.029435 -0.12666,-2.02798 -0.3607,-2.983281 a 6.9999999,6.9999999 0 0 1 -6.56394,4.569747 6.9999999,6.9999999 0 0 1 -7.00009,-7.000089 6.9999999,6.9999999 0 0 1 4.66484,-6.5985637 C 126.39627,3.1776484 125.33925,3.037024 124.24823,3.037024 Z" />
    <circle
       style="fill:none;stroke:#000000;stroke-width:0.0762;stroke-linejoin:round;stroke-miterlimit:2.61313"
       id="path6315"
       cx="10.0381"
       cy="10.0381"
       r="2" />
    <circle
       style="fill:none;stroke:#000000;stroke-width:0.0762;stroke-linejoin:round;stroke-miterlimit:2.61313"
       id="path6315-8"
       cx="10.038001"
       cy="129.7381"
       r="2" />
    <circle
       style="fill:none;stroke:#000000;stroke-width:0.0762;stroke-linejoin:round;stroke-miterlimit:2.61313"
       id="path6315-9"
       cx="129.7381"
       cy="129.7381"
       r="2" />
    <circle
       style="fill:none;stroke:#000000;stroke-width:0.0762;stroke-linejoin:round;stroke-miterlimit:2.61313"
       id="path6315-95"
       cx="129.7381"
       cy="10.0381"
       r="2" />
  </g>
</svg>
