<?xml version="1.0" encoding="UTF-8" standalone="no"?>
<svg
   xmlns:dc="http://purl.org/dc/elements/1.1/"
   xmlns:cc="http://creativecommons.org/ns#"
   xmlns:rdf="http://www.w3.org/1999/02/22-rdf-syntax-ns#"
   xmlns:svg="http://www.w3.org/2000/svg"
   xmlns="http://www.w3.org/2000/svg"
   xmlns:sodipodi="http://sodipodi.sourceforge.net/DTD/sodipodi-0.dtd"
   xmlns:inkscape="http://www.inkscape.org/namespaces/inkscape"
   width="11.009in"
   height="7.369in"
   viewBox="0 0 279.6286 187.17261"
   version="1.1"
   id="svg1331"
   inkscape:version="1.0.2-2 (e86c870879, 2021-01-15)"
   sodipodi:docname="hit-box.svg">
  <defs
     id="defs1325" />
  <sodipodi:namedview
     id="base"
     pagecolor="#ffffff"
     bordercolor="#666666"
     borderopacity="1.0"
     inkscape:pageopacity="0.0"
     inkscape:pageshadow="2"
     inkscape:zoom="1.4"
     inkscape:cx="599.3701"
     inkscape:cy="369.76873"
     inkscape:document-units="in"
     inkscape:current-layer="layer1"
     inkscape:document-rotation="0"
     showgrid="false"
     units="in"
     inkscape:window-width="3072"
     inkscape:window-height="1665"
     inkscape:window-x="3832"
     inkscape:window-y="-8"
     inkscape:window-maximized="1" />
  <metadata
     id="metadata1328">
    <rdf:RDF>
      <cc:Work
         rdf:about="">
        <dc:format>image/svg+xml</dc:format>
        <dc:type
           rdf:resource="http://purl.org/dc/dcmitype/StillImage" />
        <dc:title></dc:title>
      </cc:Work>
    </rdf:RDF>
  </metadata>
  <g
     inkscape:label="Layer 1"
     inkscape:groupmode="layer"
     id="layer1">
    <path
       d="m 10.947439,15.516248 c 2.51798,0 4.55927,-2.043404 4.55927,-4.564012 10e-5,-2.5207139 -2.04118,-4.5641519 -4.55927,-4.5641519 -2.5181001,0 -4.5593701,2.043438 -4.5593701,4.5641519 0,2.520608 2.04127,4.564012 4.5593701,4.564012 z"
       style="fill:none;stroke:#000000;stroke-width:0.0761607;stroke-linecap:butt;stroke-linejoin:bevel;stroke-miterlimit:2.61313;stroke-dasharray:none;stroke-opacity:1"
       id="path122-3" />
    <path
       d="m 268.50343,15.516244 c 2.51798,0 4.55927,-2.0434 4.55927,-4.56401 10e-5,-2.5207099 -2.04118,-4.5641499 -4.55927,-4.5641499 -2.5181,0 -4.55937,2.04344 -4.55937,4.5641499 0,2.52061 2.04127,4.56401 4.55937,4.56401 z"
       style="fill:none;stroke:#000000;stroke-width:0.0761607;stroke-linecap:butt;stroke-linejoin:bevel;stroke-miterlimit:2.61313;stroke-dasharray:none;stroke-opacity:1"
       id="path122-3-1" />
    <path
       d="m 10.947439,180.36224 c 2.51798,0 4.55927,-2.0434 4.55927,-4.56401 10e-5,-2.52071 -2.04118,-4.56415 -4.55927,-4.56415 -2.5181001,0 -4.5593701,2.04344 -4.5593701,4.56415 0,2.52061 2.04127,4.56401 4.5593701,4.56401 z"
       style="fill:none;stroke:#000000;stroke-width:0.0761607;stroke-linecap:butt;stroke-linejoin:bevel;stroke-miterlimit:2.61313;stroke-dasharray:none;stroke-opacity:1"
       id="path122-3-8" />
    <path
       d="m 268.50343,180.36224 c 2.51798,0 4.55927,-2.0434 4.55927,-4.56401 10e-5,-2.52071 -2.04118,-4.56415 -4.55927,-4.56415 -2.5181,0 -4.55937,2.04344 -4.55937,4.56415 0,2.52061 2.04127,4.56401 4.55937,4.56401 z"
       style="fill:none;stroke:#000000;stroke-width:0.0761607;stroke-linecap:butt;stroke-linejoin:bevel;stroke-miterlimit:2.61313;stroke-dasharray:none;stroke-opacity:1"
       id="path122-3-1-6" />
    <rect
       style="fill:none;stroke:#000000;stroke-width:0.2286;stroke-linejoin:round;stroke-miterlimit:4;stroke-dasharray:none;stroke-opacity:1"
       id="rect1335"
       width="279.39999"
       height="186.944"
       x="0.1143"
       y="0.1143"
       rx="12.7"
       ry="12.7" />
    <g
       id="g2577"
       transform="translate(-77.8631,15.875)">
      <path
         d="m 206.86823,97.578304 c 9.11788,0 16.50941,7.391776 16.50941,16.509986 0,9.11818 -7.39153,16.51 -16.50941,16.51 -9.11785,0 -16.50941,-7.39182 -16.50941,-16.51 0,-9.11821 7.39156,-16.509986 16.50941,-16.509986 z"
         style="fill:none;stroke:#ff0000;stroke-width:0.0761986;stroke-linecap:butt;stroke-linejoin:miter;stroke-miterlimit:2.61313;stroke-dasharray:none;stroke-opacity:1"
         id="path1395" />
      <path
         d="m 206.86823,98.848304 c 8.41652,0 15.23946,6.823176 15.23946,15.239986 0,8.41679 -6.82294,15.24 -15.23946,15.24 -8.41648,0 -15.23946,-6.8232 -15.23946,-15.24 0,-8.41681 6.82298,-15.239986 15.23946,-15.239986 z"
         style="fill:none;stroke:#000000;stroke-width:0.0761986;stroke-linecap:butt;stroke-linejoin:miter;stroke-miterlimit:2.61313;stroke-dasharray:none;stroke-opacity:1"
         id="path1397" />
    </g>
    <g
       id="g2545-1-70"
       transform="translate(52.422963,167.36332)" />
    <g
       id="g2545-1-69"
       transform="translate(104.77267,22.787425)">
      <path
         d="m 37.346389,37.719002 c 6.66307,0 12.06456,5.401698 12.06456,12.065 0,6.663302 -5.40149,12.065 -12.06456,12.065 -6.66307,0 -12.06456,-5.401698 -12.06456,-12.065 0,-6.663302 5.40149,-12.065 12.06456,-12.065 z"
         style="fill:none;stroke:#000000;stroke-width:0.0761986;stroke-linecap:butt;stroke-linejoin:miter;stroke-miterlimit:2.61313;stroke-dasharray:none;stroke-opacity:1"
         id="path1403-9-7" />
      <path
         d="m 37.346389,36.360102 c 7.41354,0 13.42341,6.010099 13.42341,13.4239 0,7.413801 -6.00987,13.4239 -13.42341,13.4239 -7.41354,0 -13.42342,-6.010099 -13.42342,-13.4239 0,-7.413801 6.00988,-13.4239 13.42342,-13.4239 z"
         style="fill:none;stroke:#ff0000;stroke-width:0.0761986;stroke-linecap:butt;stroke-linejoin:miter;stroke-miterlimit:2.61313;stroke-dasharray:none;stroke-opacity:1"
         id="path1405-1-2" />
    </g>
    <g
       id="g2545-1-50"
       transform="translate(78.125344,38.851414)">
      <path
         d="m 37.346389,37.719002 c 6.66307,0 12.06456,5.401698 12.06456,12.065 0,6.663302 -5.40149,12.065 -12.06456,12.065 -6.66307,0 -12.06456,-5.401698 -12.06456,-12.065 0,-6.663302 5.40149,-12.065 12.06456,-12.065 z"
         style="fill:none;stroke:#000000;stroke-width:0.0761986;stroke-linecap:butt;stroke-linejoin:miter;stroke-miterlimit:2.61313;stroke-dasharray:none;stroke-opacity:1"
         id="path1403-9-04" />
      <path
         d="m 37.346389,36.360102 c 7.41354,0 13.42341,6.010099 13.42341,13.4239 0,7.413801 -6.00987,13.4239 -13.42341,13.4239 -7.41354,0 -13.42342,-6.010099 -13.42342,-13.4239 0,-7.413801 6.00988,-13.4239 13.42342,-13.4239 z"
         style="fill:none;stroke:#ff0000;stroke-width:0.0761986;stroke-linecap:butt;stroke-linejoin:miter;stroke-miterlimit:2.61313;stroke-dasharray:none;stroke-opacity:1"
         id="path1405-1-16" />
    </g>
    <g
       id="g2545-1-1"
       transform="translate(52.611951,26.000223)">
      <path
         d="m 37.346389,37.719002 c 6.66307,0 12.06456,5.401698 12.06456,12.065 0,6.663302 -5.40149,12.065 -12.06456,12.065 -6.66307,0 -12.06456,-5.401698 -12.06456,-12.065 0,-6.663302 5.40149,-12.065 12.06456,-12.065 z"
         style="fill:none;stroke:#000000;stroke-width:0.0761986;stroke-linecap:butt;stroke-linejoin:miter;stroke-miterlimit:2.61313;stroke-dasharray:none;stroke-opacity:1"
         id="path1403-9-1" />
      <path
         d="m 37.346389,36.360102 c 7.41354,0 13.42341,6.010099 13.42341,13.4239 0,7.413801 -6.00987,13.4239 -13.42341,13.4239 -7.41354,0 -13.42342,-6.010099 -13.42342,-13.4239 0,-7.413801 6.00988,-13.4239 13.42342,-13.4239 z"
         style="fill:none;stroke:#ff0000;stroke-width:0.0761986;stroke-linecap:butt;stroke-linejoin:miter;stroke-miterlimit:2.61313;stroke-dasharray:none;stroke-opacity:1"
         id="path1405-1-9" />
    </g>
    <g
       id="g2545-1-03"
       transform="translate(22.562844,25.055282)">
      <path
         d="m 37.346389,37.719002 c 6.66307,0 12.06456,5.401698 12.06456,12.065 0,6.663302 -5.40149,12.065 -12.06456,12.065 -6.66307,0 -12.06456,-5.401698 -12.06456,-12.065 0,-6.663302 5.40149,-12.065 12.06456,-12.065 z"
         style="fill:none;stroke:#000000;stroke-width:0.0761986;stroke-linecap:butt;stroke-linejoin:miter;stroke-miterlimit:2.61313;stroke-dasharray:none;stroke-opacity:1"
         id="path1403-9-8" />
      <path
         d="m 37.346389,36.360102 c 7.41354,0 13.42341,6.010099 13.42341,13.4239 0,7.413801 -6.00987,13.4239 -13.42341,13.4239 -7.41354,0 -13.42342,-6.010099 -13.42342,-13.4239 0,-7.413801 6.00988,-13.4239 13.42342,-13.4239 z"
         style="fill:none;stroke:#ff0000;stroke-width:0.0761986;stroke-linecap:butt;stroke-linejoin:miter;stroke-miterlimit:2.61313;stroke-dasharray:none;stroke-opacity:1"
         id="path1405-1-83" />
    </g>
    <g
       id="g2545-1-4"
       transform="translate(130.85302,10.314218)">
      <path
         d="m 37.346389,37.719002 c 6.66307,0 12.06456,5.401698 12.06456,12.065 0,6.663302 -5.40149,12.065 -12.06456,12.065 -6.66307,0 -12.06456,-5.401698 -12.06456,-12.065 0,-6.663302 5.40149,-12.065 12.06456,-12.065 z"
         style="fill:none;stroke:#000000;stroke-width:0.0761986;stroke-linecap:butt;stroke-linejoin:miter;stroke-miterlimit:2.61313;stroke-dasharray:none;stroke-opacity:1"
         id="path1403-9-14" />
      <path
         d="m 37.346389,36.360102 c 7.41354,0 13.42341,6.010099 13.42341,13.4239 0,7.413801 -6.00987,13.4239 -13.42341,13.4239 -7.41354,0 -13.42342,-6.010099 -13.42342,-13.4239 0,-7.413801 6.00988,-13.4239 13.42342,-13.4239 z"
         style="fill:none;stroke:#ff0000;stroke-width:0.0761986;stroke-linecap:butt;stroke-linejoin:miter;stroke-miterlimit:2.61313;stroke-dasharray:none;stroke-opacity:1"
         id="path1405-1-3" />
    </g>
    <g
       id="g2545-1-0"
       transform="translate(159.20123,10.503201)">
      <path
         d="m 37.346389,37.719002 c 6.66307,0 12.06456,5.401698 12.06456,12.065 0,6.663302 -5.40149,12.065 -12.06456,12.065 -6.66307,0 -12.06456,-5.401698 -12.06456,-12.065 0,-6.663302 5.40149,-12.065 12.06456,-12.065 z"
         style="fill:none;stroke:#000000;stroke-width:0.0761986;stroke-linecap:butt;stroke-linejoin:miter;stroke-miterlimit:2.61313;stroke-dasharray:none;stroke-opacity:1"
         id="path1403-9-2" />
      <path
         d="m 37.346389,36.360102 c 7.41354,0 13.42341,6.010099 13.42341,13.4239 0,7.413801 -6.00987,13.4239 -13.42341,13.4239 -7.41354,0 -13.42342,-6.010099 -13.42342,-13.4239 0,-7.413801 6.00988,-13.4239 13.42342,-13.4239 z"
         style="fill:none;stroke:#ff0000;stroke-width:0.0761986;stroke-linecap:butt;stroke-linejoin:miter;stroke-miterlimit:2.61313;stroke-dasharray:none;stroke-opacity:1"
         id="path1405-1-4" />
    </g>
    <g
       id="g2545-1-8"
       transform="translate(187.36046,16.55082)">
      <path
         d="m 37.346389,37.719002 c 6.66307,0 12.06456,5.401698 12.06456,12.065 0,6.663302 -5.40149,12.065 -12.06456,12.065 -6.66307,0 -12.06456,-5.401698 -12.06456,-12.065 0,-6.663302 5.40149,-12.065 12.06456,-12.065 z"
         style="fill:none;stroke:#000000;stroke-width:0.0761986;stroke-linecap:butt;stroke-linejoin:miter;stroke-miterlimit:2.61313;stroke-dasharray:none;stroke-opacity:1"
         id="path1403-9-26" />
      <path
         d="m 37.346389,36.360102 c 7.41354,0 13.42341,6.010099 13.42341,13.4239 0,7.413801 -6.00987,13.4239 -13.42341,13.4239 -7.41354,0 -13.42342,-6.010099 -13.42342,-13.4239 0,-7.413801 6.00988,-13.4239 13.42342,-13.4239 z"
         style="fill:none;stroke:#ff0000;stroke-width:0.0761986;stroke-linecap:butt;stroke-linejoin:miter;stroke-miterlimit:2.61313;stroke-dasharray:none;stroke-opacity:1"
         id="path1405-1-8" />
    </g>
    <g
       id="g2545-1-49"
       transform="translate(105.52861,51.135643)">
      <path
         d="m 37.346389,37.719002 c 6.66307,0 12.06456,5.401698 12.06456,12.065 0,6.663302 -5.40149,12.065 -12.06456,12.065 -6.66307,0 -12.06456,-5.401698 -12.06456,-12.065 0,-6.663302 5.40149,-12.065 12.06456,-12.065 z"
         style="fill:none;stroke:#000000;stroke-width:0.0761986;stroke-linecap:butt;stroke-linejoin:miter;stroke-miterlimit:2.61313;stroke-dasharray:none;stroke-opacity:1"
         id="path1403-9-17" />
      <path
         d="m 37.346389,36.360102 c 7.41354,0 13.42341,6.010099 13.42341,13.4239 0,7.413801 -6.00987,13.4239 -13.42341,13.4239 -7.41354,0 -13.42342,-6.010099 -13.42342,-13.4239 0,-7.413801 6.00988,-13.4239 13.42342,-13.4239 z"
         style="fill:none;stroke:#ff0000;stroke-width:0.0761986;stroke-linecap:butt;stroke-linejoin:miter;stroke-miterlimit:2.61313;stroke-dasharray:none;stroke-opacity:1"
         id="path1405-1-7" />
    </g>
    <g
       id="g2545-1-6"
       transform="translate(131.042,38.473438)">
      <path
         d="m 37.346389,37.719002 c 6.66307,0 12.06456,5.401698 12.06456,12.065 0,6.663302 -5.40149,12.065 -12.06456,12.065 -6.66307,0 -12.06456,-5.401698 -12.06456,-12.065 0,-6.663302 5.40149,-12.065 12.06456,-12.065 z"
         style="fill:none;stroke:#000000;stroke-width:0.0761986;stroke-linecap:butt;stroke-linejoin:miter;stroke-miterlimit:2.61313;stroke-dasharray:none;stroke-opacity:1"
         id="path1403-9-5" />
      <path
         d="m 37.346389,36.360102 c 7.41354,0 13.42341,6.010099 13.42341,13.4239 0,7.413801 -6.00987,13.4239 -13.42341,13.4239 -7.41354,0 -13.42342,-6.010099 -13.42342,-13.4239 0,-7.413801 6.00988,-13.4239 13.42342,-13.4239 z"
         style="fill:none;stroke:#ff0000;stroke-width:0.0761986;stroke-linecap:butt;stroke-linejoin:miter;stroke-miterlimit:2.61313;stroke-dasharray:none;stroke-opacity:1"
         id="path1405-1-81" />
    </g>
    <g
       id="g2545-1-5"
       transform="translate(159.39023,38.284451)">
      <path
         d="m 37.346389,37.719002 c 6.66307,0 12.06456,5.401698 12.06456,12.065 0,6.663302 -5.40149,12.065 -12.06456,12.065 -6.66307,0 -12.06456,-5.401698 -12.06456,-12.065 0,-6.663302 5.40149,-12.065 12.06456,-12.065 z"
         style="fill:none;stroke:#000000;stroke-width:0.0761986;stroke-linecap:butt;stroke-linejoin:miter;stroke-miterlimit:2.61313;stroke-dasharray:none;stroke-opacity:1"
         id="path1403-9-25" />
      <path
         d="m 37.346389,36.360102 c 7.41354,0 13.42341,6.010099 13.42341,13.4239 0,7.413801 -6.00987,13.4239 -13.42341,13.4239 -7.41354,0 -13.42342,-6.010099 -13.42342,-13.4239 0,-7.413801 6.00988,-13.4239 13.42342,-13.4239 z"
         style="fill:none;stroke:#ff0000;stroke-width:0.0761986;stroke-linecap:butt;stroke-linejoin:miter;stroke-miterlimit:2.61313;stroke-dasharray:none;stroke-opacity:1"
         id="path1405-1-6" />
    </g>
    <g
       id="g2545-1-7"
       transform="translate(187.54945,44.710045)">
      <path
         d="m 37.346389,37.719002 c 6.66307,0 12.06456,5.401698 12.06456,12.065 0,6.663302 -5.40149,12.065 -12.06456,12.065 -6.66307,0 -12.06456,-5.401698 -12.06456,-12.065 0,-6.663302 5.40149,-12.065 12.06456,-12.065 z"
         style="fill:none;stroke:#000000;stroke-width:0.0761986;stroke-linecap:butt;stroke-linejoin:miter;stroke-miterlimit:2.61313;stroke-dasharray:none;stroke-opacity:1"
         id="path1403-9-28" />
      <path
         d="m 37.346389,36.360102 c 7.41354,0 13.42341,6.010099 13.42341,13.4239 0,7.413801 -6.00987,13.4239 -13.42341,13.4239 -7.41354,0 -13.42342,-6.010099 -13.42342,-13.4239 0,-7.413801 6.00988,-13.4239 13.42342,-13.4239 z"
         style="fill:none;stroke:#ff0000;stroke-width:0.0761986;stroke-linecap:butt;stroke-linejoin:miter;stroke-miterlimit:2.61313;stroke-dasharray:none;stroke-opacity:1"
         id="path1405-1-61" />
    </g>
    <rect
       style="fill:none;stroke:#ff0000;stroke-width:0.0762;stroke-miterlimit:2.61313;stroke-dasharray:none;stroke-opacity:1"
       id="rect2875"
       width="279.39999"
       height="139.7"
       x="0.0381"
       y="23.660101" />
  </g>
</svg>
