<?xml version="1.0" encoding="UTF-8" standalone="no"?>
<svg xmlns:dc="http://purl.org/dc/elements/1.1/" xmlns:cc="http://creativecommons.org/ns#" xmlns:rdf="http://www.w3.org/1999/02/22-rdf-syntax-ns#" xmlns:svg="http://www.w3.org/2000/svg" xmlns="http://www.w3.org/2000/svg" xmlns:sodipodi="http://sodipodi.sourceforge.net/DTD/sodipodi-0.dtd" xmlns:inkscape="http://www.inkscape.org/namespaces/inkscape" width="279.39999mm" height="186.944mm" viewBox="0 0 279.4 186.94402" version="1.1" id="svg1496" inkscape:version="1.0.2-2 (e86c870879, 2021-01-15)" sodipodi:docname="hitbox-module.svg">
  <defs id="defs1490" />
  <sodipodi:namedview id="base" pagecolor="#ffffff" bordercolor="#0000ff" borderopacity="1" inkscape:pageopacity="0.0" inkscape:pageshadow="2" inkscape:zoom="1.4" inkscape:cx="729.64083" inkscape:cy="253.41692" inkscape:document-units="in" inkscape:current-layer="layer1" inkscape:document-rotation="0" showgrid="false" units="mm" inkscape:window-width="3840" inkscape:window-height="2081" inkscape:window-x="3831" inkscape:window-y="-9" inkscape:window-maximized="1" inkscape:showpageshadow="false" showguides="true" inkscape:guide-bbox="true" />
  <metadata id="metadata1493">
    <rdf:RDF>
      <cc:Work rdf:about="">
        <dc:format>image/svg+xml</dc:format>
        <dc:type rdf:resource="http://purl.org/dc/dcmitype/StillImage" />
        <dc:title />
      </cc:Work>
    </rdf:RDF>
  </metadata>
  <g inkscape:label="Layer 1" inkscape:groupmode="layer" id="layer1">
    <g id="g185">
      <rect style="fill:none;stroke:#000000;stroke-width:0.0762;stroke-linejoin:round;stroke-miterlimit:2.61313;stroke-dasharray:none" id="rect16" width="279.40002" height="186.94402" x="-279.40012" y="-186.94412" rx="12.700001" ry="12.7" transform="scale(-1)" />
      <circle style="fill:none;stroke:#000000;stroke-width:0.0762;stroke-linejoin:round;stroke-miterlimit:2.61313;stroke-dasharray:none" id="path895" cx="-268.45013" cy="10.950104" r="4.6000004" transform="scale(-1,1)" />
      <circle style="fill:none;stroke:#000000;stroke-width:0.0762;stroke-linejoin:round;stroke-miterlimit:2.61313;stroke-dasharray:none" id="path895-1" cx="-10.950104" cy="10.950104" r="4.6000004" transform="scale(-1,1)" />
      <ellipse style="fill:none;stroke:#000000;stroke-width:0.0762;stroke-linejoin:round;stroke-miterlimit:2.61313;stroke-dasharray:none" id="path895-16" cx="-268.45023" cy="175.99411" rx="4.5999002" ry="4.6000004" transform="scale(-1,1)" />
      <circle style="fill:none;stroke:#000000;stroke-width:0.0762;stroke-linejoin:round;stroke-miterlimit:2.61313;stroke-dasharray:none" id="path895-5" cx="-10.950104" cy="175.99411" r="4.6000004" transform="scale(-1,1)" />
      <g id="g488">
        <path id="path873-04" style="fill:none;stroke:#000000;stroke-width:0.076;stroke-linejoin:round;stroke-miterlimit:2.61313;stroke-dasharray:none" d="m 129.69998,155.32211 a 2,2 0 0 1 2,-2 2,2 0 0 1 2,2 2,2 0 0 1 -2,2 2,2 0 0 1 -2,-2 z" />
        <path id="path873-0-3" style="fill:none;stroke:#000000;stroke-width:0.076;stroke-linejoin:round;stroke-miterlimit:2.61313;stroke-dasharray:none" d="m 5.9999815,155.32211 a 2,2 0 0 1 2,-2 2,2 0 0 1 2.0000001,2 2,2 0 0 1 -2.0000001,2 2,2 0 0 1 -2,-2 z" />
        <path id="path873-9-0" style="fill:none;stroke:#000000;stroke-width:0.076;stroke-linejoin:round;stroke-miterlimit:2.61313;stroke-dasharray:none" d="m 5.9999815,31.622113 a 2,2 0 0 1 2,-2 2,2 0 0 1 2.0000001,2 2,2 0 0 1 -2.0000001,2 2,2 0 0 1 -2,-2 z" />
        <path id="path873-4-7" style="fill:none;stroke:#000000;stroke-width:0.076;stroke-linejoin:round;stroke-miterlimit:2.61313;stroke-dasharray:none" d="m 129.69998,31.622113 a 2,2 0 0 1 2,-2 2,2 0 0 1 2,2 2,2 0 0 1 -2,2 2,2 0 0 1 -2,-2 z" />
        <path id="path873-94" style="fill:none;stroke:#000000;stroke-width:0.076;stroke-linejoin:round;stroke-miterlimit:2.61313;stroke-dasharray:none" d="m 149.7,155.32212 a 2,2 0 0 0 -2,-2 2,2 0 0 0 -2,2 2,2 0 0 0 2,2 2,2 0 0 0 2,-2 z" />
        <path id="path873-0-2" style="fill:none;stroke:#000000;stroke-width:0.076;stroke-linejoin:round;stroke-miterlimit:2.61313;stroke-dasharray:none" d="m 273.4,155.32212 a 2,2 0 0 0 -2,-2 2,2 0 0 0 -2,2 2,2 0 0 0 2,2 2,2 0 0 0 2,-2 z" />
        <path id="path873-9-01" style="fill:none;stroke:#000000;stroke-width:0.076;stroke-linejoin:round;stroke-miterlimit:2.61313;stroke-dasharray:none" d="m 273.4,31.622119 a 2,2 0 0 0 -2,-2 2,2 0 0 0 -2,2 2,2 0 0 0 2,2 2,2 0 0 0 2,-2 z" />
        <path id="path873-4-5" style="fill:none;stroke:#000000;stroke-width:0.076;stroke-linejoin:round;stroke-miterlimit:2.61313;stroke-dasharray:none" d="m 149.7,31.622119 a 2,2 0 0 0 -2,-2 2,2 0 0 0 -2,2 2,2 0 0 0 2,2 2,2 0 0 0 2,-2 z" />
      </g>
      <g id="g94" transform="translate(-2.7025412,-3.1016895)">
        <g id="g2577" transform="translate(-77.8631,15.875)">
          <path d="m 206.86823,98.848304 c 8.41652,0 15.23946,6.823176 15.23946,15.239986 0,8.41679 -6.82294,15.24 -15.23946,15.24 -8.41648,0 -15.23946,-6.8232 -15.23946,-15.24 0,-8.41681 6.82298,-15.239986 15.23946,-15.239986 z" style="fill:none;stroke:#000000;stroke-width:0.0761986;stroke-linecap:butt;stroke-linejoin:miter;stroke-miterlimit:2.61313;stroke-dasharray:none;stroke-opacity:1" id="path1397" />
        </g>
        <g id="g2545-1-69" transform="translate(104.77267,22.787425)">
          <path d="m 37.346389,37.719002 c 6.66307,0 12.06456,5.401698 12.06456,12.065 0,6.663302 -5.40149,12.065 -12.06456,12.065 -6.66307,0 -12.06456,-5.401698 -12.06456,-12.065 0,-6.663302 5.40149,-12.065 12.06456,-12.065 z" style="fill:none;stroke:#000000;stroke-width:0.0761986;stroke-linecap:butt;stroke-linejoin:miter;stroke-miterlimit:2.61313;stroke-dasharray:none;stroke-opacity:1" id="path1403-9-7" />
        </g>
        <g id="g2545-1-50" transform="translate(78.125344,38.851414)">
          <path d="m 37.346389,37.719002 c 6.66307,0 12.06456,5.401698 12.06456,12.065 0,6.663302 -5.40149,12.065 -12.06456,12.065 -6.66307,0 -12.06456,-5.401698 -12.06456,-12.065 0,-6.663302 5.40149,-12.065 12.06456,-12.065 z" style="fill:none;stroke:#000000;stroke-width:0.0761986;stroke-linecap:butt;stroke-linejoin:miter;stroke-miterlimit:2.61313;stroke-dasharray:none;stroke-opacity:1" id="path1403-9-04" />
        </g>
        <g id="g2545-1-1" transform="translate(52.611951,26.000223)">
          <path d="m 37.346389,37.719002 c 6.66307,0 12.06456,5.401698 12.06456,12.065 0,6.663302 -5.40149,12.065 -12.06456,12.065 -6.66307,0 -12.06456,-5.401698 -12.06456,-12.065 0,-6.663302 5.40149,-12.065 12.06456,-12.065 z" style="fill:none;stroke:#000000;stroke-width:0.0761986;stroke-linecap:butt;stroke-linejoin:miter;stroke-miterlimit:2.61313;stroke-dasharray:none;stroke-opacity:1" id="path1403-9-1" />
        </g>
        <g id="g2545-1-03" transform="translate(22.562844,25.055282)">
          <path d="m 37.346389,37.719002 c 6.66307,0 12.06456,5.401698 12.06456,12.065 0,6.663302 -5.40149,12.065 -12.06456,12.065 -6.66307,0 -12.06456,-5.401698 -12.06456,-12.065 0,-6.663302 5.40149,-12.065 12.06456,-12.065 z" style="fill:none;stroke:#000000;stroke-width:0.0761986;stroke-linecap:butt;stroke-linejoin:miter;stroke-miterlimit:2.61313;stroke-dasharray:none;stroke-opacity:1" id="path1403-9-8" />
        </g>
        <g id="g2545-1-4" transform="translate(130.85302,10.314218)">
          <path d="m 37.346389,37.719002 c 6.66307,0 12.06456,5.401698 12.06456,12.065 0,6.663302 -5.40149,12.065 -12.06456,12.065 -6.66307,0 -12.06456,-5.401698 -12.06456,-12.065 0,-6.663302 5.40149,-12.065 12.06456,-12.065 z" style="fill:none;stroke:#000000;stroke-width:0.0761986;stroke-linecap:butt;stroke-linejoin:miter;stroke-miterlimit:2.61313;stroke-dasharray:none;stroke-opacity:1" id="path1403-9-14" />
        </g>
        <g id="g2545-1-0" transform="translate(159.20123,10.503201)">
          <path d="m 37.346389,37.719002 c 6.66307,0 12.06456,5.401698 12.06456,12.065 0,6.663302 -5.40149,12.065 -12.06456,12.065 -6.66307,0 -12.06456,-5.401698 -12.06456,-12.065 0,-6.663302 5.40149,-12.065 12.06456,-12.065 z" style="fill:none;stroke:#000000;stroke-width:0.0761986;stroke-linecap:butt;stroke-linejoin:miter;stroke-miterlimit:2.61313;stroke-dasharray:none;stroke-opacity:1" id="path1403-9-2" />
        </g>
        <g id="g2545-1-8" transform="translate(187.36046,16.55082)">
          <path d="m 37.346389,37.719002 c 6.66307,0 12.06456,5.401698 12.06456,12.065 0,6.663302 -5.40149,12.065 -12.06456,12.065 -6.66307,0 -12.06456,-5.401698 -12.06456,-12.065 0,-6.663302 5.40149,-12.065 12.06456,-12.065 z" style="fill:none;stroke:#000000;stroke-width:0.0761986;stroke-linecap:butt;stroke-linejoin:miter;stroke-miterlimit:2.61313;stroke-dasharray:none;stroke-opacity:1" id="path1403-9-26" />
        </g>
        <g id="g2545-1-49" transform="translate(105.52861,51.135643)">
          <path d="m 37.346389,37.719002 c 6.66307,0 12.06456,5.401698 12.06456,12.065 0,6.663302 -5.40149,12.065 -12.06456,12.065 -6.66307,0 -12.06456,-5.401698 -12.06456,-12.065 0,-6.663302 5.40149,-12.065 12.06456,-12.065 z" style="fill:none;stroke:#000000;stroke-width:0.0761986;stroke-linecap:butt;stroke-linejoin:miter;stroke-miterlimit:2.61313;stroke-dasharray:none;stroke-opacity:1" id="path1403-9-17" />
        </g>
        <g id="g2545-1-6" transform="translate(131.042,38.473438)">
          <path d="m 37.346389,37.719002 c 6.66307,0 12.06456,5.401698 12.06456,12.065 0,6.663302 -5.40149,12.065 -12.06456,12.065 -6.66307,0 -12.06456,-5.401698 -12.06456,-12.065 0,-6.663302 5.40149,-12.065 12.06456,-12.065 z" style="fill:none;stroke:#000000;stroke-width:0.0761986;stroke-linecap:butt;stroke-linejoin:miter;stroke-miterlimit:2.61313;stroke-dasharray:none;stroke-opacity:1" id="path1403-9-5" />
        </g>
        <g id="g2545-1-5" transform="translate(159.39023,38.284451)">
          <path d="m 37.346389,37.719002 c 6.66307,0 12.06456,5.401698 12.06456,12.065 0,6.663302 -5.40149,12.065 -12.06456,12.065 -6.66307,0 -12.06456,-5.401698 -12.06456,-12.065 0,-6.663302 5.40149,-12.065 12.06456,-12.065 z" style="fill:none;stroke:#000000;stroke-width:0.0761986;stroke-linecap:butt;stroke-linejoin:miter;stroke-miterlimit:2.61313;stroke-dasharray:none;stroke-opacity:1" id="path1403-9-25" />
        </g>
        <g id="g2545-1-7" transform="translate(187.54945,44.710045)">
          <path d="m 37.346389,37.719002 c 6.66307,0 12.06456,5.401698 12.06456,12.065 0,6.663302 -5.40149,12.065 -12.06456,12.065 -6.66307,0 -12.06456,-5.401698 -12.06456,-12.065 0,-6.663302 5.40149,-12.065 12.06456,-12.065 z" style="fill:none;stroke:#000000;stroke-width:0.0761986;stroke-linecap:butt;stroke-linejoin:miter;stroke-miterlimit:2.61313;stroke-dasharray:none;stroke-opacity:1" id="path1403-9-28" />
        </g>
      </g>
      <g id="button_24_mm" transform="translate(98.948908,42.819441)">
        <circle style="fill:none;stroke:#000000;stroke-width:0.0750001;stroke-linejoin:round;stroke-miterlimit:2.61313" id="button_hole_24_mm" cx="13.499018" cy="13.499018" r="12.103" />
      </g>
    </g>
  </g>
</svg>