<?xml version="1.0" encoding="UTF-8" standalone="no"?>
<svg
   xmlns:dc="http://purl.org/dc/elements/1.1/"
   xmlns:cc="http://creativecommons.org/ns#"
   xmlns:rdf="http://www.w3.org/1999/02/22-rdf-syntax-ns#"
   xmlns:svg="http://www.w3.org/2000/svg"
   xmlns="http://www.w3.org/2000/svg"
   xmlns:sodipodi="http://sodipodi.sourceforge.net/DTD/sodipodi-0.dtd"
   xmlns:inkscape="http://www.inkscape.org/namespaces/inkscape"
   width="5.5in"
   height="5.5in"
   viewBox="0 0 139.7 139.7"
   version="1.1"
   id="svg5504"
   inkscape:version="1.0.2-2 (e86c870879, 2021-01-15)"
   sodipodi:docname="control-box.svg">
  <defs
     id="defs5498" />
  <sodipodi:namedview
     id="base"
     pagecolor="#ffffff"
     bordercolor="#0000ff"
     borderopacity="1"
     inkscape:pageopacity="0.0"
     inkscape:pageshadow="2"
     inkscape:zoom="2.8"
     inkscape:cx="458.28111"
     inkscape:cy="264.10922"
     inkscape:document-units="mm"
     inkscape:current-layer="layer1"
     inkscape:document-rotation="0"
     showgrid="false"
     units="in"
     inkscape:window-width="3840"
     inkscape:window-height="2081"
     inkscape:window-x="-9"
     inkscape:window-y="-9"
     inkscape:window-maximized="1"
     inkscape:showpageshadow="false" />
  <metadata
     id="metadata5501">
    <rdf:RDF>
      <cc:Work
         rdf:about="">
        <dc:format>image/svg+xml</dc:format>
        <dc:type
           rdf:resource="http://purl.org/dc/dcmitype/StillImage" />
        <dc:title></dc:title>
      </cc:Work>
    </rdf:RDF>
  </metadata>
  <g
     inkscape:label="Layer 1"
     inkscape:groupmode="layer"
     id="layer1">
    <g
       id="g996">
      <rect
         style="fill:none;stroke:#ff0000;stroke-width:0.0760015;stroke-linejoin:round;stroke-miterlimit:2.61313;stroke-dasharray:none"
         id="rect44"
         width="139.7"
         height="139.7"
         x="-139.7"
         y="-139.7"
         rx="12.7"
         ry="12.7"
         transform="scale(-1)" />
      <path
         id="rect869"
         style="fill:none;stroke:#ff0000;stroke-width:0.076;stroke-linejoin:round;stroke-miterlimit:2.61313;stroke-dasharray:none"
         d="m 124.00018,136.70018 c 1.69809,0 3.31504,-0.33271 4.79299,-0.93224 a 5,-5 0 0 1 -2.09341,-4.06797 5,-5 0 0 1 5.00021,-5.00021 5,-5 0 0 1 4.06797,2.09289 c 0.59941,-1.47783 0.93224,-3.09455 0.93224,-4.79247 V 15.699818 c 0,-1.69814 -0.33268,-3.31501 -0.93224,-4.79299 a 5,-5 0 0 1 -4.06797,2.09341 5,-5 0 0 1 -5.00021,-5.0002095 5,-5 0 0 1 2.09341,-4.06797 c -1.47798,-0.59956 -3.09485,-0.93224 -4.79299,-0.93224 H 15.699817 c -1.698138,0 -3.315004,0.33268 -4.792988,0.93224 a 5,-5 0 0 1 2.093412,4.06797 5,-5 0 0 1 -5.0002119,5.0002095 5,-5 0 0 1 -4.0679687,-2.09341 c -0.5995617,1.47798 -0.9322435,3.09485 -0.9322435,4.79299 V 124.00018 c 0,1.69814 0.3326818,3.31501 0.9322435,4.79299 a 5,-5 0 0 1 4.0679687,-2.09341 5,-5 0 0 1 5.0002119,5.00021 5,-5 0 0 1 -2.093412,4.06797 c 1.477984,0.59956 3.09485,0.93224 4.792988,0.93224 z" />
      <circle
         style="fill:none;stroke:#000000;stroke-width:0.076;stroke-linejoin:round;stroke-miterlimit:2.61313;stroke-dasharray:none"
         id="path873"
         cx="-131.7"
         cy="-131.7"
         r="2"
         transform="scale(-1)" />
      <circle
         style="fill:none;stroke:#000000;stroke-width:0.076;stroke-linejoin:round;stroke-miterlimit:2.61313;stroke-dasharray:none"
         id="path873-0"
         cx="-8.0000019"
         cy="-131.7"
         r="2"
         transform="scale(-1)" />
      <circle
         style="fill:none;stroke:#000000;stroke-width:0.076;stroke-linejoin:round;stroke-miterlimit:2.61313;stroke-dasharray:none"
         id="path873-9"
         cx="-8.0000019"
         cy="-8.0000019"
         r="2"
         transform="scale(-1)" />
      <circle
         style="fill:none;stroke:#000000;stroke-width:0.076;stroke-linejoin:round;stroke-miterlimit:2.61313;stroke-dasharray:none"
         id="path873-4"
         cx="-131.7"
         cy="-8.0000019"
         r="2"
         transform="scale(-1)" />
    </g>
  </g>
</svg>
