<?xml version="1.0" encoding="UTF-8" standalone="no"?>
<svg
   xmlns:dc="http://purl.org/dc/elements/1.1/"
   xmlns:cc="http://creativecommons.org/ns#"
   xmlns:rdf="http://www.w3.org/1999/02/22-rdf-syntax-ns#"
   xmlns:svg="http://www.w3.org/2000/svg"
   xmlns="http://www.w3.org/2000/svg"
   xmlns:sodipodi="http://sodipodi.sourceforge.net/DTD/sodipodi-0.dtd"
   xmlns:inkscape="http://www.inkscape.org/namespaces/inkscape"
   width="11in"
   height="5.5in"
   viewBox="0 0 279.4 139.7"
   version="1.1"
   id="svg867"
   inkscape:version="1.0.2-2 (e86c870879, 2021-01-15)"
   sodipodi:docname="full-control-box.svg">
  <sodipodi:namedview
     pagecolor="#ffffff"
     bordercolor="#666666"
     borderopacity="1"
     objecttolerance="10"
     gridtolerance="10"
     guidetolerance="10"
     inkscape:pageopacity="0"
     inkscape:pageshadow="2"
     inkscape:window-width="3840"
     inkscape:window-height="2081"
     id="namedview1721"
     showgrid="false"
     showguides="true"
     inkscape:guide-bbox="true"
     inkscape:zoom="1.5227273"
     inkscape:cx="575.34028"
     inkscape:cy="319.04404"
     inkscape:window-x="-9"
     inkscape:window-y="-9"
     inkscape:window-maximized="1"
     inkscape:current-layer="layer1"
     inkscape:document-rotation="0" />
  <defs
     id="defs861">
    <marker
       id="Arrow2Sstart"
       inkscape:isstock="true"
       inkscape:stockid="Arrow2Sstart"
       orient="auto"
       refX="0"
       refY="0"
       style="overflow:visible">
      <path
         d="M 8.72,4.03 -2.21,0.02 8.72,-4 c -1.75,2.37 -1.74,5.62 0,8.03 z"
         id="Arrow2SstartPath"
         style="fill:#000000;fill-opacity:1;stroke:#000000;stroke-opacity:1"
         transform="matrix(0.3,0,0,0.3,-0.69,0)" />
    </marker>
    <marker
       id="Arrow2Send"
       inkscape:isstock="true"
       inkscape:stockid="Arrow2Send"
       orient="auto"
       refX="0"
       refY="0"
       style="overflow:visible">
      <path
         d="M 8.72,4.03 -2.21,0.02 8.72,-4 c -1.75,2.37 -1.74,5.62 0,8.03 z"
         id="Arrow2SendPath"
         style="fill:#000000;fill-opacity:1;stroke:#000000;stroke-opacity:1"
         transform="matrix(-0.3,0,0,-0.3,0.69,0)" />
    </marker>
  </defs>
  <metadata
     id="metadata864">
    <rdf:RDF>
      <cc:Work
         rdf:about="">
        <dc:format>image/svg+xml</dc:format>
        <dc:type
           rdf:resource="http://purl.org/dc/dcmitype/StillImage" />
        <dc:title></dc:title>
      </cc:Work>
    </rdf:RDF>
  </metadata>
  <g
     inkscape:label="Layer 1"
     inkscape:groupmode="layer"
     id="layer1">
    <g
       id="g3676">
      <path
         id="rect6067"
         style="fill:none;stroke:#ff0000;stroke-width:0.0761689;stroke-linejoin:round;stroke-miterlimit:2.61313"
         d="m 152.40337,139.66175 h 114.25524 c 7.03772,0 12.70347,-5.6642 12.70347,-12.7 V 12.738245 c 0,-7.0357995 -5.66575,-12.69999924 -12.70347,-12.69999924 H 152.40337 126.99643 12.741714 c -7.0377211,0 -12.70346824,5.66419974 -12.70346824,12.69999924 V 126.96175 c 0,7.0358 5.66574714,12.7 12.70346824,12.7 H 126.99643 Z"
         sodipodi:nodetypes="cssssccsssscc" />
      <circle
         style="fill:none;stroke:#000000;stroke-width:0.0762;stroke-linejoin:round;stroke-miterlimit:2.61313"
         id="path6315"
         cx="10.0381"
         cy="10.0381"
         r="2" />
      <circle
         style="fill:none;stroke:#000000;stroke-width:0.0762;stroke-linejoin:round;stroke-miterlimit:2.61313"
         id="path6315-8"
         cx="10.038001"
         cy="129.7381"
         r="2" />
      <circle
         style="fill:none;stroke:#000000;stroke-width:0.0762;stroke-linejoin:round;stroke-miterlimit:2.61313"
         id="path6315-9"
         cx="129.7381"
         cy="129.7381"
         r="2" />
      <circle
         style="fill:none;stroke:#000000;stroke-width:0.0762;stroke-linejoin:round;stroke-miterlimit:2.61313"
         id="path6315-95"
         cx="129.7381"
         cy="10.0381"
         r="2" />
      <path
         id="rect6069-8"
         style="fill:none;stroke:#ff0000;stroke-width:0.0744863;stroke-linejoin:round;stroke-miterlimit:2.61313"
         d="m 129.73833,17.038236 c -3.86606,5e-5 -7.00014,-3.134026 -7.00009,-7.000089 1.9e-4,-2.9656035 1.86912,-5.6092554 4.66484,-6.5985637 C 126.39627,3.1776484 125.33925,3.037024 124.24823,3.037024 H 15.45177 c -1.075764,0 -2.118889,0.1358032 -3.112988,0.3906737 2.813499,0.9790386 4.69915,3.6314738 4.699454,6.6104493 4.9e-5,3.866063 -3.134026,7.000138 -7.000089,7.000089 C 7.0593062,17.038008 4.4069116,15.152594 3.4276977,12.339298 3.1729074,13.333253 3.037024,14.37618 3.037024,15.45177 v 108.79646 c 0,1.09102 0.1406244,2.14804 0.4025593,3.15485 0.9893058,-2.79576 3.632968,-4.66469 6.5985637,-4.66484 3.865845,1.8e-4 6.999622,3.13419 6.999572,7.00009 -2.03e-4,2.92834 -1.823142,5.54709 -4.56923,6.56394 0.955301,0.23404 1.953846,0.3607 2.983281,0.3607 h 108.79646 c 1.04601,0 2.06055,-0.12963 3.02979,-0.37103 -2.73096,-1.02523 -4.53986,-3.63655 -4.53978,-6.55361 -5e-5,-3.86606 3.13403,-7.00014 7.00009,-7.00009 H 149.662 c 3.86584,1.8e-4 6.99962,3.13419 6.99957,7.00009 -2e-4,2.92834 -1.82314,5.54709 -4.56923,6.56394 0.9553,0.23404 1.95384,0.3607 2.98328,0.3607 h 108.79646 c 1.04601,0 2.06055,-0.12963 3.02979,-0.37103 -2.73096,-1.02523 -4.53986,-3.63655 -4.53978,-6.55361 -5e-5,-3.86606 3.13403,-7.00014 7.00009,-7.00009 2.917,2.2e-4 5.52809,1.80931 6.55309,4.54029 0.2415,-0.96941 0.37155,-1.98408 0.37155,-3.0303 V 15.45177 c 0,-1.029435 -0.12666,-2.02798 -0.3607,-2.983281 -1.0167,2.746305 -3.63548,4.569474 -6.56394,4.569747 -3.86606,5e-5 -7.00014,-3.134026 -7.00009,-7.000089 1.9e-4,-2.9656035 1.86912,-5.6092554 4.66484,-6.5985637 C 266.02012,3.1776484 264.9631,3.037024 263.87208,3.037024 H 155.07562 c -1.07576,0 -2.11889,0.1358032 -3.11299,0.3906737 2.8135,0.9790365 4.69916,3.6314722 4.69946,6.6104493 5e-5,3.866063 -3.13403,7.000139 -7.00009,7.000089 z"
         sodipodi:nodetypes="cccssccccssccccssccccccssccccssccccsscccc" />
      <circle
         style="fill:none;stroke:#000000;stroke-width:0.0762;stroke-linejoin:round;stroke-miterlimit:2.61313"
         id="path6315-5"
         cx="149.66196"
         cy="10.0381"
         r="2" />
      <circle
         style="fill:none;stroke:#000000;stroke-width:0.0762;stroke-linejoin:round;stroke-miterlimit:2.61313"
         id="path6315-8-3"
         cx="149.66185"
         cy="129.7381"
         r="2" />
      <circle
         style="fill:none;stroke:#000000;stroke-width:0.0762;stroke-linejoin:round;stroke-miterlimit:2.61313"
         id="path6315-9-7"
         cx="269.36194"
         cy="129.7381"
         r="2" />
      <circle
         style="fill:none;stroke:#000000;stroke-width:0.0762;stroke-linejoin:round;stroke-miterlimit:2.61313"
         id="path6315-95-3"
         cx="269.36194"
         cy="10.0381"
         r="2" />
    </g>
  </g>
</svg>
