<?xml version="1.0" encoding="UTF-8" standalone="no"?>
<svg
   xmlns:dc="http://purl.org/dc/elements/1.1/"
   xmlns:cc="http://creativecommons.org/ns#"
   xmlns:rdf="http://www.w3.org/1999/02/22-rdf-syntax-ns#"
   xmlns:svg="http://www.w3.org/2000/svg"
   xmlns="http://www.w3.org/2000/svg"
   xmlns:sodipodi="http://sodipodi.sourceforge.net/DTD/sodipodi-0.dtd"
   xmlns:inkscape="http://www.inkscape.org/namespaces/inkscape"
   width="279.39999mm"
   height="186.944mm"
   viewBox="0 0 279.4 186.94402"
   version="1.1"
   id="svg1496"
   inkscape:version="1.0.2-2 (e86c870879, 2021-01-15)"
   sodipodi:docname="full-module.svg">
  <defs
     id="defs1490" />
  <sodipodi:namedview
     id="base"
     pagecolor="#ffffff"
     bordercolor="#0000ff"
     borderopacity="1"
     inkscape:pageopacity="0.0"
     inkscape:pageshadow="2"
     inkscape:zoom="1.4"
     inkscape:cx="729.64083"
     inkscape:cy="526.56363"
     inkscape:document-units="in"
     inkscape:current-layer="layer1"
     inkscape:document-rotation="0"
     showgrid="false"
     units="mm"
     inkscape:window-width="3840"
     inkscape:window-height="2081"
     inkscape:window-x="-9"
     inkscape:window-y="-9"
     inkscape:window-maximized="1"
     inkscape:showpageshadow="false"
     showguides="true"
     inkscape:guide-bbox="true" />
  <metadata
     id="metadata1493">
    <rdf:RDF>
      <cc:Work
         rdf:about="">
        <dc:format>image/svg+xml</dc:format>
        <dc:type
           rdf:resource="http://purl.org/dc/dcmitype/StillImage" />
        <dc:title />
      </cc:Work>
    </rdf:RDF>
  </metadata>
  <g
     inkscape:label="Layer 1"
     inkscape:groupmode="layer"
     id="layer1">
    <g
       id="g206">
      <rect
         style="fill:none;stroke:#000000;stroke-width:0.0762;stroke-linejoin:round;stroke-miterlimit:2.61313;stroke-dasharray:none"
         id="rect16"
         width="279.40002"
         height="186.94402"
         x="-279.40012"
         y="-186.94412"
         rx="12.700001"
         ry="12.7"
         transform="scale(-1)" />
      <circle
         style="fill:none;stroke:#000000;stroke-width:0.0762;stroke-linejoin:round;stroke-miterlimit:2.61313;stroke-dasharray:none"
         id="path895"
         cx="-268.45013"
         cy="10.950104"
         r="4.6000004"
         transform="scale(-1,1)" />
      <circle
         style="fill:none;stroke:#000000;stroke-width:0.0762;stroke-linejoin:round;stroke-miterlimit:2.61313;stroke-dasharray:none"
         id="path895-1"
         cx="-10.950104"
         cy="10.950104"
         r="4.6000004"
         transform="scale(-1,1)" />
      <ellipse
         style="fill:none;stroke:#000000;stroke-width:0.0762;stroke-linejoin:round;stroke-miterlimit:2.61313;stroke-dasharray:none"
         id="path895-16"
         cx="-268.45023"
         cy="175.99411"
         rx="4.5999002"
         ry="4.6000004"
         transform="scale(-1,1)" />
      <circle
         style="fill:none;stroke:#000000;stroke-width:0.0762;stroke-linejoin:round;stroke-miterlimit:2.61313;stroke-dasharray:none"
         id="path895-5"
         cx="-10.950104"
         cy="175.99411"
         r="4.6000004"
         transform="scale(-1,1)" />
      <path
         id="rect44-0"
         style="fill:none;stroke:#ff0000;stroke-width:0.0760015;stroke-linejoin:round;stroke-miterlimit:2.61313;stroke-dasharray:none"
         d="m 139.69998,163.32211 h -127 c -7.0358005,0 -12.7000004,-5.6642 -12.7000004,-12.7 V 36.322111 c 0,-7.0358 5.6641999,-12.7 12.7000004,-12.7 h 127 v 13 l -8.00003,2.38e-4 c -2.76159,1.16e-4 -5.00033,-2.238622 -5.00021,-5.00021 1.3e-4,-1.614437 0.77978,-3.129468 2.09341,-4.06797 -1.47798,-0.59956 -3.09485,-0.93224 -4.79299,-0.93224 H 15.699797 c -1.698138,0 -3.315004,0.33268 -4.792988,0.93224 1.31363,0.938501 2.093278,2.453533 2.093412,4.06797 1.16e-4,2.761589 -2.238624,5.000327 -5.0002123,5.00021 -1.6144365,-1.34e-4 -3.1294677,-0.779781 -4.0679687,-2.09341 -0.5995617,1.47798 -0.9322435,3.09485 -0.9322435,4.79299 V 147.62229 c 0,1.69814 0.3326818,3.31501 0.9322435,4.79299 0.938501,-1.31363 2.4535322,-2.09328 4.0679687,-2.09341 2.7615893,-1.2e-4 5.0003283,2.23862 5.0002123,5.00021 -1.34e-4,1.61444 -0.779782,3.12947 -2.093412,4.06797 1.477984,0.59956 3.09485,0.93224 4.792988,0.93224 H 124.00016 c 1.69809,0 3.31504,-0.33271 4.79299,-0.93224 -1.31363,-0.9385 -2.09328,-2.45353 -2.09341,-4.06797 -1.2e-4,-2.76159 2.23862,-5.00033 5.00021,-5.00021 l 8.00003,2.4e-4 z"
         sodipodi:nodetypes="csssscccccssccccssccccssccccc" />
      <path
         id="path873-04"
         style="fill:none;stroke:#000000;stroke-width:0.076;stroke-linejoin:round;stroke-miterlimit:2.61313;stroke-dasharray:none"
         d="m 129.69998,155.32211 a 2,2 0 0 1 2,-2 2,2 0 0 1 2,2 2,2 0 0 1 -2,2 2,2 0 0 1 -2,-2 z" />
      <path
         id="path873-0-3"
         style="fill:none;stroke:#000000;stroke-width:0.076;stroke-linejoin:round;stroke-miterlimit:2.61313;stroke-dasharray:none"
         d="m 5.9999815,155.32211 a 2,2 0 0 1 2,-2 2,2 0 0 1 2.0000001,2 2,2 0 0 1 -2.0000001,2 2,2 0 0 1 -2,-2 z" />
      <path
         id="path873-9-0"
         style="fill:none;stroke:#000000;stroke-width:0.076;stroke-linejoin:round;stroke-miterlimit:2.61313;stroke-dasharray:none"
         d="m 5.9999815,31.622113 a 2,2 0 0 1 2,-2 2,2 0 0 1 2.0000001,2 2,2 0 0 1 -2.0000001,2 2,2 0 0 1 -2,-2 z" />
      <path
         id="path873-4-7"
         style="fill:none;stroke:#000000;stroke-width:0.076;stroke-linejoin:round;stroke-miterlimit:2.61313;stroke-dasharray:none"
         d="m 129.69998,31.622113 a 2,2 0 0 1 2,-2 2,2 0 0 1 2,2 2,2 0 0 1 -2,2 2,2 0 0 1 -2,-2 z" />
      <path
         id="rect44-9"
         style="fill:none;stroke:#ff0000;stroke-width:0.0760015;stroke-linejoin:round;stroke-miterlimit:2.61313;stroke-dasharray:none"
         d="m 139.7,163.32212 h 127 c 7.0358,0 12.7,-5.6642 12.7,-12.7 V 36.322117 c 0,-7.0358 -5.6642,-12.7 -12.7,-12.7 h -127 v 13 l 8.00003,2.38e-4 c 2.76159,1.16e-4 5.00033,-2.238622 5.00021,-5.00021 -1.3e-4,-1.614437 -0.77978,-3.129468 -2.09341,-4.06797 1.47798,-0.59956 3.09485,-0.93224 4.79299,-0.93224 h 108.30036 c 1.69814,0 3.31501,0.33268 4.79299,0.93224 -1.31363,0.938501 -2.09328,2.453533 -2.09341,4.06797 -1.2e-4,2.761589 2.23862,5.000327 5.00021,5.00021 1.61444,-1.34e-4 3.12947,-0.779781 4.06797,-2.09341 0.59956,1.47798 0.93224,3.09485 0.93224,4.79299 V 147.6223 c 0,1.69814 -0.33268,3.31501 -0.93224,4.79299 -0.9385,-1.31363 -2.45353,-2.09328 -4.06797,-2.09341 -2.76159,-1.2e-4 -5.00033,2.23862 -5.00021,5.00021 1.3e-4,1.61444 0.77978,3.12947 2.09341,4.06797 -1.47798,0.59956 -3.09485,0.93224 -4.79299,0.93224 H 155.39982 c -1.69809,0 -3.31504,-0.33271 -4.79299,-0.93224 1.31363,-0.9385 2.09328,-2.45353 2.09341,-4.06797 1.2e-4,-2.76159 -2.23862,-5.00033 -5.00021,-5.00021 l -8.00003,2.4e-4 z"
         sodipodi:nodetypes="csssscccccssccccssccccssccccc" />
      <path
         id="path873-94"
         style="fill:none;stroke:#000000;stroke-width:0.076;stroke-linejoin:round;stroke-miterlimit:2.61313;stroke-dasharray:none"
         d="m 149.7,155.32212 a -2,2 0 0 0 -2,-2 -2,2 0 0 0 -2,2 -2,2 0 0 0 2,2 -2,2 0 0 0 2,-2 z" />
      <path
         id="path873-0-2"
         style="fill:none;stroke:#000000;stroke-width:0.076;stroke-linejoin:round;stroke-miterlimit:2.61313;stroke-dasharray:none"
         d="m 273.4,155.32212 a -2,2 0 0 0 -2,-2 -2,2 0 0 0 -2,2 -2,2 0 0 0 2,2 -2,2 0 0 0 2,-2 z" />
      <path
         id="path873-9-01"
         style="fill:none;stroke:#000000;stroke-width:0.076;stroke-linejoin:round;stroke-miterlimit:2.61313;stroke-dasharray:none"
         d="m 273.4,31.622119 a -2,2 0 0 0 -2,-2 -2,2 0 0 0 -2,2 -2,2 0 0 0 2,2 -2,2 0 0 0 2,-2 z" />
      <path
         id="path873-4-5"
         style="fill:none;stroke:#000000;stroke-width:0.076;stroke-linejoin:round;stroke-miterlimit:2.61313;stroke-dasharray:none"
         d="m 149.7,31.622119 a -2,2 0 0 0 -2,-2 -2,2 0 0 0 -2,2 -2,2 0 0 0 2,2 -2,2 0 0 0 2,-2 z" />
    </g>
  </g>
</svg>
