<?xml version="1.0" encoding="UTF-8" standalone="no"?>
<svg
   xmlns:dc="http://purl.org/dc/elements/1.1/"
   xmlns:cc="http://creativecommons.org/ns#"
   xmlns:rdf="http://www.w3.org/1999/02/22-rdf-syntax-ns#"
   xmlns:svg="http://www.w3.org/2000/svg"
   xmlns="http://www.w3.org/2000/svg"
   xmlns:sodipodi="http://sodipodi.sourceforge.net/DTD/sodipodi-0.dtd"
   xmlns:inkscape="http://www.inkscape.org/namespaces/inkscape"
   width="94.800003mm"
   height="75mm"
   viewBox="0 0 94.800003 74.999999"
   version="1.1"
   id="svg858"
   inkscape:version="1.0.2-2 (e86c870879, 2021-01-15)"
   sodipodi:docname="joystick.svg">
  <defs
     id="defs852" />
  <sodipodi:namedview
     id="base"
     pagecolor="#ffffff"
     bordercolor="#0000ff"
     borderopacity="1"
     inkscape:pageopacity="0.0"
     inkscape:pageshadow="2"
     inkscape:zoom="5.6"
     inkscape:cx="188.50459"
     inkscape:cy="152.68969"
     inkscape:document-units="mm"
     inkscape:current-layer="layer1"
     inkscape:document-rotation="0"
     showgrid="false"
     inkscape:window-width="3840"
     inkscape:window-height="2081"
     inkscape:window-x="-9"
     inkscape:window-y="-9"
     inkscape:window-maximized="1"
     inkscape:showpageshadow="false" />
  <metadata
     id="metadata855">
    <rdf:RDF>
      <cc:Work
         rdf:about="">
        <dc:format>image/svg+xml</dc:format>
        <dc:type
           rdf:resource="http://purl.org/dc/dcmitype/StillImage" />
        <dc:title></dc:title>
      </cc:Work>
    </rdf:RDF>
  </metadata>
  <g
     inkscape:label="Layer 1"
     inkscape:groupmode="layer"
     id="layer1">
    <g
       id="g923">
      <path
         id="rect1448"
         style="fill:none;stroke:#ff0000;stroke-width:0.0750001;stroke-linejoin:round;stroke-miterlimit:2.61313;stroke-dasharray:none"
         d="m 42.399995,0.03824056 c -1.661999,0 -2.999817,1.33781704 -2.999817,2.99981704 v 6.372221 H 6.1722325 c -3.324,0 -6.00014998,2.6756334 -6.00014998,5.9996334 v 44.256214 c 0,3.324 2.67614998,6.000149 6.00014998,6.000149 H 39.400178 v 6.371704 c 0,1.662001 1.337818,3.000335 2.999817,3.000335 h 9.999908 c 1.661999,0 3.000333,-1.338334 3.000333,-3.000335 v -6.371704 h 33.227946 c 3.324,0 5.999633,-2.676149 5.999633,-6.000149 V 15.409912 c 0,-3.324 -2.675633,-5.9996334 -5.999633,-5.9996334 H 55.400236 v -6.372221 c 0,-1.662 -1.338334,-2.99981704 -3.000333,-2.99981704 z" />
      <path
         d="m 47.3999,48.193756 c -5.8637,0 -10.6172,-4.753504 -10.6172,-10.6172 0,-5.863696 4.7535,-10.6172 10.6172,-10.6172 5.8637,0 10.6172,4.753504 10.6172,10.6172 0,5.863696 -4.7535,10.6172 -10.6172,10.6172 z"
         style="fill:none;stroke:#000000;stroke-width:0.0762;stroke-linecap:butt;stroke-linejoin:miter;stroke-miterlimit:2.61313;stroke-dasharray:none;stroke-opacity:1"
         id="path1894" />
      <path
         d="m 47.399947,56.588276 c -10.521,0 -19.05,-8.529003 -19.05,-19.05 0,-10.520997 8.529,-19.049999 19.05,-19.049999 10.521,0 19.05,8.529002 19.05,19.049999 0,10.520997 -8.529,19.05 -19.05,19.05 z"
         style="fill:none;stroke:#ff0000;stroke-width:0.0762;stroke-linecap:butt;stroke-linejoin:miter;stroke-miterlimit:2.61313;stroke-dasharray:none;stroke-opacity:1"
         id="path1896" />
      <g
         id="g913">
        <circle
           style="fill:none;stroke:#000000;stroke-width:0.076;stroke-linejoin:round;stroke-miterlimit:2.61313;stroke-dasharray:none"
           id="path853"
           cx="6.1689506"
           cy="15.529277"
           r="2.5840001" />
        <circle
           style="fill:none;stroke:#000000;stroke-width:0.076;stroke-linejoin:round;stroke-miterlimit:2.61313;stroke-dasharray:none"
           id="path853-8"
           cx="88.630943"
           cy="15.529277"
           r="2.5840001" />
        <circle
           style="fill:none;stroke:#000000;stroke-width:0.076;stroke-linejoin:round;stroke-miterlimit:2.61313;stroke-dasharray:none"
           id="path853-7"
           cx="88.630943"
           cy="59.547276"
           r="2.5840001" />
        <circle
           style="fill:none;stroke:#000000;stroke-width:0.076;stroke-linejoin:round;stroke-miterlimit:2.61313;stroke-dasharray:none"
           id="path853-4"
           cx="6.1689506"
           cy="59.547276"
           r="2.5840001" />
      </g>
    </g>
  </g>
</svg>
