<?xml version="1.0" encoding="UTF-8" standalone="no"?>
<svg
   xmlns:dc="http://purl.org/dc/elements/1.1/"
   xmlns:cc="http://creativecommons.org/ns#"
   xmlns:rdf="http://www.w3.org/1999/02/22-rdf-syntax-ns#"
   xmlns:svg="http://www.w3.org/2000/svg"
   xmlns="http://www.w3.org/2000/svg"
   xmlns:sodipodi="http://sodipodi.sourceforge.net/DTD/sodipodi-0.dtd"
   xmlns:inkscape="http://www.inkscape.org/namespaces/inkscape"
   width="5.5in"
   height="5.5in"
   viewBox="0 0 139.7 139.7"
   version="1.1"
   id="svg5504"
   inkscape:version="1.0.2-2 (e86c870879, 2021-01-15)"
   sodipodi:docname="open-control-box.svg">
  <defs
     id="defs5498" />
  <sodipodi:namedview
     id="base"
     pagecolor="#ffffff"
     bordercolor="#0000ff"
     borderopacity="1"
     inkscape:pageopacity="0.0"
     inkscape:pageshadow="2"
     inkscape:zoom="1.4"
     inkscape:cx="26.551514"
     inkscape:cy="443.70747"
     inkscape:document-units="mm"
     inkscape:current-layer="layer1"
     inkscape:document-rotation="0"
     showgrid="false"
     units="in"
     inkscape:window-width="3840"
     inkscape:window-height="2081"
     inkscape:window-x="-9"
     inkscape:window-y="-9"
     inkscape:window-maximized="1"
     inkscape:showpageshadow="false" />
  <metadata
     id="metadata5501">
    <rdf:RDF>
      <cc:Work
         rdf:about="">
        <dc:format>image/svg+xml</dc:format>
        <dc:type
           rdf:resource="http://purl.org/dc/dcmitype/StillImage" />
        <dc:title></dc:title>
      </cc:Work>
    </rdf:RDF>
  </metadata>
  <g
     inkscape:label="Layer 1"
     inkscape:groupmode="layer"
     id="layer1">
    <g
       id="g96">
      <path
         id="rect44"
         style="fill:none;stroke:#ff0000;stroke-width:0.0760015;stroke-linejoin:round;stroke-miterlimit:2.61313;stroke-dasharray:none"
         d="M 139.7,139.7 H 12.7 C 5.6641999,139.7 0,134.0358 0,127 V 12.7 C 0,5.6641999 5.6641999,0 12.7,0 h 127 v 13 l -8.00003,2.38e-4 c -2.76159,1.16e-4 -5.00033,-2.238622 -5.00021,-5.0002095 1.3e-4,-1.614437 0.77978,-3.1294687 2.09341,-4.06797 -1.47798,-0.59956 -3.09485,-0.93224 -4.79299,-0.93224 H 15.699817 c -1.698138,0 -3.315004,0.33268 -4.792988,0.93224 1.31363,0.9385008 2.093278,2.4535327 2.093412,4.06797 1.16e-4,2.7615885 -2.238624,5.0003265 -5.0002119,5.0002095 -1.6144365,-1.34e-4 -3.1294677,-0.779781 -4.0679687,-2.09341 -0.5995617,1.47798 -0.9322435,3.09485 -0.9322435,4.79299 V 124.00018 c 0,1.69814 0.3326818,3.31501 0.9322435,4.79299 0.938501,-1.31363 2.4535322,-2.09328 4.0679687,-2.09341 2.7615889,-1.2e-4 5.0003279,2.23862 5.0002119,5.00021 -1.34e-4,1.61444 -0.779782,3.12947 -2.093412,4.06797 1.477984,0.59956 3.09485,0.93224 4.792988,0.93224 H 124.00018 c 1.69809,0 3.31504,-0.33271 4.79299,-0.93224 -1.31363,-0.9385 -2.09328,-2.45353 -2.09341,-4.06797 -1.2e-4,-2.76159 2.23862,-5.00033 5.00021,-5.00021 L 139.7,126.7 Z"
         sodipodi:nodetypes="csssscccccssccccssccccssccccc" />
      <path
         id="path873"
         style="fill:none;stroke:#000000;stroke-width:0.076;stroke-linejoin:round;stroke-miterlimit:2.61313;stroke-dasharray:none"
         d="m 129.7,131.7 a -2,-2 0 0 1 2,-2 -2,-2 0 0 1 2,2 -2,-2 0 0 1 -2,2 -2,-2 0 0 1 -2,-2 z" />
      <path
         id="path873-0"
         style="fill:none;stroke:#000000;stroke-width:0.076;stroke-linejoin:round;stroke-miterlimit:2.61313;stroke-dasharray:none"
         d="m 6.0000019,131.7 a -2,-2 0 0 1 2,-2 -2,-2 0 0 1 2.0000001,2 -2,-2 0 0 1 -2.0000001,2 -2,-2 0 0 1 -2,-2 z" />
      <path
         id="path873-9"
         style="fill:none;stroke:#000000;stroke-width:0.076;stroke-linejoin:round;stroke-miterlimit:2.61313;stroke-dasharray:none"
         d="m 6.0000019,8.0000019 a -2,-2 0 0 1 2,-2 -2,-2 0 0 1 2.0000001,2 -2,-2 0 0 1 -2.0000001,2.0000001 -2,-2 0 0 1 -2,-2.0000001 z" />
      <path
         id="path873-4"
         style="fill:none;stroke:#000000;stroke-width:0.076;stroke-linejoin:round;stroke-miterlimit:2.61313;stroke-dasharray:none"
         d="m 129.7,8.0000019 a -2,-2 0 0 1 2,-2 -2,-2 0 0 1 2,2 -2,-2 0 0 1 -2,2.0000001 -2,-2 0 0 1 -2,-2.0000001 z" />
    </g>
  </g>
</svg>
